<?xml version="1.0" encoding="utf-8"?>
<!-- Generator: Adobe Illustrator 15.0.0, SVG Export Plug-In . SVG Version: 6.00 Build 0)  -->
<!DOCTYPE svg PUBLIC "-//W3C//DTD SVG 1.1//EN" "http://www.w3.org/Graphics/SVG/1.1/DTD/svg11.dtd">
<svg version="1.1" id="Layer_1" xmlns="http://www.w3.org/2000/svg" xmlns:xlink="http://www.w3.org/1999/xlink" x="0px" y="0px"
	 width="214.964px" height="113.503px" viewBox="0 0 214.964 113.503" enable-background="new 0 0 214.964 113.503"
	 xml:space="preserve">
<radialGradient id="SVGID_1_" cx="-89.8398" cy="1116.3247" r="142.6087" gradientTransform="matrix(-2.500320e-008 0.6886 1.6278 8.565914e-008 -1706.4583 118.9729)" gradientUnits="userSpaceOnUse">
	<stop  offset="0" style="stop-color:#FFFFFF;stop-opacity:0.2"/>
	<stop  offset="0.0144" style="stop-color:#F4F4F4;stop-opacity:0.2007"/>
	<stop  offset="0.0883" style="stop-color:#C2C2C2;stop-opacity:0.2045"/>
	<stop  offset="0.1677" style="stop-color:#949494;stop-opacity:0.2085"/>
	<stop  offset="0.2505" style="stop-color:#6C6C6C;stop-opacity:0.2128"/>
	<stop  offset="0.3378" style="stop-color:#4A4A4A;stop-opacity:0.2172"/>
	<stop  offset="0.4307" style="stop-color:#2F2F2F;stop-opacity:0.2219"/>
	<stop  offset="0.5313" style="stop-color:#1A1A1A;stop-opacity:0.2271"/>
	<stop  offset="0.6432" style="stop-color:#0B0B0B;stop-opacity:0.2328"/>
	<stop  offset="0.7759" style="stop-color:#030303;stop-opacity:0.2395"/>
	<stop  offset="0.9818" style="stop-color:#000000;stop-opacity:0.25"/>
</radialGradient>
<path fill="url(#SVGID_1_)" d="M211.893,25.893c0-5.887-7.606-19.621-12.496-19.621L25.168,5.512c-4.896,0-18.74,3.477-18.74,9.366
	l0.638,67.258c-0.958,21.652,13.556,18.229,18.303,19.744l171.602,6.527c12.5,2.147,17.993-7.775,17.993-13.66L211.893,25.893z"/>
<g>
	<g>
		<g>
			<g>
				<path fill="#010101" d="M206.192,77.373c0.964-14.67,2.978-10.074,4.291-15.467l0.556,7.438
					c-0.679,9.846-1.869,24.953-3.287,22.037C207.509,90.432,205.926,83.571,206.192,77.373z"/>
				<path fill="#010101" d="M212.426,94.232c-0.032-1.382,0.188-1.609,0.151-2.984l1.686,4.004L212.426,94.232z"/>
				<path fill="#010101" d="M209.766,50.964l-0.174-6.93c0.185-1.607,0.51,2.328,0.729,2.106l0.707-7.798
					C210.392,48.919,211.971,48.774,209.766,50.964z"/>
				<path fill="#010101" d="M161.138,5.699c-5.247-0.999,4.012-1.685,6.141-2.415c4.377,0.114,8.242,1.148,4.739,1.916
					C166.248,5.118,163.916,5.629,161.138,5.699z"/>
				<g>
					<path fill="#010101" d="M207.257,16.429c0.55-0.14,1.406,0.18,2.088,0.982c0.341,0.394,0.617,0.905,0.781,1.47
						c0.173,0.566,0.172,1.178,0.218,1.771l0.06,0.88l0.064,1.275c0.047,0.861,0.104,1.632,0.179,2.256
						c0.151,1.249,0.38,1.912,0.767,1.531c0.664-0.66,1.324-1.316,1.73-3.151l-0.218-1.89l-0.218-1.533
						c-0.119-0.996-0.307-1.968-0.797-2.821c-0.576-1.77-1.533-2.75-2.131-3.375c-0.629-0.617-0.977-0.914-1.027-1.094
						c-0.123-0.342,0.943-0.188,2.111,0.371c1.188,0.523,2.309,1.553,2.811,1.735c0.249,0.088,0.408-0.078,0.285-0.631
						c-0.135-0.54-0.521-1.525-1.684-2.749c-1.145-0.901-2.146-1.367-2.969-1.668c-0.831-0.289-1.5-0.401-2.124-0.416
						c-1.64-0.147-2.731,0.094-3.381,0.254c-0.651,0.168-0.882,0.323-0.824,0.477s0.403,0.307,0.915,0.473
						c0.512,0.162,1.191,0.348,1.906,0.671c-0.969-0.146-1.861-0.107-2.676-0.134c-0.852-0.02-1.791-0.056-2.557-0.106
						c-1.574-0.1-2.84-0.256-3.875-0.449c-2.07-0.386-3.224-0.923-4.117-1.466c-1.787-1.086-2.535-2.198-7.504-2.185
						c-13.633,0.569-5.244,3.299-8.533,4.286c0.146-2.718-24.664-4.808-44.723-4.981C113.049,7.36,91.962,4.725,69.488,6.421
						c-9.594-0.348-22.125-0.955-34.724-1.184c0.003-0.143-0.024-0.281,0-0.424c-0.307,0.116-0.497,0.244-0.497,0.396
						c-2.316-0.492-5.404-0.682-8.769-0.739l-2.672-0.017c-1.211,0.012-2.439-0.009-3.64,0.191
						c-2.406,0.351-4.716,1.238-6.657,2.527c-1.948,1.281-3.521,2.961-4.598,4.752c-1.084,1.792-1.664,3.678-1.907,5.347
						c-0.145,1.705-0.317,3.184-0.568,4.362c-0.222,0.836-0.514,1.408-0.9,1.689l0.27,2.252c0.222,11.239-1.117,0-1.742,6.46
						c0.4,10.388-2.146,24.128,0.442,29.466c-0.178,0.842-0.312-0.272-0.49,0.572l0.446,8.416c0.625,0.561,1.383,2.254,2.054,0.854
						c-0.044,1.955,0.715,3.656,0.49,6.451c0,7.022-1.295,0.842-1.832,3.365L4.715,96.13c0.149,3.439,1.734,6.711,4.104,9.177
						c2.378,2.476,5.541,4.163,8.926,4.888c0.846,0.186,1.708,0.301,2.576,0.367c0.868,0.063,1.747,0.042,2.619,0.068l3.574,0.055
						c2.318,0.042,4.618,0.104,6.888,0.184c4.54,0.161,8.961,0.401,13.169,0.736c-0.01,2.234,19.357,1.879,27.503,1.744
						c16.272,1.969,35.091-2.229,47.438-0.352c-7.308,1.43-19.931-0.138-21.333,1.428l3.361,0.716
						c7.58,0.491,19.646,1.563,24.139-0.087c-4.201-0.896-4.484-1.7-5.885-2.369c3.369-0.402,3.937-1.025,8.146-1.251
						c6.174-0.177,12.918,0.136,12.918,1.253c-3.379,0.4-7.027-0.002-10.115,0.089c-1.133,1.251,9.821,1.341,13.471,1.743
						c-6.45-2.857,10.683-4.063-6.721-5.896l9.549-0.582c7.309-2.543-30.864-2.459-14.295-5.271
						c1.687-0.761-0.557-1.608,5.064-2.278c-3.082-1.029-9.268-0.851-11.792-0.271c-4.211-2.01-23.853-0.225-24.418-2.948
						c-16.013,2.187-23.569-1.655-38.165-2.147c-18.528-0.582-6.464,1.606-11.798,3.08c-9.266-0.849-18.538,0.534-24.156,1.203
						c-5.051,0.045-8.136-0.982-4.764-1.384l-0.888-0.058l-0.444-0.028l-0.206-0.015l-0.104-0.014l-0.813-0.115
						c-0.53-0.094-1.038-0.258-1.501-0.494c-0.928-0.463-1.681-1.213-2.081-2.114c-0.2-0.449-0.305-0.937-0.301-1.421
						c0.013-0.485,0.104-0.956,0.153-1.408l0.021-0.169c0.007-0.037,0.015-0.267,0.021-0.39l0.042-0.894l0.083-1.784l0.161-3.572
						c0.417-9.524,0.745-19.067,1.003-28.611c0.258-9.544,0.446-19.088,0.584-28.615l0.094-6.77c0.021-0.503,0.02-1.029,0.334-1.438
						c0.282-0.41,0.714-0.699,1.18-0.836c0.232-0.071,0.475-0.104,0.715-0.106l0.359,0.009l1.531,0.011
						c15.429,1.789,29.756-0.757,44.902,2.462l-2.519-0.538c-0.363-0.318,1.579-0.45,3.109-0.586
						c-2.508-0.585-4.927-1.177-7.241-1.772c4.498,0.233,9.041,0.417,13.505,0.378c4.964-2.161,25.615,0.033,31.96-2.161
						c24.888,0.731,14.447,1.672,39.554,2.625c13.425-0.79,29.403-1.87,45.315-1.592c5.734,0.081,11.189,1.08,9.652,1.558
						c0.575-0.137,1.446,0.032,1.903,0.689c0.241,0.312,0.295,0.722,0.272,1.094l-0.021,4.443
						c1.063,15.288,2.057,14.301,2.804,8.052c0.373-3.125,0.687-7.565,0.915-11.945l0.155-1.738c0.05-0.541-0.007-1.08-0.16-1.564
						C208.473,17.619,207.839,16.883,207.257,16.429z"/>
					<path fill="#010101" d="M26.902,114.509c-1.126,1.25,6.454,1.742,8.979,2.277l3.368-0.402c8.423-0.443,8.709-1.875,3.372-2.635
						C40.658,114.822,31.679,114.778,26.902,114.509z"/>
					<path fill="#010101" d="M0.001,48.302l1.251,1.123l-0.4-10.385C0.047,39.317,0.091,44.369,0.001,48.302z"/>
					<path fill="#010101" d="M177.133,105.812c-9.825-0.225-13.755-1.432-24.144-1.032l1.959,2.281
						c10.1,1.026,20.758,2.546,32.832,2.505C195.927,107.197,173.195,107.955,177.133,105.812z"/>
					<path fill="#010101" d="M155.81,101.653c8.984-1.071,18.736-0.769,28.141-0.633c4.703,0.067,9.317,0.095,13.705-0.115
						c2.193-0.104,4.332-0.268,6.395-0.514l0.379-0.048l0.258-0.055c0.17-0.037,0.336-0.088,0.498-0.136
						c0.324-0.103,0.631-0.231,0.918-0.377c0.568-0.3,1.059-0.677,1.422-1.106c-0.559-0.471-1.125-0.765-1.706-0.992
						c-0.29-0.112-0.588-0.206-0.897-0.299l-0.479-0.133c-0.302-0.041-0.744-0.082-1.131-0.111
						c-3.22-0.254-7.238-0.106-11.486,0.156c-8.494,0.522-17.9,1.506-23.646,0.656c-7.591,0.624-12.085,1.161-21.634,1.739
						C139.529,100.804,151.039,101.387,155.81,101.653z"/>
					<path fill="#010101" d="M211.373,98.671c0.447-0.549,0.727-1.25,0.836-1.877c0.104-0.633,0.054-1.187-0.017-1.543
						c-0.229-0.756-0.42,0.049-0.661,0.449c-0.244,0.506-0.64,1.108-1.015,1.403c-0.218,0.435-0.633,1.368-0.843,1.976
						c-0.096,0.295-0.075,0.522,0.186,0.527C210.119,99.615,210.664,99.408,211.373,98.671z"/>
				</g>
			</g>
		</g>
	</g>
</g>
</svg>
