<?xml version="1.0" encoding="utf-8"?>
<!-- Generator: Adobe Illustrator 15.0.0, SVG Export Plug-In . SVG Version: 6.00 Build 0)  -->
<!DOCTYPE svg PUBLIC "-//W3C//DTD SVG 1.0//EN" "http://www.w3.org/TR/2001/REC-SVG-20010904/DTD/svg10.dtd">
<svg version="1.0" id="Layer_1" xmlns="http://www.w3.org/2000/svg" xmlns:xlink="http://www.w3.org/1999/xlink" x="0px" y="0px"
	 width="490.262px" height="112.168px" viewBox="-55.218 20.175 490.262 112.168"
	 enable-background="new -55.218 20.175 490.262 112.168" xml:space="preserve">
<g>
	
		<radialGradient id="SVGID_1_" cx="-19.4414" cy="-753.1511" r="131.9883" gradientTransform="matrix(-0.0473 0.7029 -3.9124 -0.0709 -2756.7813 39.4728)" gradientUnits="userSpaceOnUse">
		<stop  offset="0" style="stop-color:#FFFFFF;stop-opacity:0.2"/>
		<stop  offset="0.0144" style="stop-color:#F4F4F4;stop-opacity:0.2007"/>
		<stop  offset="0.0883" style="stop-color:#C2C2C2;stop-opacity:0.2045"/>
		<stop  offset="0.1677" style="stop-color:#949494;stop-opacity:0.2085"/>
		<stop  offset="0.2505" style="stop-color:#6C6C6C;stop-opacity:0.2128"/>
		<stop  offset="0.3378" style="stop-color:#4A4A4A;stop-opacity:0.2172"/>
		<stop  offset="0.4307" style="stop-color:#2F2F2F;stop-opacity:0.2219"/>
		<stop  offset="0.5313" style="stop-color:#1A1A1A;stop-opacity:0.2271"/>
		<stop  offset="0.6432" style="stop-color:#0B0B0B;stop-opacity:0.2328"/>
		<stop  offset="0.7759" style="stop-color:#030303;stop-opacity:0.2395"/>
		<stop  offset="0.9818" style="stop-color:#000000;stop-opacity:0.25"/>
	</radialGradient>
	<path fill="url(#SVGID_1_)" d="M431.68,56.052c0.393-5.819-16.391-19.71-27.767-19.917L-1.485,28.039
		c-11.393-0.207-43.842,2.646-44.234,8.465l-2.987,66.492c-3.67,21.358,30.33,18.587,41.278,20.284l382.233-4.597
		c28.945,2.649,49.055-11.831,49.447-17.647L431.68,56.052z"/>
	<g>
		<g>
			<g>
				<path fill="#010101" d="M430.45,101.916l0.138-0.543l0.351-1.928c-0.203-2.313,0.695-6.793,1.835-12.683
					c-0.172-0.028-0.431,0.46-0.175-1.639c1.896-9.319,0.774-4.691,1.547-11.524c-0.345,2.09-0.733,4.709-1.078,5.714l1.977-13.051
					c-0.627,1.737-1.24,3.148-1.149,0.924c-0.89,1.209-0.991-3.216-1.43-4.957c-0.472,2.323-0.874,4.162-1.105,5.018
					c-0.237-0.356,0.003-2.602,0.406-5.352c-0.106,0.196-0.215,0.415-0.351,0.813c0.136-0.399,0.244-0.618,0.351-0.813
					c0.267-1.803,0.602-3.819,0.925-5.676c-0.259,1.031-0.519,2.061-0.563,1.523l-1.292,7.826c-0.107,0.242-0.12-0.02-0.091-0.5
					l-0.165,2.05l0.43-1.521c0.218-0.518,0.133,0.547,0.047,1.601c-0.301,2.091-0.519,2.604-0.776,3.617l-0.385,4.23
					c0.263,1.648,2.111-10.905,1.47-4.051l-0.474,2.069c-0.386,3.139-1.075,7.313-1.072,9.46c-1.124,3.029-0.986,8.938-1.898,9.331
					c-0.59,2.971-1.153,6.179-1.71,9.505l0.022-0.189c-0.096,1.099-0.463,1.905-0.843,2.623c-0.39,0.712-0.835,1.324-1.301,1.899
					c-0.936,1.143-1.965,2.122-3.04,3.024c-2.151,1.801-4.487,3.291-6.879,4.569c-4.789,2.546-9.817,4.195-14.419,5.02
					c-0.978,0.542-1.412,1.067-2.257,1.698c-0.849,0.616-2.107,1.362-4.812,2.114c-1.112,0.078-2.795,0.169-2.244-0.022
					c-1.275,0.246-2.559,0.459-3.849,0.645c2.229-0.128,4.985-0.497,6.117-0.448c-3.028,0.532-2.332,0.547-0.922,0.509
					c1.408-0.045,3.515-0.275,3.27-0.079c-2.767,0.589-5.569,1.01-8.387,1.291l1.007,0.054c7.591-0.48,15.167-1.954,22.438-4.717
					c3.635-1.391,7.188-3.093,10.621-5.33c1.717-1.135,3.401-2.385,5.058-3.982c0.828-0.806,1.651-1.689,2.468-2.823
					c0.407-0.575,0.814-1.207,1.203-1.989c0.381-0.789,0.774-1.721,0.987-3.065c0.025-0.233,0.045-0.467,0.059-0.7l-0.07,0.599
					L430.45,101.916z"/>
				<path fill="#010101" d="M187.965,116.822l0.162,0.657c-28.838,0.744-60.058,1.263-92.91,1.65l-50.409,0.494l-52.039,0.363
					c-0.278-0.05-1.082-0.152-1.696-0.216l-1.899-0.175l-3.697-0.261c-2.438-0.158-4.842-0.313-7.223-0.526
					c-4.745-0.432-9.458-1.065-13.734-2.404c-2.123-0.672-4.127-1.535-5.756-2.653c-1.637-1.117-2.832-2.46-3.481-4.014
					c-0.662-1.549-0.815-3.402-0.54-5.407l0.155-1.024l0.056-1.115l0.095-1.855l0.19-3.714l2.952-57.908
					c-0.01-0.373,0.213-0.704,0.478-0.948c0.269-0.248,0.583-0.442,0.905-0.612c0.648-0.336,1.337-0.583,2.029-0.799l0.534-0.158
					l0.81-0.223c0.556-0.147,1.121-0.287,1.693-0.418c1.144-0.265,2.313-0.5,3.493-0.718c4.729-0.862,9.608-1.441,14.486-1.878
					c4.87-0.422,9.812-0.724,14.58-0.733l14.867,0.323l59.296,1.195l-3.702,2.388c40.005-0.692,85.533-0.684,123.061-1.692
					l-14.532-0.721c13.348-1.1,47.409-1.292,68.399-0.563l-2.084,0.596c-28.779-0.215,1.943,0.247-9.738,1.773l-5.005,0.224
					l2.92,0.373l5.011-0.226c-0.571,0.358-0.147,0.841-4.869,0.887l6.665,0.201c14.313,2.033,14.313,3.538,12.482,5.456
					c3.762-0.167-0.118-2.166,15.867-1.211l-2.102,0.595l17.528-0.788l7.783,0.988c6.247-0.281,10.286-0.629,16.681-0.247
					l1.966-1.258c28.627,1.055,64.778,0.27,93.823,1.808c0.4-0.07,0.836-0.128,1.306-0.176l1.303-0.11
					c0.663-0.039,1.499,0.034,2.464,0.255c1.931,0.434,4.34,1.449,6.871,2.935c2.53,1.479,5.22,3.421,7.721,5.629
					c1.239,1.1,2.442,2.282,3.415,3.426c0.484,0.564,0.903,1.128,1.176,1.546c0.133,0.203,0.223,0.368,0.263,0.402l0.509-0.127
					c0.286-0.08,0.629-0.126,0.875-0.175c0.582-0.075,0.989-0.114,1.384-0.075c-0.42-0.035-0.983-0.004-1.616,0.12
					c-0.178,0.026-0.353,0.06-0.523,0.101l-0.258,0.066c-0.096,0.022-0.017,0-0.033,0.001c0.029-0.011,0.051-0.04,0.064-0.083
					c0.069-0.164,0.049-0.495-0.031-0.862c-0.159-0.747-0.532-1.65-0.99-2.544c-2.058-3.137-6.201-7.106-11.649-10.181
					c-2.709-1.509-5.835-2.842-8.916-3.206c-0.398-0.046-0.722-0.067-1.173-0.081l-1.429-0.043l-2.897-0.083l-5.922-0.153
					c-15.986-0.39-33.329-0.657-47.504-1.274l1.124-0.717c5.959-0.103,10.28-0.628,17.646-0.125l1.954-1.256
					c-12.358-4.796-51.159-0.045-61.445-0.92c-21.82-1.698,14.331-2.482,3.898-2.516c24.063-1.247-20.002-3.615-30.141-5.333
					c-28.214-3.582-90.354-3.3-127.748-3.962c-31.217,0.983-67.605,0.235-103.401-0.896l-26.646-0.898L8.094,20.548L1.652,20.32
					l-3.228-0.112c-1.201-0.033-2.338-0.037-3.465-0.028c-4.485,0.043-8.771,0.27-13.022,0.596
					c-4.245,0.333-8.417,0.775-12.571,1.396c-2.079,0.313-4.152,0.67-6.251,1.113c-1.05,0.222-2.107,0.466-3.184,0.747l-0.812,0.218
					l-1.027,0.298c-0.849,0.256-1.687,0.537-2.506,0.849c-3.283,1.246-6.224,3.016-8,5.775c-0.222,0.342-0.417,0.702-0.584,1.055
					c-0.207,0.323-0.171,0.784-0.251,1.178l-0.326,2.445l-0.642,4.844c-0.824,13.872-0.495,31.92-0.581,48.755
					c-0.021,4.206-0.066,8.333-0.161,12.295l-0.012,0.539c0.011,0.078-0.016,0.192-0.023,0.304c-0.083,0.638-0.146,1.284-0.186,1.94
					c-0.073,1.314-0.05,2.669,0.125,4.043c0.323,2.742,1.333,5.549,2.839,7.832c1.5,2.301,3.368,4.052,5.167,5.388
					c1.812,1.343,3.583,2.319,5.233,3.14c3.309,1.616,6.17,2.646,8.536,3.64c4.515,0.948,8.87,1.421,13.086,1.783l6.164,0.477
					l2.88,0.247l1.317,0.146l0.6,0.082l1.241,0.191l28.074,0.094l-1.095,0.755c50.484-0.37,106.176-2.816,153.292-3.933
					c20.581-0.411,26.787-2.396,36.161-0.438c40.903,0.87,89.079-2.504,128.967-3.232c-0.156-0.657,5.387-1.42-1.991-1.688
					c-20.419,1.068-43.954-0.3-44.693-2.087l7.644,0.083l-13.66-1.294l-8.75,0.674c-2.243-0.415-3.249-0.75-3.406-1.03
					c-15.022-0.456-28.098-1.884-43.672-2.777C217.855,117.24,205.285,117.494,187.965,116.822z"/>
			</g>
		</g>
	</g>
</g>
<path d="M20.185,60.429c3.944,0.935,6.035,3.863,6.272,8.786h-5.895c-0.06-1.557-1.061-2.261-3.003-2.113H9.642
	c-1.631,3.529-2.488,6.199-2.569,8.008c-0.082,1.81,0.386,3.511,1.401,5.104s2.121,2.729,3.314,3.403
	c1.194,0.675,2.836,0.908,4.927,0.7c2.091-0.207,4.026-1.557,5.806-4.048l3.981,4.96c-2.313,2.239-4.189,3.733-5.627,4.482
	c-1.438,0.748-3.34,1.138-5.706,1.167c-2.365,0.03-4.526-0.43-6.483-1.379c-1.958-0.948-3.752-2.71-5.383-5.282
	c-1.631-2.572-2.357-5.505-2.18-8.797s0.608-5.405,1.29-6.34l4.426-1.979H1.545l0.356-2.112l0.512-2.024l0.979-2.536H20.185z"/>
<path d="M29.837,60.363h19.173c1.349,0.163,2.276,1.031,2.78,2.603l-0.044,8.941c-0.43,2.062-1.053,3.444-1.869,4.148
	s-2.269,1.517-4.359,2.436l1.757,2.803c1.305,2.046,3.15,3.225,5.538,3.536l-0.511,6.851l-3.581-0.667
	c-2.329-0.475-4.79-2.906-7.385-7.296l-1.401-2.669l-3.492,1.646l-0.022,7.94l-6.228,0.044v-5.916l-2.447-5.228l2.402-1.512
	l0.044-9.364l3.047-1.69l-4.805,0.021L29.837,60.363z M36.443,66.99v8.563l6.651-2.624c1.616-0.593,2.424-1.55,2.424-2.869v-3.07
	H36.443z"/>
<path d="M54.683,60.54H76.68v6.34l-12.7,0.021v3.537l10.054,0.022l-0.712,6.116H63.98v7.852l13.079-1.513l1.868,6.718L55.75,92.548
	l-0.712-6.718l2.625-0.444v-8.764h-2.758l0.623-5.717l2.18-0.022l-0.022-2.58l3.581-1.313l-6.583,0.022V60.54z"/>
<path d="M92.45,58.138l5.472,2.069l-0.645,2.135h8.808l-0.912,6.584l-4.805,0.022l7.629,20.44l-5.895,2.024l-7.829-20.908
	l-8.742,20.73l-5.983-1.824l8.63-20.552l-6.294-0.022l0.489-6.495h8.319L92.45,58.138z M95.275,80.825l3.403,3.737l-6.294,6.316
	l-3.425-3.692L95.275,80.825z"/>
<path d="M109.844,60.363h20.196l-0.823,6.673h-7.184v14.436c-0.252,2.239,0.504,3.566,2.269,3.981l-1.624,6.272
	c-2.032,0.059-3.748-0.601-5.149-1.979s-2.124-3.203-2.168-5.472V68.37l2.869-1.38l-9.053-0.021L109.844,60.363z"/>
<path d="M132.176,60.54h21.998v6.34l-12.7,0.021v3.537l10.054,0.022l-0.712,6.116h-9.342v7.852l13.079-1.513l1.868,6.718
	l-23.177,2.914l-0.712-6.718l2.625-0.444v-8.764h-2.758l0.623-5.717l2.18-0.022l-0.022-2.58l3.581-1.313l-6.583,0.022V60.54z"/>
<path d="M170.944,60.363h20.195l-0.822,6.673h-7.185v14.436c-0.253,2.239,0.504,3.566,2.269,3.981l-1.624,6.272
	c-2.031,0.059-3.748-0.601-5.148-1.979c-1.402-1.379-2.125-3.203-2.169-5.472V68.37l2.869-1.38l-9.053-0.021L170.944,60.363z"/>
<path d="M193.208,60.451h6.718v10.32l9.787-0.066V60.54l6.717-0.044v10.476h1.156l0.534,6.117h-1.69v9.787
	c-0.445,1.334-1.001,2.221-1.668,2.657c-0.668,0.438-1.709,0.771-3.125,1.001c-1.417,0.23-2.836,0.345-4.26,0.345l-0.045-5.872
	c1.364-0.089,2.21-0.652,2.536-1.69v-6.205l-8.163-0.022l-1.779-2.825v15.903l-6.673,1.135L193.208,60.451z"/>
<path d="M219.811,60.54h21.998v6.34l-12.701,0.021v3.537l10.054,0.022l-0.712,6.116h-9.342v7.852l13.079-1.513l1.868,6.718
	l-23.177,2.914l-0.712-6.718l2.625-0.444v-8.764h-2.758l0.622-5.717l2.18-0.022l-0.021-2.58l3.581-1.313l-6.584,0.022V60.54z"/>
<path d="M260.403,60.296h6.606l-0.022,15.903l3.781,0.044l-0.646,5.339l-2.958,0.022v1.979l11.878-0.022l-0.689,6.984l-20.485-0.045
	l1-6.873h1.401v-1.979h-2.18l0.578-5.427l1.69-0.022L260.403,60.296z"/>
<path d="M287.651,60.296v2.914l1.734-2.914h14.68c1.81,0.504,2.662,3.055,2.559,7.651v20.04c-0.356,1.632-1.743,2.484-4.159,2.559
	h-16.972c-2.521,0.104-3.981-0.993-4.382-3.292V61.653L287.651,60.296z M287.651,66.858v17.127h12.411V66.858H287.651z"/>
<path d="M310.026,60.385h13.88c2.98,0.163,4.789,0.867,5.427,2.113c0.638,1.245,0.897,2.58,0.778,4.003
	c-0.118,1.424-1.179,3.233-3.181,5.428c3.114-0.119,4.85,0.993,5.205,3.336v9.698c-0.163,1.734-0.73,3.08-1.701,4.037
	c-0.972,0.956-2.154,1.598-3.548,1.924c-3.263,0.771-6.644,0.43-10.143-1.023l2.225-5.583c3.143,0.994,5.104,1.234,5.883,0.724
	c0.778-0.512,1.093-3.073,0.945-7.686l-8.408,0.045v5.472c-0.786,5.68-3.47,8.252-8.052,7.718v-5.627
	c1.379,0.015,1.958-1.157,1.735-3.515v-3.848h-1.779l0.022-5.672l2.269,0.044v-5.271h-2.358L310.026,60.385z M317.389,66.701v4.982
	l2.87-0.622c2.016-1.083,2.936-2.536,2.758-4.36H317.389z"/>
<path d="M335.605,60.385h13.88c2.98,0.163,4.789,0.867,5.427,2.113c0.638,1.245,0.897,2.58,0.778,4.003
	c-0.118,1.424-1.179,3.233-3.181,5.428c3.114-0.119,4.85,0.993,5.205,3.336v9.698c-0.163,1.734-0.73,3.08-1.701,4.037
	c-0.972,0.956-2.154,1.598-3.548,1.924c-3.263,0.771-6.644,0.43-10.143-1.023l2.225-5.583c3.143,0.994,5.104,1.234,5.883,0.724
	c0.778-0.512,1.093-3.073,0.945-7.686l-8.408,0.045v5.472c-0.786,5.68-3.47,8.252-8.052,7.718v-5.627
	c1.379,0.015,1.958-1.157,1.735-3.515v-3.848h-1.779l0.022-5.672l2.269,0.044v-5.271h-2.358L335.605,60.385z M342.968,66.701v4.982
	l2.87-0.622c2.016-1.083,2.936-2.536,2.758-4.36H342.968z"/>
<path d="M363.831,60.429L372.283,77c1.542-1.557,2.613-3.637,3.214-6.239s0.76-5.75,0.479-9.441l6.184,0.244
	c-0.075,7.859-0.916,13.35-2.525,16.471c-1.608,3.121-3.588,5.924-5.938,8.407c-2.351,2.484-5.179,4.778-8.485,6.885l-2.646-6.272
	l5.716-4.671l-9.275-17.861L363.831,60.429z"/>
</svg>
