<?xml version="1.0" encoding="utf-8"?>
<!-- Generator: Adobe Illustrator 15.0.0, SVG Export Plug-In . SVG Version: 6.00 Build 0)  -->
<!DOCTYPE svg PUBLIC "-//W3C//DTD SVG 1.0//EN" "http://www.w3.org/TR/2001/REC-SVG-20010904/DTD/svg10.dtd">
<svg version="1.0" id="Layer_1" xmlns="http://www.w3.org/2000/svg" xmlns:xlink="http://www.w3.org/1999/xlink" x="0px" y="0px"
	 width="93.124px" height="284.628px" viewBox="254.765 24.489 93.124 284.628"
	 enable-background="new 254.765 24.489 93.124 284.628" xml:space="preserve">
<g>
	
		<radialGradient id="SVGID_1_" cx="91.6816" cy="-312.7322" r="89.4121" gradientTransform="matrix(-1.0054 -0.0252 0.0492 -1.0104 404.4976 -187.3819)" gradientUnits="userSpaceOnUse">
		<stop  offset="0" style="stop-color:#FFFFFF;stop-opacity:0.2"/>
		<stop  offset="0.0144" style="stop-color:#F4F4F4;stop-opacity:0.2007"/>
		<stop  offset="0.0883" style="stop-color:#C2C2C2;stop-opacity:0.2045"/>
		<stop  offset="0.1677" style="stop-color:#949494;stop-opacity:0.2085"/>
		<stop  offset="0.2505" style="stop-color:#6C6C6C;stop-opacity:0.2128"/>
		<stop  offset="0.3378" style="stop-color:#4A4A4A;stop-opacity:0.2172"/>
		<stop  offset="0.4307" style="stop-color:#2F2F2F;stop-opacity:0.2219"/>
		<stop  offset="0.5313" style="stop-color:#1A1A1A;stop-opacity:0.2271"/>
		<stop  offset="0.6432" style="stop-color:#0B0B0B;stop-opacity:0.2328"/>
		<stop  offset="0.7759" style="stop-color:#030303;stop-opacity:0.2395"/>
		<stop  offset="0.9818" style="stop-color:#000000;stop-opacity:0.25"/>
	</radialGradient>
	<path fill="url(#SVGID_1_)" d="M300.271,217.905c5.798,0.146,29.758-33.365,32.463-50.498l9.018-118.581
		c0.902-7.214-4.508-18.937-16.682-18.486l-41.932,4.058c-21.282-1.359-22.205,18.036-23.896,22.093l2.254,111.817
		c-2.641,10.727,23.961,54.41,29.758,54.557L300.271,217.905z"/>
	<g>
		<g>
			<g>
				<path fill="#202020" d="M309.222,215.089c-0.723,0.775-1.453,1.495-1.455,1.495c0.026,0.026,0.069,0.037,0.104,0.057
					C308.387,216.08,308.822,215.572,309.222,215.089z"/>
				<path fill="#202020" d="M309.534,212.686l-0.42,0.472c0.071-0.032,0.102-0.021,0.15-0.028L309.534,212.686z"/>
				<path fill="#202020" d="M307.874,216.643c0.408,0.192,1.344-0.146,0.863,0.928c-0.842,0.848-2.668,2.511-4.069,3.368
					c-1.333,1.057,0.259,0.396,0.37,0.585c-0.697,0.44-1.56,0.914-2.601,1.246c-0.993,0.357-2.32,0.382-2.3,0.426
					c-0.179,0.071-0.24,0.139-0.199,0.202c0.021,0.032,0.067,0.063,0.138,0.093c0.022,0.007,0.025,0.015,0.068,0.021l0.3,0.02
					c0.224,0.01,0.444,0.008,0.671-0.006c0.946-0.052,1.861-0.299,2.656-0.619c0.793-0.32,1.494-0.711,2.151-1.14
					c1.253-1.254,2.461-2.722,3.533-4.137c1.068-1.411,1.992-2.764,2.532-3.683c0.537-0.919,0.694-1.397,0.159-1.055
					C311.591,213.227,310.416,214.408,307.874,216.643z"/>
				<path fill="#202020" d="M313.118,209.285c-1.205,1.521-2.45,3.017-3.771,4.477c-0.213,0.632-0.602,1.43,0.006,1.168
					C311.31,212.516,312.282,210.931,313.118,209.285z"/>
				<path fill="#202020" d="M285.96,221.191c0.055-0.056,0.137,0.017,0.941,0.943C286.563,221.813,286.263,221.509,285.96,221.191
					c-0.053,0.037-0.063,0.175-0.512-0.252c0.831,0.858,1.727,1.712,2.718,2.438c0.497,0.358,1.017,0.684,1.575,0.939
					c0.279,0.126,0.569,0.235,0.876,0.303c0.152,0.034,0.31,0.056,0.468,0.062c0.148-0.029,0.287-0.12,0.433-0.178
					c1.146-0.527,2.325-1.104,3.473-1.72l1.639-0.908l1.404-0.793c0.429-0.376,0.842-0.744,1.211-1.089l-3.529,1.967
					c-1.342,0.737-2.729,1.433-4.089,2.067c-0.172,0.071-0.336,0.179-0.513,0.217c-0.189-0.008-0.376-0.046-0.555-0.099
					c-0.36-0.104-0.698-0.265-1.022-0.446c-0.647-0.364-1.247-0.82-1.819-1.315c-0.573-0.495-1.117-1.031-1.643-1.583l-0.776-0.839
					l-0.662-0.75c-3.381-3.944-6.2-7.909-8.829-11.446c1.667,2.622,3.177,4.772,4.739,6.858c0.782,1.043,1.578,2.069,2.432,3.123
					l1.335,1.604l0.734,0.844L285.96,221.191z"/>
				<path fill="#202020" d="M299.632,218.986l0.944-0.525C299.675,218.838,299.604,218.919,299.632,218.986z"/>
				<path fill="#202020" d="M257.261,51.421c0.8-3.326,1.796-6.618,3.41-9.675c1.597-3.05,3.883-5.9,6.861-7.987
					c-1.912,1.253-3.607,2.839-4.99,4.585c-1.391,1.744-2.471,3.637-3.321,5.533c-0.851,1.898-1.476,3.809-1.968,5.653
					c-0.496,1.834-0.846,3.656-1.208,5.121l-0.244,1.114c-0.094,0.364-0.09,0.755-0.139,1.127l0.299,6.172l0.321,5.361l-0.273-11.51
					c0.052-0.361,0.046-0.74,0.146-1.09l0.26-1.071C256.697,53.74,256.953,52.602,257.261,51.421z"/>
				<path fill="#202020" d="M297.486,27.33c-4.045,0.283-7.724,0.658-11.18,1.087l-2.553,0.332l-0.618,0.084
					c-0.053,0.012-0.103,0.032-0.16,0.038l-0.087,0.009c-0.022,0.001-0.009,0.004-0.063,0.004l-0.181-0.002l-0.725,0.005
					c-1.931,0.03-3.862,0.228-5.774,0.624c1.957-0.331,3.89-0.455,5.771-0.433l1.053,0.021c0.063,0.003,0.117-0.014,0.176-0.02
					l0.556-0.063l2.405-0.27l9.59-1.069L297.486,27.33z"/>
				<path fill="#202020" d="M288.603,28.914c-1.846,0.177-3.619,0.373-5.336,0.582c-0.274,0.039-0.214,0.05-0.604,0.041
					c-0.484-0.015-0.976,0-1.457,0.004c-0.973,0.035-1.935,0.093-2.895,0.216c-3.823,0.461-7.613,1.748-10.779,4.002
					c3.647-2.422,7.864-3.514,11.709-3.84c0.968-0.083,1.922-0.126,2.858-0.135l0.698,0.001c0.095-0.005,0.167-0.007,0.248-0.018
					l0.113-0.025c0.032-0.008,0.063-0.016,0.188-0.033l0.599-0.087L288.603,28.914z"/>
				<path fill="#202020" d="M267.014,160.812c0.287,3.245,0.475,5.64,0.589,7.373l0.112,1.711l-1.319-0.382
					c0.445,0.129,1.295,0.249,1.066,0.229c0.005,0.016,0.009,0.056,0.013,0.103l0.026,0.365l0.871,1.866l-0.118-0.616
					c-0.113-0.483-0.193-0.933-0.233-1.252l-0.042-0.354l-0.008-0.038l-0.004-0.004l-0.002-0.002l-0.185-0.029
					c-0.245-0.032-0.484-0.07-0.727-0.123c-0.223-0.039-0.438-0.084-0.658-0.145l1.82,0.497l-0.104-1.837l-0.618-10.97
					c-0.189-2.108-0.387-4.118-0.611-5.804L267.014,160.812z"/>
				<path fill="#202020" d="M267.501,170.21c-0.182-0.372-0.289-0.48-0.376-0.52c-0.085-0.034-0.14-0.045-0.166-0.043
					c-0.051-0.022-0.033,0.169,0.082,0.622c0.109,0.426,0.326,0.978,0.447,1.091c0.062,0.059,0.094,0.007,0.091-0.19
					C267.576,170.979,267.534,170.615,267.501,170.21z"/>
				<polygon fill="#202020" points="259.843,138.924 259.827,138.177 259.704,136.008 				"/>
				<path fill="#202020" d="M261.892,78.48c0.132,4.28,0.302,8.568,0.497,12.782c-0.297-8.689-0.594-17.453-1.083-24.707
					c0.021,1.08-0.073,2.172-0.051,3.255C261.529,71.973,261.825,75.216,261.892,78.48z"/>
				<path fill="#202020" d="M261.588,172.689c-0.275-1.44-0.485-2.931-0.188-4.404l-0.003,0.025
					c-0.479-10.259-1.011-20.335-1.569-30.133c-0.501-22.754-1.22-44.688-2.56-64.377c-0.174-2.371-0.331-4.984-0.479-7.776
					l-0.425-9.087c0.042-0.349,0.022-0.717,0.117-1.058l0.241-1.041c0.439-1.77,0.849-3.918,1.472-6.034
					c0.618-2.13,1.421-4.309,2.546-6.412c1.124-2.098,2.578-4.129,4.399-5.846c1.81-1.723,3.964-3.11,6.215-4.059
					c2.253-0.958,4.577-1.508,6.816-1.803c1.121-0.143,2.225-0.222,3.305-0.259l1.432-0.027c0.113,0,0.221-0.026,0.326-0.05
					l0.631-0.101c3.677-0.571,7.091-1.163,10.098-1.78c-1.861,0.13-3.645,0.28-5.358,0.446c2.518-0.402,4.89-0.813,7.093-1.237
					l21.288-2.332l5.31-0.572l1.328-0.143l0.696-0.074c0.197-0.02,0.394-0.046,0.594-0.047l0.526-0.014
					c1.174-0.028,2.375,0.041,3.58,0.205c2.41,0.329,4.844,1.096,7.043,2.292c2.205,1.189,4.16,2.782,5.768,4.592
					c3.21,3.657,5.16,8.001,5.854,12.77c0.164,1.203,0.241,2.443,0.19,3.745l-0.222,3.017l-0.383,5.372l-1.603,21.675
					c-0.329,4.324-0.23,7.597-0.559,11.917l-0.921,12.969c0.024,0.019,0.054-0.033,0.088-0.149
					c-1.207,17.803-2.311,35.323-3.334,53.773l-0.444,6.483l-0.244,3.24l-0.161,1.991l-0.224,1.265l-0.208,0.995
					c-1.202,5.187-3.067,9.515-5.037,13.749c-1.513,3.142-1.943,2.912-3.106,4.89c-2.406,3.891-4.657,7.141-7.041,10.459
					c-2.396,3.311-4.908,6.684-8.12,10.649l-0.273-0.213c-0.928,1.259-1.82,2.353-2.598,3.219c1.113-2.298,3.352-5.956,4.213-7.839
					c0.437-0.938,0.553-1.42,0.054-1.045c-0.505,0.371-1.605,1.611-3.746,4.017l-0.003-0.002l1.101-1.629l0.13-0.172
					c-0.009,0.004-0.013,0.001-0.019,0.003c1.643-2.528,2.493-4.151,3.193-5.843c-1.079,1.585-2.188,3.152-3.336,4.703
					c0.087-0.39,0.095-0.675-0.151-0.611l0.224-0.462l0.916-1.27c0.089-0.277,0.134-0.496,0.142-0.66
					c2.535-4.34,6.366-11.183,5.161-10.147c-0.806,0.862-2.509,4.065-4.716,7.549c-0.177,0.18-0.371,0.394-0.563,0.615
					c2.938-4.534-0.657-0.448,1.047-3.193c2.369-3.588,4.499-7.324,6.546-11.089c2.079-3.834,3.896-7.615,5.329-11.407
					c0.712-1.896,1.325-3.796,1.766-5.691c0.109-0.474,0.207-0.946,0.291-1.418c0.099-0.496,0.114-0.771,0.149-1.344l0.205-3.033
					c0.543-8.08,1.039-16.126,1.524-24.791l0.133-2.283c0.495-8.4,1.073-16.323,1.787-24.529l0.1,1.653
					c0.575-6.602,1.104-13.219,1.433-19.854l1.215-24.533l0.708-12.514l0.396-6.362l0.104-1.604l0.058-0.7
					c0.009-0.208,0.016-0.417,0.014-0.63c-0.006-0.852-0.105-1.74-0.286-2.625c-0.759-3.731-2.927-7.224-5.889-9.183
					c-1.479-0.989-3.153-1.609-4.933-1.849c-0.444-0.062-0.896-0.095-1.352-0.112c-0.228-0.009-0.457-0.009-0.688-0.006l-0.336,0.01
					c-0.079,0.003-0.158,0.005-0.237,0.018l-3.296,0.362l-27.002,3.086c7.481-0.982,14.957-1.941,22.649-2.765l5.166-0.489
					l2.498-0.245c0.196-0.019,0.608-0.02,0.943-0.017c0.347,0.011,0.69,0.025,1.028,0.059c-0.35-0.042-0.704-0.063-1.06-0.079
					c-0.358-0.007-0.747-0.012-0.951,0.008l-2.541,0.241l-5.084,0.522c-6.652,0.621-13.398,1.227-19.75,1.937
					c-3.176,0.355-6.252,0.736-9.169,1.157c-1.458,0.211-2.877,0.432-4.248,0.665c-0.264,0.034-0.893,0.174-1.373,0.175
					l-0.382,0.001l-0.302,0.006l-0.447,0.026c-0.592,0.043-1.164,0.105-1.713,0.194c-0.957-0.053-0.969-0.165-1.879-0.069
					c-3.192,0.371-6.029,1.498-8.137,3.405c-2.124,1.891-3.54,4.521-4.334,7.242c0.078,0.014-0.829,2.758-0.305,1.917
					c-0.534,1.752-0.893,3.589-1.513,5.977c-0.024,0.095-0.053,0.189-0.084,0.282c-0.037,0.091-0.002,0.195-0.007,0.292l0.21,6.083
					c0.08,2.14,0.172,4.24,0.282,6.237c0.132,2.816,0.41,5.618,0.737,8.427l3.266,71.329c0.223,5.88,0.367,12.616,0.491,18.656
					l0.041,2.038l-2.509-0.684c0.216,0.06,0.431,0.105,0.647,0.143c0.238,0.051,0.476,0.092,0.713,0.121
					c0.259,0.043,0.518,0.077,0.775,0.1c0.039,0.002,0.187,0.021,0.154,0.018l0.001,0.003l-0.001,0.007l-0.005-0.007
					c-0.003-0.002,0.037-0.002-0.151-0.021c-0.258-0.022-0.519-0.058-0.776-0.101c-0.236-0.029-0.474-0.069-0.711-0.121
					c-0.217-0.037-0.431-0.083-0.646-0.142l2.549,0.693l-0.125-2.047c-0.546-8.937-1.038-18.133-1.502-27.468
					c-0.104-9.42-0.287-18.439-1.029-25.854l-0.414-5.171l1.443,31.025l0.207,16.847l-0.03-0.335l-0.688-13.244
					c-0.094-8.378-0.249-16.432-0.804-23.33l-0.227-2.529l-0.414-5.169l0.877,19.227l0.567,11.802l0.076,7.44l-0.104-0.777
					c-0.158-2.176-1.636-8.219-1.917-4.962c0.154,7.078,0.428,15.366,0.682,22.564l0.017,0.467l-0.134,0.583
					c-0.063,0.275-0.062,1.176,0.086,2.035c0.137,0.884,0.361,1.817,0.615,2.713c0.515,1.8,1.138,3.464,1.688,4.849
					c1.117,2.777,1.938,4.476,1.898,4.489c0.012,0.345-1.124-1.705-2.425-4.74c-0.644-1.514-1.323-3.282-1.827-5.056
					c-0.252-0.884-0.458-1.771-0.573-2.574c-0.121-0.792-0.123-1.534-0.065-1.864l0.11-0.645l-0.012-0.244
					c-0.263-5.148-0.469-9.319-0.505-8.893l-0.036,4.809l-0.388-4.373c-0.181-3.248-0.153-7.588-0.428-9.757
					c-0.846-7.571-0.789-16.253-1.425-24.914l-1.642-18.405c-0.23,0.005-0.181-3.259-0.39-2.166
					c-0.123-6.119-0.266-13.198-0.992-15.808l-0.027-0.443c-0.009-0.43-0.059-1.044-0.125-1.697
					c-0.087-10.184-0.87-17.275-1.5-26.498l-0.11-3.092c0.035-0.315-0.007-0.652,0.093-0.959c0.088-0.303,0.169-0.617,0.244-0.935
					c0.416-1.565,0.781-3.337,1.303-5.102c-0.441,1.463-0.938,3.46-1.381,5.08l-0.249,0.943c-0.101,0.317-0.06,0.658-0.091,0.968
					l0.051,0.967l0.141,2.13c0.318,8.227,0.783,16.056,1.191,23.875c0.082,0.638,0.212,1.663,0.309,2.623l0.01,1.7
					c0.05,0.134,0.098,0.282,0.143,0.44c0.481,7.479,0.771,15.942,1.239,22.314c0.636,12.021,0.701,24.854,0.883,37.125
					l-0.989-18.025l1.039,21.151l0.057,3.115l0.131,6.512l0.002-6.035l0.666,11.973l0.064,1.432l0.003,0.069l-0.023,0.116
					c-0.232,1.133-0.105,2.426,0.116,3.681c0.228,1.264,0.575,2.526,0.972,3.777c0.803,2.502,1.81,4.966,2.899,7.398
					c2.191,4.864,4.72,9.618,7.402,14.283c2.692,4.659,5.551,9.238,8.613,13.639c1.535,2.193,3.121,4.351,4.816,6.364l0.592,0.688
					l0.556,0.613c0.376,0.404,0.765,0.798,1.177,1.167c0.412,0.367,0.844,0.722,1.337,0.979c0.24,0.104,0.524,0.27,0.78,0.174
					l0.728-0.391c-0.152,0.164-0.321,0.337-0.508,0.52l-0.292,0.279c-0.106,0.078-0.233,0.077-0.353,0.094
					c-1.114-0.375-1.96-1.248-2.792-2.043c-0.41-0.413-0.806-0.841-1.192-1.275c-0.41-0.463-0.842-0.972-1.249-1.467
					c-1.643-2-3.171-4.074-4.63-6.125c-2.914-4.108-5.548-8.133-7.966-11.743c3.058,5.3,5.47,8.788,8.864,13.596
					c-0.057,0.033-0.103,0.136-0.42-0.242c1.139,1.504,2.398,3.115,3.758,4.716c1.406,1.628,2.696,3.102,4.29,4.321
					c-1.115-0.443-2.329-1.283-3.613-2.298c-1.626-1.503-3.622-4.104-5.581-6.728c-4.108-5.763-7.66-11.646-10.926-17.658
					c-1.625-3.011-3.17-6.061-4.605-9.188c-1.427-3.134-2.771-6.331-3.808-9.739c-0.332-1.219-0.621-2.459-0.797-3.747
					c-0.164-1.288-0.267-2.626,0.069-4.077l-0.031,0.285l-0.552-29.406c0.49,10.375,0.971,20.028,1.501,29.387l0.004-0.039
					C261.062,169.774,261.296,171.261,261.588,172.689z M327.288,189.129c0.507-1.02,1.012-2.084,1.496-3.156l-0.313,0.431
					C327.975,187.355,327.565,188.34,327.288,189.129z M336.098,164.204l-0.272,2.884c-0.026,0.198-0.033,0.64-0.105,0.964
					l-0.167,0.895c-0.112,0.559-0.238,1.116-0.376,1.674c-0.555,2.227-1.288,4.455-2.132,6.686
					c-1.691,4.458-3.818,8.935-6.118,13.207c0,0.063,0.011,0.107,0.033,0.12c2.044-3.521,4.109-7.589,5.869-12.028
					c0.875-2.223,1.674-4.538,2.294-6.968c0.154-0.608,0.296-1.224,0.423-1.849l0.178-0.943l0.168-1.079L336.098,164.204z
					 M340.74,134.764l-0.052,0.175c0.019-0.004,0.037-0.013,0.055-0.012L340.74,134.764z M306.775,30.269
					c4.29-0.705,9.134-1.318,14.253-1.915l3.999-0.449c1.571-0.073,3.048,0.021,4.594,0.316c3.062,0.574,6.042,2.063,8.39,4.187
					c1.388,1.294,2.662,2.697,3.791,4.398c1.119,1.701,2.107,3.701,2.666,6.181c0.369,1.543,0.554,2.987,0.583,4.381
					c0.023,0.672-0.032,1.455-0.062,1.94l-0.054,1.558c-0.067,2.035-0.126,3.935-0.232,6.104l0.477-3.225
					c-0.69,7.557-0.33,11.947-1.135,19.483c0.115,0.011,0.263,1.112,0.181,2.193c-0.296,5.41-0.937,10.797-1.035,15.138
					c-0.296,5.412-0.706,10.808-0.806,15.153c-0.082,1.084,0.099,3.269,0.05,5.443l-0.494,7.917l0.116-0.315
					c0.168-2.146,0.322-4.325,0.41-6.507c0.264-6.507,0.607-14.086,0.985-20.575c0.501-8.116,0.925-15.966,1.31-23.683l0.552-11.493
					l0.264-5.703l0.064-1.423c0.027-0.428,0.085-1.12,0.079-1.716c0-1.217-0.123-2.388-0.331-3.525
					c-0.752-3.884-2.563-7.393-5.116-10.33c-1.934-2.183-4.518-4.113-7.47-5.218c-2.953-1.114-6.104-1.416-8.992-1.022
					c-4.98,0.613-9.55,1.229-12.745,1.944C309.994,29.726,307.836,29.935,306.775,30.269z M295.189,36.417
					c5.667-0.795,11.647-1.553,17.557-2.23l8.76-0.95l2.139-0.215c0.698-0.059,1.484-0.168,1.9-0.16
					c1.207-0.014,2.372,0.12,3.46,0.397c1.75,0.401,4.237,1.451,6.314,3.617c2.1,2.112,3.693,5.234,4.316,8.171
					c0.159,0.732,0.265,1.45,0.314,2.131c0.027,0.341,0.038,0.672,0.037,0.991c-0.006,0.321-0.019,0.711-0.013,1.057
					c0.001,1.409,0.027,2.629,0.086,3.571c0.117,1.884,0.362,2.656,0.788,1.609c-0.206-1.36-0.295-3.538-0.248-6.184
					c0.022-2.423-0.634-5.455-2.186-8.323c-1.53-2.863-4.055-5.523-7.318-6.816c-1.618-0.658-3.393-0.98-5.192-0.99
					c-0.212-0.004-0.477,0.003-0.648,0.008c-0.096-0.002-0.188,0.015-0.285,0.022l-0.372,0.037l-1.484,0.147l-2.941,0.29
					C304.604,34.132,291.312,35.464,295.189,36.417z M265.382,98.582c-0.272-4.537-0.524-8.927-0.629-14.087L265.382,98.582z
					 M260.871,52.79c-0.195,0.993-0.367,2.008-0.606,3.034c-0.052,0.226-0.11,0.448-0.18,0.667
					c-0.082,0.216,0.007,0.461,0.001,0.689l0.3,4.733l0.267,4.851l0.467,9.768l0.891,19.291c0.565,10.841,0.229,22.776,1.233,32.516
					l0.346-0.007l-0.137-1.077c-0.009-3.81,0.113-6.879,0.146-10.072l0.042,0.558l-0.038-0.964c0.017-2.131-0.012-4.34-0.153-6.884
					l-0.232-3.545c-0.478-13.55-0.938-27.532-1.91-39.793l-0.351-4.815l-0.383-4.528c-0.001-0.211-0.089-0.44-0.018-0.642
					c0.059-0.203,0.108-0.412,0.151-0.624c0.372-1.761,0.609-3.443,1.001-5.141c0.38-1.695,0.871-3.394,1.574-5.081
					C262.341,47.617,261.262,50.66,260.871,52.79z"/>
				<path fill="#202020" d="M261.466,152.704l0.678,14.157l0.086,1.432l0.003,0.056l-0.024,0.135
					c-0.248,1.364,0.002,2.913,0.345,4.389c0.355,1.489,0.849,2.961,1.401,4.413c1.489,3.998,3.411,8.063,5.509,12.156
					c2.107,4.092,4.419,8.213,6.885,12.281c2.471,4.064,5.092,8.094,7.918,11.887c0.707,0.946,1.429,1.876,2.169,2.775
					c0.37,0.45,0.744,0.893,1.124,1.323c0.324,0.366,0.618,0.686,0.94,1.016c0.639,0.643,1.295,1.273,2.068,1.725
					c0.194,0.109,0.398,0.202,0.616,0.253c0.231,0.095,0.416-0.098,0.612-0.192l1.162-0.668c0.304-0.554,0.204-0.894-0.226-1.065
					l-1.022,0.524c-0.088,0.028-0.161,0.122-0.261,0.097c-0.095-0.014-0.189-0.04-0.278-0.078c-0.18-0.072-0.346-0.177-0.505-0.286
					c-0.632-0.453-1.163-1.017-1.675-1.58l-0.376-0.431l-0.541-0.64l-1.137-1.41c-0.751-0.957-1.487-1.941-2.21-2.941
					c-2.891-4.009-5.604-8.22-8.168-12.508c-2.558-4.293-4.968-8.684-7.109-13.168c-1.067-2.242-2.067-4.51-2.939-6.795
					c-0.867-2.279-1.628-4.601-2.061-6.832l-0.115-0.407c-0.329-1.15-0.538-2.542-0.397-3.411l0.082-0.506l-0.01-0.146
					c-0.543-8.552-0.688-19.96-1.356-29.06c-0.91-10.828-1.359-21.667-2.155-32.492C260.814,122.372,261.363,137.26,261.466,152.704
					z"/>
				<path fill="#202020" d="M276.146,29.51c-2.557,0.431-5.175,1.25-7.611,2.572c-2.441,1.306-4.646,3.134-6.402,5.224
					c-2.346,2.82-3.83,5.922-4.851,8.88c-0.512,1.483-0.91,2.946-1.243,4.353l-0.864,3.868l-0.245,1.208
					c-0.09,0.394-0.107,0.815-0.164,1.217l0.423,8.105l0.438,7.674l-0.401-15.75c0.06-0.387,0.072-0.792,0.171-1.167l0.264-1.153
					c0.539-2.017,1.089-4.615,1.942-7.08c1.372-4.252,3.405-8.377,6.661-11.655C267.482,32.504,271.805,30.389,276.146,29.51z"/>
				<path fill="#202020" d="M256.152,81.419l-0.526-8.807l1.088,35.252c0.858,19.238,1.654,38.488,2.65,57.724l0.129,2.76
					l0.058-0.519c-0.354,1.706-0.182,3.123,0.019,4.481c-0.174-1.366-0.308-2.79,0.075-4.458l-0.056,0.493
					c-0.572-34.559-1.19-68.844-3.187-98.154l-0.12-1.768c0.37,14.466,0.827,28.773,1.297,43.041L256.152,81.419z"/>
				<polygon fill="#202020" points="261.238,148.171 261.288,151.297 261.478,154.889 261.466,152.704 				"/>
				<path fill="#202020" d="M263.598,117.183l0.004-0.406l-0.386-10.429c-0.308-4.846-0.587-9.911-0.827-15.086
					C262.709,100.643,263.032,109.922,263.598,117.183z"/>
				<polygon fill="#202020" points="265.758,87.073 265.67,82.736 265.422,80.767 265.462,83.831 				"/>
				<path fill="#202020" d="M280.135,38.382c-2.383,0.151-4.602,0.653-6.478,1.562c-1.885,0.901-3.43,2.199-4.685,3.838
					c-1.253,1.641-2.205,3.622-2.929,5.799c-0.363,1.09-0.671,2.227-0.952,3.42c-0.288,1.192-0.523,2.448-0.899,3.914
					c-0.019,0.089-0.04,0.176-0.065,0.26c-0.029,0.085,0.007,0.181,0.007,0.268l0.973,20.73l0.315,2.593
					c-0.058-4.02-0.14-8.03-0.255-12l-0.2-5.919l-0.121-2.928l-0.066-1.455l-0.035-0.725l-0.004-0.089l-0.004-0.024l-0.006-0.048
					l-0.013-0.096c-0.002-0.069-0.033-0.143-0.013-0.208l0.041-0.205c0.454-1.848,0.696-3.308,1.029-4.719
					c0.319-1.403,0.678-2.709,1.103-3.937c0.562-1.714,1.613-4.102,2.76-5.264c1.29-1.424,2.804-2.5,4.557-3.26
					c1.752-0.756,3.741-1.188,5.842-1.344c0.524-0.042,1.056-0.065,1.593-0.07c0.282-0.007,0.505-0.008,0.842,0.001l0.709,0.02
					c0.237-0.011,0.475-0.051,0.711-0.075l3.712-0.482l7.267-0.956l-6.986,0.829l-3.531,0.423c-0.226,0.023-0.764,0.1-1.202,0.125
					l-1.104-0.033c-0.525-0.001-1.049,0.007-1.566,0.032L280.135,38.382z"/>
			</g>
		</g>
	</g>
</g>
<g>
	<radialGradient id="SVGID_2_" cx="300.5439" cy="275.2571" r="62.2702" gradientUnits="userSpaceOnUse">
		<stop  offset="0" style="stop-color:#FFFFFF;stop-opacity:0.2"/>
		<stop  offset="0.0144" style="stop-color:#F4F4F4;stop-opacity:0.2007"/>
		<stop  offset="0.0883" style="stop-color:#C2C2C2;stop-opacity:0.2045"/>
		<stop  offset="0.1677" style="stop-color:#949494;stop-opacity:0.2085"/>
		<stop  offset="0.2505" style="stop-color:#6C6C6C;stop-opacity:0.2128"/>
		<stop  offset="0.3378" style="stop-color:#4A4A4A;stop-opacity:0.2172"/>
		<stop  offset="0.4307" style="stop-color:#2F2F2F;stop-opacity:0.2219"/>
		<stop  offset="0.5313" style="stop-color:#1A1A1A;stop-opacity:0.2271"/>
		<stop  offset="0.6432" style="stop-color:#0B0B0B;stop-opacity:0.2328"/>
		<stop  offset="0.7759" style="stop-color:#030303;stop-opacity:0.2395"/>
		<stop  offset="0.9818" style="stop-color:#000000;stop-opacity:0.25"/>
	</radialGradient>
	<ellipse fill="url(#SVGID_2_)" cx="300.544" cy="275.258" rx="30.209" ry="30.659"/>
	<g>
		<g>
			<g>
				<path fill="#202020" d="M325.853,278.159c0.043-0.343,0.062-0.67,0.065-0.67l-0.175-0.003L325.853,278.159z"/>
				<path fill="#202020" d="M327.872,279.094l0.031-0.227c-0.052,0.02-0.099,0.018-0.148,0.025
					C327.795,278.956,327.836,279.019,327.872,279.094z"/>
				<path fill="#202020" d="M325.737,277.486c-0.648,0.001-1.313,0.199-1.93-0.172c0.034-0.341,0.067-1.024,0.077-1.369
					c-0.345-0.35-0.702-0.017-1.058-0.029c0.006-0.328,0.009-0.658-0.166-0.657c-0.232-0.154-0.423-0.071-0.573,0.067
					c-0.153,0.137-0.252,0.374-0.321,0.676c0.977,0.701,1.531,2.037,2.02,2.748C324.265,279.444,324.84,279.551,325.737,277.486z"/>
				<path fill="#202020" d="M326.716,280.675c0.133-0.668,0.237-1.343,0.324-2.02c-0.379-0.263-0.75-0.581-1.175-0.428
					C326.044,279.27,326.271,279.943,326.716,280.675z"/>
				<path fill="#202020" d="M327.439,269.565c0.106-0.021,0.172,0.004,0.082,0.39L327.439,269.565
					c-0.099,0.016-0.239,0.066-0.339-0.095c0.483,1.304,0.889,2.903,1.015,4.492c0.194,0.198,0.392,0.395,0.588,0.575
					c-0.172-3.995-1.229-8.018-3.395-10.537C326.186,266.046,326.945,267.435,327.439,269.565z"/>
				<path fill="#202020" d="M329.771,274.834l0.013,0.424C329.937,274.876,329.879,274.836,329.771,274.834z"/>
				<path fill="#202020" d="M279.876,260.498c-1.141,1.925-1.477,3.959-1.595,5.903c0.474-1.942,1.274-3.843,2.21-5.554
					c0.935-1.715,1.998-3.24,2.936-4.576C282.117,257.56,280.925,258.973,279.876,260.498z"/>
				<path fill="#202020" d="M278.98,275.49c0.317-2.376,0.172-4.287,0.092-6.306c-0.356,1.923-0.47,3.857-0.354,5.768
					C278.803,275.133,278.882,275.322,278.98,275.49z"/>
				<path fill="#202020" d="M278.01,272.74c0.252-2.25,0.152-4.237,0.271-6.338C277.735,268.594,277.637,270.819,278.01,272.74z"/>
				<path fill="#202020" d="M319.006,240.644c2.477,0.785,3.894,1.542,4.649,2.009c0.464,0.034,1.068,0.102,1.871,0.254l-0.372-0.29
					c-2.358-1.416-4.85-2.633-7.447-3.593c-1.109-0.294-2.188-0.487-3.117-0.538C316.106,239.122,317.58,239.865,319.006,240.644z"
					/>
				<path fill="#202020" d="M323.655,242.653c-1.976-0.106-1.229,0.349-0.382,0.597
					C324.118,243.514,325.123,243.606,323.655,242.653z"/>
				<path fill="#202020" d="M306.189,246.785l-0.28-0.054l-0.837-0.026C305.452,246.724,305.813,246.75,306.189,246.785z"/>
				<path fill="#202020" d="M281.322,247.35c1.528-1.173,3.139-2.262,4.799-3.239c-3.501,1.853-6.625,4.414-8.54,7.05
					c0.342-0.334,0.813-0.535,1.168-0.852C279.218,249.411,280.116,248.195,281.322,247.35z"/>
				<path fill="#202020" d="M318.85,250.841c-4.051-2.574-8.614-3.934-12.94-4.109c-4.278-0.799-8.684-0.464-12.528,0.871
					c-3.854,1.327-7.138,3.644-9.414,6.425c-1.976,2.46-4.566,5.779-5.961,9.637c-1.447,3.813-1.571,7.992-0.223,10.718
					c0.093-0.573,0.172-1.117,0.227-1.643c0.157,0.802,0.396,1.545,0.709,2.213c0.461,8.523,5.577,16.02,12.927,19.562
					c1.099,0.521,2.122,0.352,3.23,0.684c1.143,0.308,2.29,0.509,3.446,0.596c0.009-0.04-0.002-0.08-0.029-0.122
					c4.818,0.322,9.506-1.246,13.01-4.453c1.688-1.407,3.378-2.867,4.661-4.696c0.469-0.685,1.053-0.311,1.513-0.714
					c1.917-1.563,3.354-3.064,4.328-5.784l0.518,0.111c0.038-0.452,0.112-0.847,0.221-1.165c0.876,0.846,1.247,2.293,1.634,3.084
					c0.375,0.774,0.938,0.952,2.108-1.063l0.006,0.002l0.018,0.704l-0.018,0.073h0.021c0.037,1.096,0.165,1.811,0.507,2.619
					c0.223-0.67,0.425-1.349,0.602-2.035c0.204,0.189,0.422,0.339,0.68,0.329c0.028,0.073,0.061,0.142,0.087,0.222l-0.16,0.575
					c0.101,0.139,0.208,0.253,0.323,0.343c0.091,1.037-0.063,2.336-0.178,3.331c-0.11,0.996-0.148,1.704,0.318,1.58
					c0.55-0.272,0.885-1.805,1.204-3.485c0.095-0.076,0.189-0.17,0.271-0.271c-0.56,2.196,1.182,0.395,0.886,1.761
					c-0.644,1.757-1.289,3.539-2.233,5.177c-1.928,3.323-4.211,6.079-6.802,8.489c-2.602,2.401-5.531,4.468-9.014,6.165
					l-0.929,0.423c-3.453,1.493-7.052,2.191-10.736,2.119l0.719-0.364c-2.938,0.007-5.843-0.308-8.776-0.71
					c-7.187-0.936-14.423-4.45-19.606-10.674c-5.358-6.514-8.485-14.601-8.778-23.415c0.27,3.608,1.01,7.108,2.056,10.568
					c0.396,1.575,0.921,3.112,1.556,4.55c-0.57-1.526-1.1-3.031-1.556-4.55c-0.779-3.031-1.096-6.185-1.248-9.157
					c-0.152-2.98-0.151-5.808-0.399-8.425c0.271-0.493,0.436-0.45,0.566-0.954c0.916-3.563,2.537-6.804,3.557-9.872
					c-0.158-0.092,0.692-1.449,0.112-1.187c1.57-2.834,4.021-5.731,6.227-8.157c0.978-1.031,1.865-2.185,2.809-3.362
					c9.174-7.758,22.597-11.357,36.096-7.459c3.324,1.002,6.919,2.865,9.767,4.898c-4.546-2.487-9.581-4.238-14.772-4.982
					c-4.905-1.286-9.911-1.335-13.686,0.056c-0.882,0.28-1.746,0.573-2.601,0.895c5.277-1.426,10.83-1.735,16.286-0.95
					c2.9,0.744,5.749,1.89,8.421,3.208l-0.178-0.045c-2.2-0.817-4.476-1.445-6.783-1.881c-4.205-1.305-8.556-1.674-12.089-0.865
					c-0.44,0.096-0.876,0.218-1.286,0.346c-0.868,0.241-1.729,0.493-2.573,0.771c3.212-0.721,6.504-1.029,9.809-0.925
					c2.05,0.064,4.11,0.29,6.14,0.674c1.237,0.379,2.467,0.833,3.666,1.343c-0.144-0.01-0.296-0.022-0.429-0.021
					c-0.563-0.126-1.767,0.052-2.61,0.429c-0.85,0.377-1.341,0.909-0.665,1.39c1.938,0.571,4.035,1.334,6.033,2.275
					c2.001,0.935,3.899,2.039,5.502,3.135c3.21,2.197,5.218,4.313,5.158,4.356c-0.085,0.429-2.615-1.819-5.444-3.525
					c-2.799-1.769-5.83-2.967-5.64-2.771c0.627,0.422,1.252,0.84,1.856,1.278c-0.679-0.246-1.354-0.452-1.988-0.6
					c-1.391-0.551-3.158-1.496-4.219-1.496c-1.802-0.096-3.582-0.428-5.443-0.644c-1.853-0.222-3.786-0.333-5.683-0.005
					c-2.375,0.484-5.092,1.448-7.514,2.764c0.079,0.336-1.243,0.501-0.724,0.731c-2.386,0.605-5.03,1.825-5.446,3.222l-0.139,0.106
					c-0.146,0.081-0.332,0.24-0.513,0.437c-1.763,0.884-3.036,2.031-4.072,3.286c-1.036,1.262-1.855,2.625-2.702,4.131
					c-0.69,0.945-1.356,1.92-2.022,2.935c0.434-0.668,1.27-1.518,1.636-2.239l0.387-0.695c1.792-2.436,3.739-4.698,6.099-6.573
					c0.152-0.217,0.408-0.56,0.676-0.844c0.194-0.102,0.394-0.189,0.595-0.28c0.013-0.089,0.031-0.176,0.057-0.263
					c2.35-1.82,5.523-3.033,7.971-3.968c4.727-1.478,10.236-0.807,14.898,0.924c-2.452-0.521-4.908-0.684-7.261-0.535
					c2.939-0.063,5.759,0.3,8.45,0.99c0.399,0.155,0.783,0.323,1.17,0.491c0.811,0.354,1.605,0.742,2.38,1.168
					c-0.686-0.468-1.398-0.88-2.125-1.261c1.6,0.484,3.154,1.099,4.662,1.805c4.031,2.144,7.662,5.373,10.313,9.34
					c2.666,3.952,4.33,8.635,4.742,13.36c-0.231-0.159-0.474-0.342-0.715-0.543c-0.682-4.415-2.369-8.746-5.011-11.332
					c1.241,2.164,2.24,3.635,3.054,5.945c-0.097,0.029-0.229,0.097-0.352-0.075c0.676,1.402,1.323,3.135,1.65,4.889
					c-0.54-0.491-1.1-1.023-1.674-1.522c-0.528-0.765-0.843-2.001-1.43-3.147c-2.061-5.063-5.06-9.495-9.398-12.605
					c-3.561-3.084-7.924-5.258-12.472-6.142C310.798,247.225,315.023,248.69,318.85,250.841z M322.766,288.243l-0.387,1.143
					l0.198-0.088C322.772,288.988,322.81,288.587,322.766,288.243z M317.179,294.862c2.135-1.447,4.087-4.346,5.332-7.286
					c-0.034-0.039-0.069-0.07-0.105-0.09C321.021,289.741,319.378,292.623,317.179,294.862z M307.305,296.404l0.067,0.039
					l-0.03-0.075L307.305,296.404z M273.361,278.842c1.251,3.028,2.355,6.747,4.608,9.894c0.581,0.999,1.782,1.558,2.688,2.715
					c1.301,1.341,2.33,1.88,3.512,2.72c-0.191-0.327-0.371-0.661-0.544-0.993c0.834,0.934,1.737,1.4,2.622,1.82
					c0.895,0.417,1.762,0.803,2.727,1.551c0.088-0.152,0.557-0.293,0.854-0.137c1.557,0.634,3.026,1.56,4.426,1.593
					c1.648,0.294,3.304,0.549,4.646,0.29c0.333,0.024,1.009-0.47,1.644-0.646c0.778-0.072,1.549-0.158,2.308-0.289l-0.108-0.129
					c-0.619,0.055-1.246,0.108-1.882,0.236c-1.895,0.399-4.205,0.471-6.146,0.116c-4.805-0.939-9.299-3.085-13.004-6.508
					c-0.803-0.718-1.727-1.395-2.45-2.24c-1.172-1.218-2.119-2.846-2.898-4.407c-0.787-1.564-1.419-3.062-2.236-4.103
					C273.877,279.971,273.762,279.195,273.361,278.842z M265.506,274.153c0.287,2.675,0.789,5.422,1.479,8.057
					c0.696,2.635,1.58,5.155,2.532,7.425c0.405,0.902,1.113,2.18,2.04,3.469c0.927,1.29,2.079,2.58,3.236,3.584
					c2.336,2.025,4.552,2.849,4.59,1.465c-1.464-0.06-3.618-1.524-5.59-3.944c-1.987-2.403-3.683-5.751-4.694-9.041
					C266.982,278.564,267.674,272.524,265.506,274.153z M287.754,238.726c-2.106,1.057-4.03,2.208-6.278,3.534
					C283.43,240.892,285.534,239.705,287.754,238.726z M275.149,257.018c1.175-2.763,3.071-5.349,5.369-7.548
					c2.3-2.209,4.988-4.032,7.769-5.525c2.149-1.153,4.669-1.763,7.122-2.146c2.468-0.386,4.861-0.558,7.116-1.045l0.03-0.528
					l-0.508,0.15c-1.749-0.177-3.183-0.407-4.689-0.42l0.256-0.069l-0.447,0.068c-1.004,0.008-2.047,0.123-3.197,0.485
					c-0.521,0.186-1.048,0.385-1.57,0.593c-6.081,1.741-11.74,5.486-14.818,10.127c-2.021,2.747-3.02,5.537-4.11,8.535
					C273.908,258.904,274.771,257.853,275.149,257.018z"/>
				<path fill="#202020" d="M312.015,246.416c1.861,0.529,3.7,1.262,5.466,2.202c1.404,0.661,2.773,1.415,4.108,2.26
					c3.105,2.112,5.877,5.29,7.881,8.973c2.024,3.683,3.274,7.838,3.897,11.91c0.54,0.188,1.07,0.176,1.583-0.189
					c-0.189-4.701-1.727-9.331-4.106-13.377c-2.384-4.065-5.561-7.571-9.148-10.575l-0.209-0.091
					c-1.899-0.81-4.142-2.084-6.644-3.095c-2.483-1.028-5.221-1.771-7.656-1.822c-4.859,0.072-9.528,0.545-13.682,2.439
					c3.119-0.747,6.271-1.07,9.401-0.887C306.031,244.348,309.14,245.064,312.015,246.416z"/>
				<path fill="#202020" d="M279.072,269.185c0.232-1.258,0.568-2.512,1.019-3.747c1.163-3.479,2.841-6.476,5.124-9.236
					c-1.924,1.734-3.606,3.743-4.985,5.963C279.007,264.508,278.984,266.921,279.072,269.185z"/>
				<path fill="#202020" d="M287.219,254.055c-0.722,0.698-1.385,1.411-2.004,2.146c2.855-2.566,6.268-4.503,9.992-5.569
					c6.072-2.108,13.193-1.703,19.561,1.248c0.72,0.341,1.415,0.729,2.083,1.152c-2.577-2.017-5.521-3.574-8.631-4.501
					c-3.104-0.936-6.366-1.246-9.496-0.932c-6.277,0.582-11.837,3.854-14.938,8.171l-0.359,0.501
					c3.506-3.446,7.909-5.953,12.746-7.064C292.81,250.163,289.729,251.833,287.219,254.055z"/>
				<path fill="#202020" d="M310.204,245.96c0.402,0.147,0.798,0.295,1.189,0.455c0.482,0.123,0.956,0.253,1.425,0.398
					c-0.265-0.141-0.535-0.271-0.804-0.397C311.412,246.243,310.807,246.089,310.204,245.96z"/>
				<path fill="#202020" d="M297.358,239.956l-0.191-0.001c-1.592,0.257-3.192,0.609-4.768,1.078
					c-2.123,0.846-4.239,1.877-6.278,3.077C289.896,242.066,294.026,240.882,297.358,239.956z"/>
				<path fill="#202020" d="M281.921,240.33c-0.503,0.271-1.486,0.844-1.969,1.152l-0.696,0.827
					c0.445-0.285,0.903-0.563,1.367-0.825C281.044,241.091,281.479,240.708,281.921,240.33z"/>
				<path fill="#202020" d="M265.104,266.936c1.415-9.267,6.206-17.605,13.271-23.532l0.882-1.094
					c-5.281,3.336-9.454,8.327-11.363,13.638c-0.404,1.038-0.676,2.722-1.106,3.696c-1.949,4.718-2.44,9.654-2.091,14.306
					c-0.072-2.228,0.044-4.504,0.379-6.82L265.104,266.936z"/>
			</g>
		</g>
	</g>
</g>
<path stroke="#000000" stroke-width="2.8346" stroke-miterlimit="10" d="M306.23,71.498h0.435l0.283,0.166
	c0.013-0.11,0.069-0.166,0.17-0.166h0.17c0.177,0.123,0.511,0.24,1.002,0.352c0.668,0,1.203-0.117,1.605-0.352h0.17l0.283,0.166
	h0.529c0.895,0.074,1.342,0.192,1.342,0.353c0.063,0,0.094-0.03,0.094-0.093c0.719,0.063,1.078,0.124,1.078,0.186l1.511-0.26
	c0.163,0.284,0.435,0.427,0.813,0.427c0.302,0.309,0.454,0.982,0.454,2.02c-0.643,0.767-1.185,1.149-1.625,1.149
	c0,0.062-0.025,0.093-0.076,0.093h-0.359l-1.699-0.89c-0.202,0-0.681-0.29-1.437-0.871c-0.239-0.234-0.661-0.383-1.266-0.445V73.24
	l-0.17,0.092c-1.424-0.642-2.317-0.963-2.683-0.963h-0.189c-0.088,0-0.8,0.055-2.135,0.166h-1.436c-0.328,0-0.982,0.148-1.965,0.445
	c-1.008,0.234-1.67,0.47-1.984,0.704c-0.957,0.111-1.939,0.494-2.947,1.149c-0.402,0.321-0.85,0.815-1.342,1.482
	c-0.227,0.642-0.528,0.963-0.906,0.963c-1.07,2.026-1.694,3.348-1.871,3.966c-0.125,0.581-0.214,0.871-0.264,0.871
	c0,0.062,0.025,0.093,0.075,0.093l-0.265,1.742h0.095c0,0.284-0.239,1.31-0.718,3.076l-0.453,2.298c0,0.05,0.031,0.074,0.094,0.074
	c-0.113,0.741-0.264,2.589-0.453,5.542v0.964l0.643,3.243c0,0.049-0.031,0.754-0.095,2.112l0.095,0.167l-0.095,0.186
	c0.239,1.223,0.447,1.835,0.624,1.835v0.092c0.327,1.99,0.654,3.25,0.982,3.781c0.276,0.494,0.484,1.137,0.623,1.928
	c0.227,0,0.378,0.531,0.453,1.594c0.139,0.877,0.227,1.315,0.265,1.315c2.431,1.915,3.986,2.879,4.667,2.892l2.059,0.444
	c0.113-0.062,0.201-0.093,0.266-0.093v0.093l0.17-0.093h0.094l0.189,0.093v-0.093c0.113,0.063,0.201,0.093,0.264,0.093
	c0.744-0.062,1.191-0.093,1.342-0.093l0.095,0.167c1.297-0.284,2.097-0.426,2.399-0.426h0.453v-0.186h0.453
	c0.177,0,0.266-0.118,0.266-0.353c0-1.804-0.057-4.176-0.171-7.116c-0.126,0-0.188-0.056-0.188-0.167
	c0.125,0,0.188-0.062,0.188-0.186l-0.188-0.26v-0.073l0.188-0.278c-0.126,0-0.188-0.086-0.188-0.26c0-0.062,0.031-0.093,0.094-0.093
	c-0.139-1.284-0.227-1.927-0.264-1.927c0-0.063,0.025-0.093,0.075-0.093c0-0.074-0.057-0.396-0.17-0.964
	c0-0.062,0.031-0.148,0.095-0.26c-0.063-0.321-0.095-0.587-0.095-0.797v-0.352l0.095-0.427h-0.095c0-0.062,0.031-0.093,0.095-0.093
	l-0.095-0.444v-1.575c0-0.063,0.031-0.093,0.095-0.093l-0.095-0.167c-0.063-0.988-0.095-1.748-0.095-2.279V96.61
	c0-0.062,0.031-0.093,0.095-0.093c-0.063-0.111-0.095-0.197-0.095-0.26c0-0.099,0.031-0.451,0.095-1.057h-0.095
	c0-0.062,0.031-0.092,0.095-0.092l-0.095-0.427v-0.186l0.095-0.444h-0.358c-0.215,0.186-0.605,0.277-1.172,0.277
	c-0.592,0-1.008-0.092-1.247-0.277c0,0.086-0.271,0.204-0.813,0.352l-0.17-0.074c-0.126,0.013-0.188,0.068-0.188,0.167l-0.17-0.093
	h-0.266c-1.008,0-1.845,0.47-2.512,1.409l-0.17-0.093h-0.284c-0.05,0-0.075,0.031-0.075,0.093c-1.26-0.52-1.89-0.988-1.89-1.409
	c-0.239-0.111-0.358-0.253-0.358-0.426c0-0.643,0.27-1.174,0.813-1.594h0.434c0.428,0.024,0.643,0.086,0.643,0.186l0.17-0.093h0.189
	c0,0.136,0.119,0.222,0.359,0.259l0.17-0.074l0.453,0.074c0.566-0.173,1.253-0.29,2.059-0.352c0.025,0,1.07,0.093,3.137,0.277
	c0.945-0.062,1.512-0.092,1.7-0.092v0.092c0.163-0.062,0.636-0.154,1.417-0.277v0.093c0.303-0.111,0.844-0.167,1.625-0.167v-0.186
	c0.654,0,0.982-0.086,0.982-0.26l0.17,0.093h1.266c0.655,0,1.758-0.117,3.307-0.352c0.756,0,2.16,0.024,4.213,0.074v2.816
	c0,0.174,0.025,0.26,0.076,0.26L319.21,95.2v3.688l-0.094,0.519c0,0.063,0.031,0.093,0.094,0.093
	c-0.063,0.878-0.094,1.52-0.094,1.928v1.334c0,0.581-0.063,0.871-0.189,0.871c0,0.063,0.031,0.093,0.094,0.093l-0.094,0.427v0.63
	l-0.076,0.167h0.076c-0.102,0.655-0.246,2.119-0.435,4.393c-0.315,1.161-0.522,1.834-0.624,2.02l-0.188,0.093h-0.17
	c-0.188-0.47-0.283-0.821-0.283-1.057c0.063-0.642,0.095-1.198,0.095-1.668l-0.095-0.444h-0.075
	c-0.064,0.704-0.127,1.057-0.189,1.057c0.063,0.11,0.094,0.197,0.094,0.259c0,1.014-0.176,1.601-0.528,1.761
	c-0.252,0.123-0.61,0.711-1.077,1.761c-0.491,0.42-0.85,0.976-1.076,1.668h-0.189l-0.076-0.537h-0.188
	c-0.101,0.766-0.276,1.148-0.528,1.148c-0.227,0-0.649,0.494-1.266,1.483c-0.14,0-0.379,0.179-0.719,0.537h-0.076l-0.188-0.093
	c0,0.123-0.058,0.186-0.171,0.186h-0.982c-0.365,0.173-0.548,0.346-0.548,0.519h-1.436c-0.051,0-0.29,0.062-0.719,0.186
	c-0.075,0-0.402-0.18-0.982-0.537l0.096-0.52c-0.064-0.383-0.096-0.766-0.096-1.148l-0.623,0.093c0-0.124-0.031-0.186-0.094-0.186
	l-0.889,0.352c-0.139-0.123-0.529-0.21-1.172-0.259c-0.428,0.049-0.724,0.136-0.887,0.259c-1.084,0-2.01,0.117-2.777,0.353
	c-1.437-0.173-2.299-0.377-2.589-0.611c-0.73-0.124-1.983-0.884-3.76-2.28c-0.856-0.704-1.397-1.056-1.625-1.056
	c-0.466-0.52-1.032-0.989-1.7-1.409c-0.73-0.938-1.146-1.408-1.247-1.408c-0.403-0.618-0.882-1.229-1.436-1.835
	c-0.177-0.396-0.655-1.068-1.437-2.02c-0.932-1.755-1.707-3.423-2.323-5.005c-0.177,0-0.265-0.062-0.265-0.185h0.095l-1.53-4.467
	c0-0.123-0.208-1.18-0.623-3.169c0-2.607,0.598-5.301,1.794-8.081c0-0.16,0.567-1.068,1.7-2.724
	c0.567-1.224,1.461-2.539,2.684-3.948c1.096-1.284,2.053-2.162,2.871-2.631c0.668-0.604,1.379-1.13,2.135-1.575
	c0.945-0.58,2.078-0.994,3.4-1.241c0.542-0.148,0.813-0.266,0.813-0.353c0.315,0.063,0.492,0.093,0.529,0.093l6.178-0.964
	c0.063,0,0.096,0.031,0.096,0.093l0.453-0.093h0.453C305.476,71.757,306.042,71.671,306.23,71.498z"/>
<path stroke="#000000" stroke-width="2.8346" stroke-miterlimit="10" d="M301.573,130.977l2.381,0.37l0.133-0.073h0.227
	c0.05,0,0.075,0.024,0.075,0.073c0.151-0.049,0.227-0.092,0.227-0.129l0.151,0.056h0.075c0.101,0,0.202-0.019,0.303-0.056
	c0.088,0.037,0.157,0.056,0.208,0.056c0.176,0,0.302-0.019,0.377-0.056c0.504,0.037,0.895,0.056,1.172,0.056h1.115
	c0.113,0,0.213-0.019,0.302-0.056c0.73,0.197,1.593,0.562,2.589,1.093c0-0.111,0.024-0.167,0.075-0.167
	c0.05,0,0.201,0.1,0.453,0.297h0.228l0.131-0.074c0.025,0.1,0.082,0.148,0.171,0.148h0.132c0.051,0,0.076-0.024,0.076-0.074
	c0.201,0.025,0.302,0.1,0.302,0.223h0.057c0.063,0,0.095-0.024,0.095-0.074c0.353,0.148,0.548,0.223,0.586,0.223h0.227
	c0,0.148,0.32,0.438,0.963,0.871c0-0.05,0.025-0.074,0.076-0.074c0,0.099,0.246,0.29,0.736,0.574
	c-0.051,0.099-0.075,0.173-0.075,0.223c0.05,0,0.075-0.024,0.075-0.074c0.164,0.024,0.359,0.173,0.586,0.444
	c0.201,0,0.529,0.267,0.982,0.797c0.215,0,0.555,0.365,1.021,1.094c0.214,0,0.39,0.217,0.528,0.648h0.076v-0.147h0.076
	c0,0.136,0.145,0.284,0.434,0.444c0.453,0.371,0.681,0.611,0.681,0.723c-0.051,0-0.075,0.025-0.075,0.074
	c0.201,0,0.472,0.34,0.813,1.02h0.074v0.426l0.133-0.056c0.303,0.458,0.453,0.724,0.453,0.797c-0.051,0-0.075,0.025-0.075,0.074
	c0.126,0,0.327,0.408,0.604,1.224c0.076,0,0.17,0.148,0.283,0.444h0.095l-0.095,0.148l0.227,0.501h-0.075
	c0.088,0.531,0.163,0.797,0.228,0.797l-0.076,0.147c0.012,0.1,0.063,0.148,0.15,0.148l-0.074,0.148
	c0.1,0.284,0.276,1.137,0.528,2.558c-0.05,0.087-0.075,0.154-0.075,0.204h0.075c-0.113,0.197-0.17,0.34-0.17,0.426
	c0.063,0,0.095,0.025,0.095,0.074h-0.095c0.101,0,0.177,0.538,0.227,1.612h-0.057l0.057,0.148c-0.025,0.482-0.069,0.723-0.132,0.723
	l0.075,0.148c0,0.037-0.025,0.056-0.075,0.056l0.075,0.167v0.426c0,0.05-0.025,0.074-0.075,0.074l0.075,0.13v0.537
	c0,0.037-0.025,0.056-0.075,0.056c0,0.05,0.025,0.074,0.075,0.074c-0.239,1.582-0.511,2.602-0.813,3.059
	c-0.403,1.037-0.706,1.643-0.907,1.815l0.076,0.148l-0.359,0.575c0,0.086-0.252,0.327-0.756,0.723
	c-0.49,0.914-1.058,1.569-1.7,1.964c-0.239,0.408-0.485,0.698-0.737,0.871c0,0.087-0.176,0.285-0.528,0.594
	c-0.869,0.951-1.486,1.532-1.852,1.742c-0.692,0.531-1.581,1.037-2.664,1.52c-0.139,0.173-0.485,0.321-1.039,0.444
	c-0.593,0.383-1.039,0.723-1.341,1.02c-0.164,0-1.146,0.315-2.947,0.945c-0.794,0.396-1.934,0.784-3.42,1.168
	c-0.354,0.086-0.529,0.16-0.529,0.222c-0.088-0.049-0.164-0.074-0.227-0.074l-1.398,0.371h-0.075
	c-0.643-0.063-1.159-0.093-1.55-0.093c-0.15,0-0.327,0.03-0.528,0.093l-1.398-0.167c-0.44,0.05-0.813,0.074-1.114,0.074h-0.681
	l-0.435-0.074c-0.088,0.05-0.183,0.074-0.283,0.074c0-0.062-0.548-0.179-1.644-0.353c-0.403-0.147-1.839-0.537-4.308-1.167v-0.074
	l-0.151,0.074l-0.51-0.074v0.074l-0.302-0.148c-0.089,0.049-0.158,0.074-0.209,0.074c-0.164-0.321-0.813-0.661-1.945-1.02
	c0-0.099-0.045-0.148-0.133-0.148l-0.15,0.093c0-0.123-0.593-0.42-1.776-0.89c-0.252-0.259-0.378-0.426-0.378-0.5l-0.15,0.056H283.7
	c-0.264-0.087-0.459-0.253-0.585-0.501c-0.151,0-0.228-0.074-0.228-0.222h0.076c-0.051-0.074-0.076-0.167-0.076-0.278l-0.132,0.074
	v-0.148h0.132c0-0.099-0.043-0.148-0.132-0.148c0,0.1-0.057,0.148-0.17,0.148c-0.681-0.507-1.021-0.803-1.021-0.89
	c-0.176-0.049-0.818-0.988-1.927-2.816c-0.265-0.297-0.466-0.711-0.604-1.242c0.051-0.086,0.076-0.186,0.076-0.297
	c-0.189,0-0.31-0.216-0.359-0.648h0.057c-0.151-0.543-0.227-1.124-0.227-1.742v-0.148c0-0.099-0.045-0.147-0.133-0.147l0.057-0.501
	v-0.297c0-0.049-0.019-0.073-0.057-0.073l0.057-0.148c0-0.087-0.044-0.284-0.132-0.594c0-0.037,0.024-0.055,0.075-0.055
	c-0.037-0.396-0.088-0.594-0.15-0.594l0.075-0.148v-0.056l-0.075-0.147h0.075l-0.075-0.148v-0.797l-0.227-1.816
	c0.251-0.853,0.446-1.779,0.585-2.78c-0.05-0.086-0.075-0.154-0.075-0.204l0.68-2.557c0.756-1.384,1.619-2.595,2.588-3.633
	c0.744-1.149,1.883-2.434,3.42-3.855c0.102,0,0.889-0.456,2.361-1.371c0.441-0.21,1.531-0.821,3.27-1.835
	c3.072-1.31,4.779-1.964,5.119-1.964c0.013-0.087,0.057-0.13,0.133-0.13v0.074l0.813-0.297v0.056l1.568-0.427v0.074
	c0.213-0.074,0.535-0.142,0.963-0.203c0.101,0.037,0.176,0.056,0.227,0.056C300.604,131.237,301.221,131.137,301.573,130.977z
	 M300.157,131.941c0,0.062-0.441,0.253-1.323,0.574c-0.667,0.507-1.411,0.871-2.229,1.094c-2.279,1.891-3.74,3.15-4.383,3.78
	c-0.719,0.767-1.311,1.489-1.776,2.169c0,0.197-0.195,0.643-0.585,1.334c-0.038,0.247-0.436,1.137-1.191,2.669
	c0,0.111-0.195,0.624-0.585,1.538c-0.391,1.977-0.661,3.194-0.813,3.651c0.038,0.086,0.057,0.154,0.057,0.203
	c0,0.111-0.069,0.31-0.208,0.594c0,0.099,0.025,0.191,0.076,0.277c-0.063,0.705-0.113,1.088-0.151,1.149
	c0.05,0.1,0.075,0.198,0.075,0.297v0.296c0,0.111-0.025,0.211-0.075,0.297c0.05,0.087,0.075,0.18,0.075,0.278
	c0,0.21-0.025,0.476-0.075,0.797l0.075,0.167l-0.15,0.277l0.075,0.445v0.074c0,0.049-0.025,0.074-0.075,0.074
	c0,0.036,0.024,0.055,0.075,0.055l-0.151,0.815c0.113,0.396,0.189,0.594,0.227,0.594l-0.075,0.277c0,0.235,0.177,1.23,0.528,2.984
	h-0.075l0.435,1.464l-0.075,0.13l0.151,0.297c0,0.049-0.025,0.117-0.076,0.203c0.466,1.606,0.813,2.435,1.039,2.483l-0.075,0.148
	c0.088,0.334,0.358,0.674,0.812,1.02c0.051,0.297,0.152,0.563,0.303,0.797h-0.075c0,0.099,0.126,0.197,0.378,0.297
	c0.176,0.494,0.541,0.927,1.096,1.297l0.604,0.148c0-0.05,0.024-0.074,0.075-0.074c0,0.099,0.957,0.39,2.872,0.871
	c0.819,0.111,1.272,0.21,1.36,0.297h1.455c0.365,0,0.912-0.025,1.644-0.074c0-0.1,0.024-0.148,0.075-0.148
	c1.045,0,1.637-0.068,1.775-0.204h0.813c1.046,0,2.677-0.513,4.895-1.538c0-0.05,0.031-0.124,0.094-0.223
	c-0.063-0.086-0.094-0.154-0.094-0.203c0.479,0,1.025-1.02,1.643-3.059c0.592-1.482,1.059-2.866,1.398-4.151h-0.057
	c0.139-0.346,0.359-1.39,0.661-3.132l0.737-3.41c0-0.049-0.025-0.074-0.076-0.074l0.151-1.241c0-0.05-0.025-0.074-0.075-0.074
	c0.063-0.605,0.113-0.97,0.15-1.094l-0.075-0.148c0-0.037,0.025-0.056,0.075-0.056c-0.101-1.174-0.176-1.761-0.227-1.761
	l0.076-0.352v-0.074c0-2.273-0.447-4.961-1.342-8.063c-0.517-1.482-0.932-2.458-1.246-2.928c-0.189-0.111-0.416-0.47-0.681-1.075
	l-0.586-0.519c0-0.198-0.05-0.297-0.151-0.297v0.093c-0.051,0-0.245-0.223-0.586-0.667c-0.201,0-0.302-0.124-0.302-0.371
	l-0.151,0.074h-0.075c0-0.074-0.221-0.29-0.661-0.648c0-0.234-0.396-0.433-1.19-0.593c0,0.049-0.025,0.073-0.075,0.073
	c0-0.073-0.178-0.142-0.529-0.203c0-0.111-0.045-0.167-0.133-0.167C303.324,131.774,302.159,131.829,300.157,131.941z"/>
</svg>
