<?xml version="1.0" encoding="utf-8"?>
<!-- Generator: Adobe Illustrator 15.0.0, SVG Export Plug-In . SVG Version: 6.00 Build 0)  -->
<!DOCTYPE svg PUBLIC "-//W3C//DTD SVG 1.0//EN" "http://www.w3.org/TR/2001/REC-SVG-20010904/DTD/svg10.dtd">
<svg version="1.0" id="Layer_1" xmlns="http://www.w3.org/2000/svg" xmlns:xlink="http://www.w3.org/1999/xlink" x="0px" y="0px"
	 width="286.425px" height="119.853px" viewBox="157.769 106.951 286.425 119.853"
	 enable-background="new 157.769 106.951 286.425 119.853" xml:space="preserve">
<g>
	
		<radialGradient id="SVGID_1_" cx="-48.8418" cy="-703.9148" r="101.9586" gradientTransform="matrix(0.0351 1.0054 13752.5957 -480.3529 9680956 -337908.2813)" gradientUnits="userSpaceOnUse">
		<stop  offset="0" style="stop-color:#FFFFFF;stop-opacity:0.2"/>
		<stop  offset="0.0144" style="stop-color:#F4F4F4;stop-opacity:0.2007"/>
		<stop  offset="0.0883" style="stop-color:#C2C2C2;stop-opacity:0.2045"/>
		<stop  offset="0.1677" style="stop-color:#949494;stop-opacity:0.2085"/>
		<stop  offset="0.2505" style="stop-color:#6C6C6C;stop-opacity:0.2128"/>
		<stop  offset="0.3378" style="stop-color:#4A4A4A;stop-opacity:0.2172"/>
		<stop  offset="0.4307" style="stop-color:#2F2F2F;stop-opacity:0.2219"/>
		<stop  offset="0.5313" style="stop-color:#1A1A1A;stop-opacity:0.2271"/>
		<stop  offset="0.6432" style="stop-color:#0B0B0B;stop-opacity:0.2328"/>
		<stop  offset="0.7759" style="stop-color:#030303;stop-opacity:0.2395"/>
		<stop  offset="0.9818" style="stop-color:#000000;stop-opacity:0.25"/>
	</radialGradient>
	<path fill="url(#SVGID_1_)" d="M165.138,194.249c0.225,6.428,11.752,22.429,28.343,19.501l219.097,5.08
		c6.275-1.876,25.765,1.187,23.661-22.414l-1.713-73.473c-0.225-6.431-18.824-9.583-25.355-9.354l-232.375,8.946
		c-6.521,0.229-16.142,15.578-15.916,22.008L165.138,194.249z"/>
	<g>
		<g>
			<g>
				<path fill="#202020" d="M167.929,208.026c-1.158-1.257-2.121-2.567-2.122-2.566c-0.04,0.029-0.057,0.089-0.087,0.134
					C166.485,206.527,167.215,207.316,167.929,208.026z"/>
				<path fill="#202020" d="M171.451,208.98l-0.726-0.678c0.053,0.108,0.038,0.149,0.055,0.221L171.451,208.98z"/>
				<path fill="#202020" d="M165.717,205.596c-0.298,0.523,0.159,2.026-1.363,0.948c-0.584-0.779-1.421-1.982-2.171-3.29
					c-0.757-1.298-1.416-2.729-1.809-3.775c-1.039-2.05-0.579,0.207-0.848,0.321c-0.411-1.073-0.759-2.278-0.967-3.341
					c-0.215-1.047-0.271-1.982-0.349-1.968c-0.108-0.262-0.202-0.349-0.282-0.281c-0.04,0.034-0.076,0.105-0.109,0.213
					c-0.008,0.029-0.017,0.051-0.023,0.094l-0.015,0.22c-0.008,0.154-0.015,0.339-0.013,0.522c-0.004,1.52,0.402,3.591,1.233,5.665
					c1.35,2.148,3.216,4.59,5.244,6.663c2.013,2.083,4.185,3.796,5.706,4.745c1.527,0.946,2.323,1.199,1.652,0.39
					c-0.325-0.415-1.006-1.105-2.023-2.221C168.573,209.377,167.221,207.836,165.717,205.596z"/>
				<path fill="#202020" d="M177.448,214.1c-2.822-1.47-5.361-3.377-7.582-5.581c-0.937-0.434-2.103-1.215-1.7-0.262
					c1.8,1.746,3.44,2.938,4.948,3.851C174.627,213.016,176.024,213.633,177.448,214.1z"/>
				<path fill="#202020" d="M160.813,171.271c0.093-0.004,0.154,0.137,0.144,1.611L160.813,171.271
					c-0.087-0.013-0.206,0.091-0.323-0.636c0.654,5.624,1.38,12.199,1.976,18.594c0.231,0.818,0.462,1.608,0.687,2.326
					c-1.447-15.824-2.803-31.659-4.717-44.549C159.222,156.171,160.025,162.45,160.813,171.271z"/>
				<path fill="#202020" d="M164.166,192.709l0.145,1.611C164.322,192.859,164.26,192.713,164.166,192.709z"/>
				<path fill="#202020" d="M382.895,110.348c4.9-0.254,9.494-0.595,13.948-0.977l6.597-0.599l3.258-0.312
					c1.129-0.095,2.024-0.233,3.509-0.291l-27.615,1.585c-8.795,0.518-17.041,1.033-24.072,1.593L382.895,110.348z"/>
				<path fill="#202020" d="M442.294,138.482c0-3.027-0.038-5.92-0.106-8.705l-0.058-2.068l-0.032-1.021l-0.018-0.507
					c-0.005-0.164-0.008-0.306-0.039-0.648l-0.289-3.467c-0.058-0.568-0.076-1.147-0.167-1.697c-0.131-0.533-0.319-1.059-0.54-1.567
					c-1.794-4.112-5.961-6.64-9.702-8.104c-2.908-1.111-5.577-1.73-8.206-2.217c2.652,0.587,5.305,1.302,8.11,2.447l0.611,0.262
					l0.707,0.323c0.468,0.221,0.93,0.454,1.382,0.702c0.904,0.497,1.775,1.047,2.586,1.665c1.614,1.236,3.006,2.75,3.906,4.563
					c1.019,1.781,0.862,3.895,1.088,5.921l0.122,1.524l0.033,0.9l0.064,1.801l0.258,7.188L442.294,138.482z"/>
				<path fill="#202020" d="M440.963,124.558l-0.242-3.372c-0.094-1.096-0.555-2.106-1.069-3.055
					c-1.083-1.884-2.688-3.353-4.459-4.514c-0.889-0.58-1.821-1.089-2.775-1.533l-0.718-0.323l-0.645-0.271l-1.077-0.408
					c-1.421-0.509-2.79-0.9-4.133-1.232c-2.683-0.653-5.259-1.067-7.817-1.346c-2.574-0.268-5.06-0.421-7.821-0.334
					c3.095-0.005,5.826,0.277,8.608,0.66c2.763,0.396,5.479,0.925,8.217,1.683c1.37,0.383,2.743,0.825,4.151,1.389
					c1.842,0.757,3.602,1.682,5.135,2.86c1.526,1.173,2.823,2.62,3.639,4.323c0.403,0.855,0.694,1.722,0.722,2.677L440.963,124.558z
					"/>
				<path fill="#202020" d="M220.384,128.287c-7.283,0.717-11.704,1.079-14.218,1.226c-1.106,0.254-2.571,0.57-4.556,0.971
					l1.301-0.05l22.885-1.63c3.152-0.313,6.158-0.634,8.677-0.981L220.384,128.287z"/>
				<path fill="#202020" d="M206.166,129.513C215.604,127.342,196.345,130.081,206.166,129.513L206.166,129.513z"/>
				<polygon fill="#202020" points="253.019,118.213 254.137,118.169 257.382,117.941 				"/>
				<path fill="#202020" d="M343.565,119.008c-6.407,0.307-12.824,0.663-19.131,1.051c13.007-0.661,26.123-1.323,36.976-2.19
					c-1.616,0.062-3.255-0.027-4.875,0.035C353.302,118.33,348.451,118.82,343.565,119.008z"/>
				<path fill="#202020" d="M202.445,121.568c17.633-1.063,34.935-2.212,51.691-3.398c34.062-1.367,66.894-2.993,96.351-5.363
					c12.962-1.104,30.807-2.018,48.646-3.083l6.68-0.406l3.357-0.21c1.377-0.063,2.578-0.025,3.788,0.034
					c4.777,0.285,9.256,0.971,13.744,2.156c1.121,0.305,2.241,0.649,3.369,1.06l0.87,0.333c0.365,0.147,0.718,0.302,1.071,0.462
					c0.706,0.319,1.392,0.675,2.053,1.06c1.32,0.773,2.536,1.687,3.536,2.78c0.998,1.085,1.787,2.383,2.176,3.759
					c0.257,1.406,0.333,2.869,0.514,4.289l0.17,1.673l0.127,1.331c0.172,1.759,0.353,3.451,0.541,5.066l-0.024-4.096l-0.028-1.986
					l-0.019-0.979c0.004-0.115-0.025-0.451-0.041-0.699l-0.055-0.792l0.12,1.162l0.066,0.772l0.114,1.392l0.236,2.721l0.505,5.173
					l1.636,48.595c0.14,4.031,0.227,8.113,0.403,12.11c0.043,0.428,0.076,1.081,0.109,1.688c0.02,0.618,0.046,1.231,0.039,1.866
					c0.001,1.257-0.054,2.547-0.2,3.878c-0.29,2.648-0.913,5.484-2.212,8.315c-1.278,2.823-3.346,5.575-5.86,7.605
					c-2.51,2.049-5.305,3.378-7.915,4.233c-2.621,0.86-5.117,1.306-7.394,1.621l-3.2,0.396c-0.983,0.115-1.835,0.228-2.391,0.345
					l-1.368,0.2c-0.45,0.069-0.915,0.114-1.372,0.173l-30.115-0.649c-6.502-0.15-11.385,0.19-17.882,0.04l-19.494-0.368
					c-0.025,0.034,0.055,0.069,0.232,0.106c-26.756-0.43-53.081-0.741-80.797-0.888c-12.995-0.15-25.998-0.603-38.977-0.903
					c-4.872-0.113-4.858-0.717-8.105-0.944c-6.485-0.528-12.16-1-18.038-1.419l-4.464-0.306l-0.283-0.019
					c-0.096-0.006-0.211-0.013-0.199-0.017l-0.122-0.025c-0.037-0.013-0.093-0.008-0.145-0.008l-0.078,0.001
					c-0.025,0.001,0.001-0.003-0.066,0.004l-0.191,0.019c-1.017,0.112-2.06,0.164-3.116,0.174c-4.229,0.034-8.755-0.855-13.05-2.84
					l0.183-0.415c-2.641-1.108-4.78-2.478-6.387-3.728c1.981,0.954,4.718,2.225,7.539,3.027c2.811,0.831,5.657,1.153,7.48,1.105
					c1.83-0.054,2.629-0.308,1.61-0.597c-0.507-0.159-1.47-0.349-2.945-0.742c-1.468-0.404-3.461-1.022-5.856-2.228l0.002-0.005
					c1.107,0.431,2.132,0.746,3.122,0.99l0.344,0.103c-0.012-0.01-0.01-0.016-0.018-0.022c2.458,0.563,4.499,0.656,6.247,0.546
					c0.875-0.062,1.68-0.163,2.439-0.319c0.381-0.072,0.749-0.166,1.11-0.258c0.34-0.1,0.769-0.207,0.976-0.308
					c-0.229,0.043-0.709,0.095-1.066,0.142c-0.387,0.033-0.771,0.079-1.16,0.097c-0.775,0.053-1.554,0.058-2.333,0.034
					c-1.557-0.051-3.112-0.253-4.632-0.603c0.623-0.074,1.027-0.22,0.762-0.486l0.806,0.026c1.323,0.229,2.452,0.273,2.451,0.278
					c0.445-0.094,0.768-0.196,0.986-0.31c0.974-0.063,2.009-0.183,3.058-0.374c0.544-0.093,1.024-0.225,1.502-0.309l1.532-0.066
					l6.011-0.238c3.59-0.161,5.967-0.348,4.846-0.688c-0.864-0.181-2.659-0.233-5.012-0.234l-3.9,0.028l-2.176,0.024l-1.16,0.012
					c-0.4-0.034-0.796,0.124-1.186,0.169l-1.221-0.017c0.492-0.049,0.916-0.119,1.292-0.183c0.406-0.063,0.749-0.191,1.054-0.174
					c0.616-0.025,0.986-0.065,1.211-0.114c0.459-0.099,0.36-0.232,0.16-0.369c-0.4-0.274-1.207-0.557,1.229-0.575l19.48,0.298
					c26.439,0.613,48.728,0.98,74.712,1.13l3.422,0.025c12.599,0.104,24.487,0.348,36.815,0.751l-2.46,0.237
					c9.917,0.326,19.854,0.59,29.795,0.591l26.755-0.02l26.988,0.118c0.156-0.012,0.319,0.024,0.471-0.025
					c0.151-0.047,0.305-0.086,0.458-0.121c1.873-0.388,3.458-0.526,4.996-0.737c1.528-0.198,2.982-0.42,4.36-0.732
					c2.753-0.617,5.161-1.626,6.821-3.19c1.761-1.604,2.795-3.911,3.232-6.67c0.217-1.372,0.298-2.826,0.256-4.317
					c-0.018-0.764-0.06-1.443-0.139-2.351c-0.061-0.854-0.062-1.687-0.096-2.53l-0.671-20.142
					c-0.471-13.429-0.991-26.909-1.567-40.75c0.601,11.308,1.171,22.599,1.545,34.199l0.368,15.438
					c-0.073-5.229-0.203-10.356-0.368-15.438c-0.203-10.025-0.38-20.188-0.729-29.77l-0.296-7.067l-0.178-3.431l-0.048-0.846
					l-0.024-0.422l-0.021-0.25l-0.085-0.895c-0.036-0.292-0.041-0.581-0.121-0.855c-0.084-0.272-0.234-0.521-0.419-0.736
					c-0.374-0.43-0.857-0.734-1.339-0.969c-0.485-0.233-0.977-0.401-1.45-0.524c-0.771-0.253-1.584-0.469-2.404-0.646
					c-1.35-0.563-1.318-0.708-2.73-1.082c-2.501-0.636-5.124-1.115-7.688-1.415c-1.276-0.147-2.557-0.249-3.708-0.268
					c-0.282-0.004-0.569-0.004-0.805,0.005l-1.011,0.041l-2.063,0.091c-5.476,0.249-10.744,0.565-15.601,1.055
					c0.006,0.15-4.872,0.339-3.236,0.577c-9.733,0.527-21.101,0.965-30.821,1.641c-4.213,0.261-8.403,0.713-12.604,1.229
					l-106.739,6.505c-9.319,0.503-20.079,0.922-29.519,1.287c13.872-1.039,28.169-2.009,42.69-2.943
					c14.102-0.432,27.604-0.953,38.691-2.155l7.734-0.705l-46.426,2.86c-8.328,0.256-16.859,0.481-25.222,0.797l0.502-0.051
					l19.817-1.313c12.542-0.384,24.599-0.839,34.917-1.781l3.783-0.375l7.73-0.704l-28.771,1.748l-17.659,1.112l-11.141,0.332
					l1.162-0.161c3.256-0.275,12.275-2.399,7.393-2.666c-24.982,1-60.023,3.067-60.028,2.917
					c-1.636-0.543,41.151-2.983,39.529-3.073l-7.202,0.104l6.54-0.645c4.86-0.338,11.36-0.438,14.602-0.865
					c11.321-1.343,24.321-1.541,37.279-2.643l27.527-2.726c-0.012-0.302,4.876-0.339,3.236-0.578
					c9.16-0.353,19.759-0.761,23.651-1.793l0.663-0.05c0.645-0.024,1.563-0.11,2.54-0.217c15.247-0.432,25.852-1.68,39.649-2.792
					c4.749-0.26,9.581-0.497,14.556-0.688c-3.249,0.125-8.12,0.161-11.368,0.438l-3.188,0.251
					c-12.313,0.674-24.027,1.527-35.728,2.307c-0.953,0.126-2.487,0.329-3.922,0.485l-2.545,0.066c-0.2,0.069-0.421,0.136-0.658,0.2
					c-11.19,0.864-23.857,1.507-33.39,2.319c-17.989,1.209-37.202,1.695-55.574,2.315l26.972-1.857l-31.651,2.021l-4.664,0.172
					l-9.747,0.375l9.036-0.186l-17.914,1.246l-24.56,1.409l-6.184,0.331l-3.097,0.162l-0.387,0.02l-0.34,0.025
					c-0.134,0.011-0.151,0.027-0.234,0.036l-0.272,0.063c-0.368,0.1-0.752,0.255-1.135,0.451c-1.544,0.806-3.001,2.154-4.305,3.599
					c-1.31,1.461-2.495,3.072-3.567,4.754c-1.069,1.683-2.029,3.443-2.829,5.248c-0.783,1.778-1.46,3.716-1.643,5.387
					c-0.043,0.423-0.059,0.851-0.002,1.273l0.137,1.518l0.278,3.101l0.547,6.201c0.721,8.265,1.407,16.518,2.052,24.734
					c-0.238-0.626-0.484-1.35-0.735-2.154c-0.723-7.914-1.423-15.828-2.182-23.374l-0.582-5.585l-0.301-2.729l-0.154-1.348
					c-0.05-0.432-0.111-0.827-0.095-1.244c0.041-1.624,0.508-3.306,1.041-4.888c0.547-1.589,1.204-3.112,1.906-4.568
					c-1.114,1.986-1.987,3.91-2.598,5.811c-0.618,1.918-0.923,3.739-0.564,5.633c0.398,3.818,0.796,7.597,1.189,12.005
					c-0.087-0.001-0.205,0.095-0.322-0.636c0.653,5.624,1.38,12.199,1.976,18.598c-0.565-2.015-1.148-4.28-1.731-6.541
					c-0.579-3.219-0.994-8.07-1.561-12.917l-0.753-7.817l-0.368-3.924c-0.089-1.435,0.229-2.876,0.595-4.154
					c0.773-2.596,1.917-4.979,3.214-7.261c1.312-2.273,2.799-4.437,4.527-6.437c0.866-0.997,1.794-1.953,2.826-2.83
					c1.036-0.871,2.171-1.682,3.546-2.238c0.341-0.141,0.708-0.252,1.084-0.343c0.188-0.042,0.381-0.082,0.61-0.109
					c0.258-0.034,0.302-0.03,0.556-0.048l1.911-0.089l3.826-0.181l15.42-0.798l55.051-2.031
					C235.042,119.331,218.517,120.402,202.445,121.568z M214.55,218.17l5.112-0.098l-0.768-0.124
					C217.321,217.912,215.762,218.017,214.55,218.17z M252.534,219.197c-11.145-0.518-25.83-0.512-40.021-0.605
					c-0.082,0.039-0.132,0.078-0.133,0.112C224.277,219.119,238.922,219.089,252.534,219.197z M296.999,223.367l-0.267-0.057
					c0.008,0.024,0.023,0.048,0.023,0.07L296.999,223.367z M437.604,152.039c0.528,6.475,0.887,13.767,1.198,21.465l0.447,11.801
					l0.226,6.032l0.119,3.031c0.037,1.018,0.07,2.02,0.184,3.02c0.146,2.641,0.272,5.355-0.196,8.443
					c-0.24,1.538-0.647,3.174-1.375,4.857c-0.732,1.675-1.809,3.402-3.315,4.916c-1.855,1.926-3.9,3.178-5.783,4.064
					c-1.896,0.884-3.672,1.432-5.348,1.852c-1.676,0.415-3.265,0.692-4.809,0.931c-1.522,0.238-3.086,0.428-4.307,0.685
					c1.238-0.122,2.91-0.17,4.602-0.277c-1.933,0.211-3.664,0.368-4.816,0.627l-1.132,0.202c-0.376,0.075-0.765,0.083-1.143,0.129
					l-1.735-0.007l-1.379,0.008l-2.688,0.03l-5.28,0.072c-3.551,0.034-7.261,0.016-11.716-0.207
					c-0.003,0.152-1.632,0.417-3.257,0.379c-8.118-0.037-16.242-0.527-22.742-0.376c-8.123-0.037-16.233-0.226-22.742-0.074
					c-1.629-0.038-4.878,0.341-8.137,0.417l-11.892-0.135l0.483,0.132c3.227,0.081,6.502,0.142,9.775,0.116
					c9.76-0.077,21.128-0.116,30.871-0.041c8.665,0.093,17.125,0.144,25.451,0.167l25.007,0.009c0.394-0.05,0.795-0.066,1.18-0.144
					l1.168-0.211c1.029-0.248,2.525-0.433,4.073-0.654c1.558-0.221,3.216-0.479,4.92-0.864c3.379-0.766,7.118-2.06,10.35-4.702
					c2.592-2.097,4.528-5.072,5.527-8.041c1.035-2.983,1.321-5.925,1.345-8.699c-0.004-1.046-0.048-2.09-0.135-3.126
					c-0.039-0.544-0.091-0.993-0.142-1.445c-0.051-0.458-0.058-0.94-0.089-1.413l-0.281-5.765l-0.512-11.515
					c-0.344-7.49-0.73-14.368-1.373-19.207C438.02,156.899,437.944,153.656,437.604,152.039z M430.632,134.089
					c1.043,17.135,1.778,36.119,2.031,52.314l0.18,5.89l0.136,3.55c0.012,0.611,0.076,1.257,0.139,1.897
					c0.045,0.584,0.082,1.174,0.104,1.768c0.084,2.368-0.104,4.791-0.755,6.931c-0.646,2.145-1.775,3.953-3.321,5.299
					c-1.536,1.357-3.441,2.272-5.247,2.914c-1.811,0.643-3.513,1.048-4.836,1.395c-2.673,0.67-3.785,1.18-2.102,1.449
					c1.935-0.666,5.109-1.191,8.568-2.618c1.712-0.726,3.458-1.731,4.887-3.194c1.435-1.451,2.513-3.381,3.112-5.664
					c0.609-2.279,0.782-4.864,0.637-7.551l-0.151-2.117l-0.069-2.184l-0.133-4.425l-0.468-17.879
					C432.758,148.417,432.232,128.393,430.632,134.089z M313.53,124.208c6.789-0.5,13.356-0.967,21.082-1.265L313.53,124.208z
					 M382.444,115.395c-21.057,1.868-43.771,2.896-64.848,4.311c-16.221,1.078-34.099,1.01-48.664,2.63l0.018,0.453l1.61-0.213
					c5.704-0.131,10.303-0.066,15.084-0.124l-0.833,0.071l1.441-0.079c3.191-0.044,6.498-0.15,10.306-0.416l5.304-0.414
					c20.278-1.049,41.207-2.089,59.548-3.745c11.344-0.89,21.051-2.021,32.398-2.911
					C390.571,115.081,385.688,115.118,382.444,115.395z"/>
				<path fill="#202020" d="M232.415,120.769l-21.186,1.33l-16.393,1.237l-9.953,0.639l-5.107,0.293l-2.582,0.141l-0.324,0.018
					c0.014,0.003-0.191,0.017-0.256,0.024l-0.336,0.075c-0.278,0.072-0.575,0.184-0.877,0.329c-1.223,0.586-2.465,1.618-3.595,2.764
					c-1.138,1.156-2.193,2.461-3.172,3.831c-1.942,2.746-3.643,5.793-4.769,8.913c-0.275,0.777-0.507,1.559-0.664,2.313
					c-0.144,0.718-0.238,1.403-0.155,2.111l0.481,5.339l0.975,10.781l2.003,21.267c0.513,0.786,0.973,0.844,1.354-0.202
					c-0.526-7.587-1.134-15.166-1.786-22.741l-1.006-11.36l-0.259-2.84l-0.046-0.509c-0.015-0.143-0.009-0.286-0.007-0.429
					c0.011-0.286,0.048-0.571,0.099-0.854c0.248-1.341,0.828-2.956,1.525-4.485c1.417-3.09,3.33-6.135,5.52-8.682
					c1.089-1.259,2.29-2.414,3.42-3.15c0.554-0.368,1.094-0.609,1.4-0.675c0.018-0.002,0.111-0.027,0.064-0.016
					c-0.018,0.004-0.084-0.004,0.093-0.014l0.089-0.007l0.044-0.004l0.022-0.001c-0.044,0.002,0.13-0.008-0.093,0.004l0.178-0.008
					l0.356-0.015l1.424-0.062c7.594-0.325,15.189-0.621,22.786-0.85l0.711-0.076c12.958-1.406,34.068-1.917,50.27-3.297
					c16.195-1.53,32.418-2.458,48.611-3.838C277.82,118.968,255.538,120.152,232.415,120.769z"/>
				<path fill="#202020" d="M423.137,108.48c-3.478-0.744-6.879-1.239-10.526-1.458c-0.921-0.051-1.856-0.082-2.889-0.066
					l-0.809,0.024l-0.601,0.032l-1.202,0.063l-4.819,0.258c-17.911,1.048-33.805,2.113-50.056,3.285l36.038-1.515
					c6.054-0.314,11.64-0.76,17.068-1.253l2.029-0.187l1.01-0.095l0.504-0.048l0.655-0.044c1.716-0.09,3.209-0.06,4.716,0.006
					C417.244,107.627,420.144,107.945,423.137,108.48z"/>
				<path fill="#202020" d="M339.057,111.583l13.179-0.965l-52.77,2.526c-28.791,1.725-57.602,3.369-86.385,5.274l-9.744,0.579
					c53.632-1.895,107.097-3.781,152.536-7.438l2.646-0.212c-21.655,0.937-43.071,1.981-64.426,3.042
					C309.087,113.491,324.077,112.573,339.057,111.583z"/>
				<polygon fill="#202020" points="239.198,120.328 234.519,120.491 229.144,120.853 232.415,120.769 				"/>
				<path fill="#202020" d="M285.645,122.451l0.608-0.008l15.609-0.83c7.249-0.555,14.829-1.079,22.572-1.555
					C310.396,120.771,296.506,121.484,285.645,122.451z"/>
				<polygon fill="#202020" points="330.77,124.34 337.264,124.09 340.207,123.703 335.62,123.851 				"/>
				<path fill="#202020" d="M424.35,121.336c-2.994-0.907-6.288-1.513-9.503-1.867c-1.6-0.173-3.226-0.284-4.649-0.271l-0.507,0.013
					l-0.516,0.028l-1.315,0.079l-2.624,0.157l-20.718,1.253l-40.435,2.481l-3.876,0.494c17.941-0.599,35.775-1.479,52.192-2.945
					c3.236-0.276,8.097-0.918,11.338-1.042l5.699-0.288c1.324-0.063,3.115,0.04,4.78,0.206c3.392,0.347,6.834,0.953,9.916,1.852
					c0.768,0.226,1.511,0.471,2.203,0.735l0.694,0.271c0.19,0.08,0.382,0.165,0.568,0.26c0.725,0.373,1.523,0.897,1.759,1.74
					c0.079,0.413,0.086,0.845,0.133,1.277l0.028,0.327l0.035,0.594l0.073,1.373l0.292,5.485l-0.22-5.258l-0.105-2.369l-0.083-1.273
					c-0.094-0.868-0.845-1.477-1.55-1.892c-0.365-0.212-0.746-0.39-1.134-0.543l-0.908-0.353c-0.349-0.128-0.709-0.251-1.076-0.368
					L424.35,121.336z"/>
			</g>
		</g>
	</g>
</g>
<path d="M203.149,153.322h20.196l-0.823,6.673h-7.184v14.436c-0.253,2.239,0.504,3.566,2.269,3.981l-1.624,6.272
	c-2.031,0.059-3.748-0.601-5.149-1.979s-2.124-3.203-2.168-5.472v-15.903l2.869-1.38l-9.053-0.021L203.149,153.322z"/>
<path d="M232.465,152.966c-0.845,7.8-0.96,13.026-0.345,15.681s1.598,4.753,2.947,6.295s4.404,1.913,9.164,1.112l-0.022-22.776
	l6.45,0.378v29.138l-6.45,0.645v-3.67l-1.156,4.026l-1.401,0.312c-4.167,0.073-7.314-0.512-9.442-1.758
	c-2.128-1.245-3.881-3.773-5.26-7.584c-1.379-3.812-1.943-9.313-1.69-16.505l0.378-4.114L232.465,152.966z"/>
<path d="M253.373,153.322h20.196l-0.823,6.673h-7.185v14.436c-0.252,2.239,0.504,3.566,2.269,3.981l-1.623,6.272
	c-2.032,0.059-3.748-0.601-5.149-1.979s-2.124-3.203-2.168-5.472v-15.903l2.869-1.38l-9.053-0.021L253.373,153.322z"/>
<path d="M282,153.255v2.914l1.734-2.914h14.68c1.81,0.504,2.662,3.055,2.559,7.651v20.04c-0.356,1.632-1.743,2.484-4.159,2.559
	h-16.972c-2.521,0.104-3.981-0.993-4.382-3.292v-25.602L282,153.255z M282,159.817v17.127h12.411v-17.127H282z"/>
<path d="M304.554,153.322h19.173c1.349,0.163,2.276,1.031,2.78,2.603l-0.045,8.941c-0.43,2.062-1.053,3.444-1.868,4.148
	s-2.269,1.517-4.359,2.436l1.757,2.803c1.305,2.046,3.151,3.225,5.539,3.536l-0.512,6.851l-3.581-0.667
	c-2.328-0.475-4.79-2.906-7.385-7.296l-1.401-2.669l-3.492,1.646l-0.022,7.94l-6.228,0.044v-5.916l-2.446-5.228l2.401-1.512
	l0.045-9.364l3.047-1.69l-4.804,0.021L304.554,153.322z M311.159,159.949v8.563l6.65-2.624c1.616-0.593,2.425-1.55,2.425-2.869
	v-3.07H311.159z"/>
<path d="M329.977,153.322h12.122l-0.89,6.406h-1.957v17.683h2.491l-0.356,6.206h-12.122l0.601-6.251l2.603,0.022l0.044-16.081
	l2.803-1.579h-5.983L329.977,153.322z"/>
<path d="M356.823,151.097l5.472,2.069l-0.645,2.135h8.808l-0.912,6.584l-4.804,0.022l7.629,20.44l-5.895,2.024l-7.829-20.908
	l-8.741,20.73l-5.983-1.824l8.63-20.552l-6.295-0.022l0.489-6.495h8.319L356.823,151.097z M359.648,173.784l3.403,3.737
	l-6.295,6.316l-3.426-3.692L359.648,173.784z"/>
<path d="M376.041,153.255h6.606l-0.022,15.903l3.781,0.044l-0.646,5.339l-2.958,0.022v1.979l11.878-0.022l-0.689,6.984
	l-20.485-0.045l1-6.873h1.401v-1.979h-2.18l0.578-5.427l1.69-0.022L376.041,153.255z"/>
</svg>
