<?xml version="1.0" encoding="utf-8"?>
<!-- Generator: Adobe Illustrator 15.0.0, SVG Export Plug-In . SVG Version: 6.00 Build 0)  -->
<!DOCTYPE svg PUBLIC "-//W3C//DTD SVG 1.0//EN" "http://www.w3.org/TR/2001/REC-SVG-20010904/DTD/svg10.dtd">
<svg version="1.0" id="Layer_1" xmlns="http://www.w3.org/2000/svg" xmlns:xlink="http://www.w3.org/1999/xlink" x="0px" y="0px"
	 width="381.256px" height="151.861px" viewBox="0 0 381.256 151.861" enable-background="new 0 0 381.256 151.861"
	 xml:space="preserve">
<radialGradient id="SVGID_1_" cx="-124.8047" cy="1028.6321" r="131.9892" gradientTransform="matrix(-0.0351 1.0054 2.9031 0.1014 -2795.2847 100.6779)" gradientUnits="userSpaceOnUse">
	<stop  offset="0" style="stop-color:#FFFFFF;stop-opacity:0.2"/>
	<stop  offset="0.0144" style="stop-color:#F4F4F4;stop-opacity:0.2007"/>
	<stop  offset="0.0883" style="stop-color:#C2C2C2;stop-opacity:0.2045"/>
	<stop  offset="0.1677" style="stop-color:#949494;stop-opacity:0.2085"/>
	<stop  offset="0.2505" style="stop-color:#6C6C6C;stop-opacity:0.2128"/>
	<stop  offset="0.3378" style="stop-color:#4A4A4A;stop-opacity:0.2172"/>
	<stop  offset="0.4307" style="stop-color:#2F2F2F;stop-opacity:0.2219"/>
	<stop  offset="0.5313" style="stop-color:#1A1A1A;stop-opacity:0.2271"/>
	<stop  offset="0.6432" style="stop-color:#0B0B0B;stop-opacity:0.2328"/>
	<stop  offset="0.7759" style="stop-color:#030303;stop-opacity:0.2395"/>
	<stop  offset="0.9818" style="stop-color:#000000;stop-opacity:0.25"/>
</radialGradient>
<path fill="url(#SVGID_1_)" d="M374.081,46.394c0.291-8.323-12.162-28.194-20.604-28.49L52.66,6.323
	c-8.454-0.296-32.532,3.784-32.823,12.108l-2.217,95.114c-2.723,30.551,22.506,26.587,30.63,29.015l283.627-6.576
	c21.479,3.79,36.401-16.924,36.692-25.244L374.081,46.394z"/>
<path fill="#010101" d="M379.683,66.555c-3.408,15.886-7.149,10.639-10.396,16.364l-0.439-8.176
	c2.357-10.66,6.281-26.996,8.945-23.649C378.202,52.158,380.833,59.825,379.683,66.555z"/>
<path fill="#010101" d="M368.356,47.437c-0.065,1.513-0.545,1.734-0.604,3.239l-3.112-4.566L368.356,47.437z"/>
<path fill="#010101" d="M369.724,94.935l-0.305,7.579c-0.538,1.731-0.836-2.6-1.314-2.385l-1.107,4.211l-0.55,2.126
	c-0.228,1.027-0.556,1.935-0.943,2.783c0.351-0.87,0.61-1.744,0.761-2.653c0.039-0.224,0.062-0.465,0.088-0.692l0.004-0.044
	l0.002-0.021c0.002-0.043-0.022,0.352-0.01,0.181v-0.009l0.008-0.055l0.018-0.115l0.033-0.222l0.122-0.854
	c0.14-1.102,0.224-2.051,0.271-2.875c0.096-1.647,0.057-2.791,0.09-3.645C366.954,96.54,367.327,96,369.724,94.935z"/>
<path fill="#010101" d="M240.222,125.726c-9.13-1.138,6.643-2.377,10.191-3.421c7.516-0.006,14.281,1.225,8.382,2.367
	C248.896,124.774,244.97,125.532,240.222,125.726z"/>
<path fill="#010101" d="M328.212,137.153c1.828-0.549,5.803-1.086,9.869-2.317c4.088-1.207,8.075-3.028,11.075-4.932
	c3.028-1.896,5.233-3.836,6.438-5.241c1.202-1.412,1.441-2.28,0.375-2.17c-1.878,0.172-3.647,0.343-6.421,1.671
	c-2.508,2.552-5.66,5.021-10.109,6.974c-4.569,1.403-8.459,1.629-10.905,1.559c-2.483-0.078-3.677-0.37-4.025-0.55
	c-0.698-0.394,1.905-0.461,4.579-1.016c2.717-0.513,5.264-1.566,5.658-2.181c0.213-0.31-0.066-0.482-1.037-0.512
	c-0.968-0.046-2.652,0.094-5.247-0.024c-2.612,0.16-4.483-0.052-5.959-0.193l-0.265-0.026l-0.035,0.004
	c-1.072,0.088-1.941,0.195-2.743,0.351c-10.644,1.331-7.461,1.807-1.097,2.753c-31.229,0.961-19.945-5.217-36.965-4.829
	c-23.283,1.243-8.541,4.563-14.043,5.989c-0.119-3.61-42.912-5.492-77.311-5.007c-32.001,2.19-68.493-0.546-106.773,2.502
	l-34.895-0.313l3.499,0.45c-1.924-0.569-3.309-0.778-4.548-0.982c-1.231-0.188-2.292-0.326-3.282-0.465l-1.374-0.191l-1.034-0.167
	c-0.687-0.116-1.366-0.243-2.037-0.396c-2.68-0.575-5.196-1.577-6.96-3.011c0.224-0.127,0.422-0.271,0.661-0.385
	c-0.399-0.062-0.737-0.06-0.981,0.074c-0.438-0.889-0.896-1.838-1.276-2.851c-0.193-0.503-0.367-1.021-0.529-1.555
	c-0.159-0.53-0.286-1.022-0.478-1.814c-0.343-1.457-0.591-3.08-0.719-4.764c-0.063-0.844-0.1-1.702-0.104-2.566l0.017-1.295
	l0.064-1.382c0.03-7.558,0.276-14.043,3.518-15.146l-0.504-2.492c-0.18-12.337,2.321,0.096,3.784-6.937
	c-0.572-11.419,5.073-26.301-0.176-32.344c0.39-0.913,0.641,0.321,1.031-0.595l-0.717-9.259c-1.286-0.656-2.82-2.563-4.25-1.075
	c0.14-2.14-1.397-4.053-0.859-7.1c0.174-7.695,2.716-0.841,3.894-3.568l-0.181-3.676l-0.041-0.885l-0.05-0.439l-0.093-0.896
	c-0.026-0.601-0.207-1.23-0.036-1.841c0.181-0.606,0.652-1.159,1.264-1.628c1.24-0.939,2.955-1.604,4.756-2.123
	c1.315-0.414,5.026-1.156,7.902-1.45c1.5-0.164,2.945-0.256,3.803-0.238c0.25,0.001,0.501,0.012,0.748,0.028l1.42,0.069l2.988,0.152
	c3.976,0.209,7.922,0.442,11.814,0.697c7.783,0.514,15.356,1.122,22.561,1.844c-0.145,2.958,33.12,3.762,47.11,4.119
	c27.822,3.677,60.363-0.641,81.45,2.658c-12.625,1.409-34.205-1.494-36.701,0.484l5.729,1.17c12.981,1.148,33.634,3.365,41.44,1.474
	c-7.16-1.462-7.602-2.547-9.963-3.522c5.803-0.313,6.813-1.101,14.055-1.122c10.607,0.174,22.164,1.03,22.101,2.511
	c-5.821,0.309-12.063-0.464-17.368-0.55c-2.019,1.583,16.781,2.425,23.021,3.195c-10.907-4.209,18.57-4.677-11.195-8.251
	l16.426-0.139c12.688-2.889-52.841-5.288-24.238-7.921c2.938-0.898-0.86-2.169,8.826-2.684c-5.229-1.564-15.854-1.737-20.224-1.136
	c-7.112-2.938-40.932-1.866-41.746-5.511c-27.613,1.839-40.362-3.745-65.39-5.358c-31.771-1.99-11.188,1.703-20.429,3.302
	C88.92,0.429,72.921,1.651,63.242,2.166c-4.353-0.138-7.777-0.597-9.518-1.063c-1.216-0.248-1.81-0.46-1.543-0.66
	c0.175-0.21,1.712-0.342,2.962-0.424l-0.761-0.066L53.475-0.12C52.7-0.173,51.922-0.211,51.14-0.229
	c-1.56-0.036-3.184-0.003-4.487,0.046C43.94-0.079,41.44,0.127,38.95,0.408c-1.244,0.144-2.476,0.306-3.707,0.489l-1.847,0.295
	c-0.531,0.084-1.481,0.27-2.189,0.41c-3.037,0.609-6.019,1.368-8.851,2.3c-5.646,1.86-10.748,4.458-13.969,7.977
	c-0.789,0.878-1.469,1.802-1.966,2.759c-0.253,0.479-0.48,0.956-0.624,1.452l-0.228,1.551l-0.917,6.272
	c-0.096,0.621-0.101,0.796-0.141,1.159L4.41,26.044l-0.201,1.942L3.82,31.877l-0.729,7.781L1.813,55.232
	C1.04,65.617,0.411,76.006-0.112,86.38l-0.712,15.545l-0.156,3.88l-0.039,0.965l-0.087,0.864c-0.064,0.762-0.114,1.527-0.143,2.308
	c-0.113,3.113,0.025,6.367,0.805,9.917c0.058,0.8,0.158,1.604,0.316,2.444l0.15,0.685l0.204,0.774
	c0.145,0.516,0.305,1.028,0.487,1.541c0.722,2.041,1.748,4.049,3.099,5.957c2.684,3.817,6.727,7.231,11.792,9.835
	c5.05,2.623,11.053,4.397,17.324,5.419c1.568,0.26,3.152,0.479,4.741,0.665l3.064,0.34c0.765,0.082,1.349,0.152,1.475,0.172
	l0.019,0.003l0,0l0,0c0-0.003-0.001,0.007,0.002-0.006l0.048-0.145l0.697-2.041c0.426-1.207,0.833-2.238,1.204-3.11
	c0.74-1.73,1.383-2.919,1.983-3.808l-6.854,10.145l10.999-0.194c11.559-0.202,23.137-0.086,35.163,1.612l-4.388-0.623
	c-0.666-0.408,2.645-0.651,5.249-0.888c-4.376-0.687-8.6-1.383-12.648-2.09c7.738,0.146,15.549,0.229,23.193,0.018
	c8.214-3.041,43.896-0.87,54.472-4.006c42.75,0.081,24.984,1.701,68.134,2.066c22.896-1.528,50.133-3.529,77.435-3.731
	c9.896-0.096,19.046,1.04,17.476,1.706l9.248-0.326l-6.193-0.458c5.156,0.875,11.244,1.127,16.925,0.493
	c5.708-0.604,10.772-2.005,14.877-3.608c4.129-1.617,7.381-3.439,10.099-5.223c2.715-1.792,4.896-3.565,6.729-5.242
	c4.551-4.929,6.354-8.727,7.426-11.546c1.013-2.813,1.091-4.648,0.856-5.417c-0.562-1.568-2.135,1.367-5.219,5.126
	c-3.117,3.808-7.754,8.782-14.719,13.146c-3.477,2.168-7.619,4.177-12.293,5.563C337.491,136.521,332.333,137.163,328.212,137.153z"
	/>
<path fill="#010101" d="M57.94,21.99c-2.005,1.58,10.976,2.729,15.282,3.606l5.805-0.312c14.482-0.034,15.058-1.908,5.94-3.265
	C81.535,23.308,66.124,22.658,57.94,21.99z"/>
<path fill="#010101" d="M42.918,66.165l-2.573-1.327l0.569,11.426C42.593,76.025,42.63,70.477,42.918,66.165z"/>
<path fill="#010101" d="M316.321,20.365c-16.854-0.942-23.527-2.801-41.385-2.954l3.233,3.148
	c17.272,2.023,35.481,4.738,56.211,5.479C348.499,23.436,309.435,22.945,316.321,20.365z"/>
<path fill="#010101" d="M279.957,13.455c15.483-0.827,32.206,0.216,48.343,1.015c4.031,0.199,8.029,0.384,11.961,0.521l3.086,0.102
	c2.959,0.169,4.848,0.89,6.311,1.487c2.82,1.256,4.402,2.465,5.943,3.624c2.961,2.32,5.174,4.525,7.364,6.673l6.271,6.254
	c1.945-1.758,1.645-4.928-0.846-8.891c-1.285-1.994-3.031-4.163-5.925-6.649c-1.512-1.253-3.198-2.592-6.207-4.182
	c-0.793-0.405-1.636-0.813-2.729-1.246c-1.053-0.42-2.334-0.869-3.953-1.269c-1.6-0.392-3.578-0.75-5.958-0.844
	c-0.39-0.017-0.31-0.011-0.396-0.011l-0.17,0.001l-0.342,0.002l-0.684,0.007c-14.611,0.133-30.813,0.815-40.629-0.688
	c-13.063,0.328-20.81,0.743-37.235,0.882C252.054,11.259,271.782,12.789,279.957,13.455z"/>
<path fill="#010101" d="M366.824,39.516c0.788,2.269,1.95,4.983,2.122,6.705c0.414,0.742,0.949,0.331,1.299-1.163
	c0.335-1.375,0.305-3.13,0.339-4.225c-0.315-1.253-1.729-3.281-2.854-4.091C366.582,35.932,365.983,36.217,366.824,39.516z"/>
</svg>
