<?xml version="1.0" encoding="utf-8"?>
<!-- Generator: Adobe Illustrator 15.0.0, SVG Export Plug-In . SVG Version: 6.00 Build 0)  -->
<!DOCTYPE svg PUBLIC "-//W3C//DTD SVG 1.0//EN" "http://www.w3.org/TR/2001/REC-SVG-20010904/DTD/svg10.dtd">
<svg version="1.0" id="Layer_1" xmlns="http://www.w3.org/2000/svg" xmlns:xlink="http://www.w3.org/1999/xlink" x="0px" y="0px"
	 width="371.561px" height="153.017px" viewBox="3.967 -0.919 371.561 153.017"
	 enable-background="new 3.967 -0.919 371.561 153.017" xml:space="preserve">
<g>
	
		<radialGradient id="SVGID_1_" cx="-142.624" cy="-735.2937" r="131.9888" gradientTransform="matrix(-0.0351 1.0054 -2.9031 -0.1014 -1949.074 147.8478)" gradientUnits="userSpaceOnUse">
		<stop  offset="0" style="stop-color:#FFFFFF;stop-opacity:0.2"/>
		<stop  offset="0.0144" style="stop-color:#F4F4F4;stop-opacity:0.2007"/>
		<stop  offset="0.0883" style="stop-color:#C2C2C2;stop-opacity:0.2045"/>
		<stop  offset="0.1677" style="stop-color:#949494;stop-opacity:0.2085"/>
		<stop  offset="0.2505" style="stop-color:#6C6C6C;stop-opacity:0.2128"/>
		<stop  offset="0.3378" style="stop-color:#4A4A4A;stop-opacity:0.2172"/>
		<stop  offset="0.4307" style="stop-color:#2F2F2F;stop-opacity:0.2219"/>
		<stop  offset="0.5313" style="stop-color:#1A1A1A;stop-opacity:0.2271"/>
		<stop  offset="0.6432" style="stop-color:#0B0B0B;stop-opacity:0.2328"/>
		<stop  offset="0.7759" style="stop-color:#030303;stop-opacity:0.2395"/>
		<stop  offset="0.9818" style="stop-color:#000000;stop-opacity:0.25"/>
	</radialGradient>
	<path fill="url(#SVGID_1_)" d="M369.331,45.905c0.291-8.323-12.162-28.194-20.604-28.49L47.91,5.833
		c-8.454-0.296-32.532,3.784-32.823,12.108l-2.217,95.113c-2.723,30.552,22.506,26.587,30.63,29.016l283.627-6.576
		c21.479,3.79,36.401-16.924,36.692-25.244L369.331,45.905z"/>
	<g>
		<g>
			<g>
				<path fill="#010101" d="M374.842,74.654c-2.825,22.958-3.989,15.591-5.877,23.959l0.508-11.721
					c1.926-15.408,5.011-39.039,5.874-34.353C375.433,54.05,375.911,64.943,374.842,74.654z"/>
				<path fill="#010101" d="M371.593,47.71c-0.157,2.172-0.382,2.514-0.536,4.675l-0.952-6.415L371.593,47.71z"/>
				<path fill="#010101" d="M366.876,117.15c-1.702,4.002-4.017,7.384-6.707,10.479c-1.023,0.993-0.393,0.166,0.389-0.915
					c0.789-1.077,1.671-2.456,1.476-2.359c-2.917,3.5-6.327,6.509-10.159,8.904c3.852-2.511,6.25-4.989,7.946-6.954
					c1.687-1.987,2.665-3.514,3.392-4.659C364.64,119.316,365.135,118.615,366.876,117.15z"/>
				<path fill="#010101" d="M226.874,134.586c-8.288-0.694,6.284-1.642,9.622-2.368c6.898-0.058,13.011,0.719,7.507,1.528
					C234.912,133.884,231.249,134.422,226.874,134.586z"/>
				<g>
					<path fill="#010101" d="M306.982,141.24c2.055-0.78,9.062-1.093,15.251-1.374l4.249-0.208c0.208-0.02,0.413-0.038,0.643,0.002
						l0.778,0.075c0.674,0.066,1.3,0.092,1.858,0.107c2.244,0.021,3.411-0.265,2.734-0.586c-0.58-0.288-1.146-0.594-1.943-0.902
						c-0.398-0.151-0.854-0.313-1.396-0.482c-0.513-0.167-1.246-0.361-1.796-0.547c-0.448-0.074-0.831,0.041-1.286,0.062
						l-1.505,0.132l-3.008,0.264l-6.017,0.526c-30.145,0.12,12.488-2.075-7.784-2.924c-4.369,0.161-6.551,0.243-8.386,0.513
						c-9.872,0.971-6.99,1.266-1.22,1.854c-28.739,0.872-17.896-3.353-33.55-2.967c-21.465,1.004-8.194,3.12-13.355,4.117
						c0.173-2.419-38.955-3.367-70.56-2.789c-29.542,1.705-62.819,0.136-98.189,2.462l-38.135,0.067
						c-0.196-0.014-0.399,0.028-0.588-0.03c-0.189-0.06-0.379-0.11-0.571-0.157c-2.692-0.582-5.121-0.773-7.463-1.119
						c-2.339-0.326-4.591-0.725-6.696-1.332c0.039-0.121,0.034-0.25,0.1-0.363c-0.438-0.015-0.721,0.017-0.761,0.146
						c-2.978-1.337-6.453-3.219-8.558-6.588c-1.078-1.673-1.866-3.733-2.328-6.023c-0.464-2.287-0.61-4.771-0.54-7.225
						c0.019-0.613,0.05-1.226,0.092-1.834c0.074-0.758,0.074-1.4,0.087-2.044l0.094-3.768c0.072-2.427,0.167-4.668,0.3-6.624
						c0.266-3.912,0.686-6.687,1.39-7.532l-0.156-3.567c0.217-17.75,0.991,0.047,1.784-10.129
						c0.028-16.414,2.795-38.049,0.694-46.547c0.189-1.327,0.267,0.439,0.456-0.894L21.66,26.36l-0.021-3.325l-0.011-1.663
						c0-0.353-0.008-0.36-0.013-0.493l-0.017-0.333c-0.27-0.212-0.575-0.67-0.867-1.015c-0.271-0.333-0.606-0.558-0.933-0.02
						c0.004-0.872,0.287-1.709,0.849-2.459c0.28-0.379,0.637-0.739,1.082-1.071c0.222-0.166,0.467-0.325,0.735-0.47
						c0.135-0.074,0.273-0.146,0.406-0.206c0.17-0.085,0.4-0.182,0.608-0.271c2.159-1.002,3.517-1.326,4.148-1.427
						c0.648-0.091,0.648,0.081,0.46,0.321c-0.378,0.487-1.446,1.276,0.296,0.947c2.93-1.023,6.155-1.829,9.447-2.44
						c1.647-0.304,3.318-0.557,4.978-0.745c1.643-0.185,3.345-0.311,4.763-0.298c7.225,0.189,14.715,0.438,22.072,0.736
						c14.755,0.599,29.335,1.419,42.567,2.524c-0.09,1.982,30.418,2.84,43.25,3.215c25.557,2.733,55.329,0.148,74.708,2.563
						c-11.554,0.826-31.379-1.33-33.64-0.027l5.27,0.839c11.918,0.896,30.884,2.58,38.012,1.386
						c-6.585-1.049-7.004-1.78-9.186-2.458c5.318-0.153,6.231-0.672,12.87-0.617c9.728,0.218,20.336,0.904,20.298,1.896
						c-5.334,0.15-11.064-0.428-15.931-0.535c-1.827,1.042,15.42,1.786,21.151,2.364c-10.061-2.928,16.958-2.959-10.382-5.642
						l15.056,0.063c11.593-1.815-48.52-4.053-22.334-5.545c2.681-0.573-0.821-1.462,8.053-1.715
						c-4.818-1.1-14.563-1.317-18.559-0.955c-6.564-2.039-37.553-1.645-38.354-4.098c-25.289,0.969-37.06-2.898-60.029-4.221
						c-29.158-1.639-10.232,1.035-18.681,2.02c-14.563-1.315-29.211-0.65-38.079-0.397c-7.955-0.267-12.78-1.366-7.457-1.517
						L55.859-0.34l-5.607-0.382l-1.403-0.094l-0.704-0.047l-0.899-0.038c-1.153-0.033-2.224-0.017-3.278,0.023
						c-4.189,0.173-8.152,0.666-12.177,1.409c-4.021,0.773-8.024,1.743-12.247,3.477c-0.528,0.218-1.063,0.458-1.602,0.712
						l-0.97,0.484c-0.347,0.185-0.695,0.37-1.035,0.567c-1.364,0.785-2.662,1.685-3.815,2.732c-1.157,1.042-2.17,2.234-2.954,3.573
						c-0.758,1.349-1.372,2.806-1.463,4.368l-0.336,4.558l-0.118,2.81L7.018,29.43L6.572,40.67
						C5.994,55.656,5.479,70.641,5.008,85.599l-0.673,22.415l-0.08,2.798l-0.04,1.398c-0.005,0.583-0.053,0.621-0.089,1.279
						c-0.16,2.169-0.215,4.398-0.093,6.706c0.251,4.576,1.174,9.642,3.863,14.524c1.71,3.464,4.423,6.655,7.528,8.926
						c3.104,2.299,6.448,3.743,9.578,4.693c3.143,0.954,6.134,1.447,8.869,1.803c2.711,0.354,5.282,0.551,6.803,0.88l1.572,0.223
						l1.574,0.196l10.181-0.226c3.186-0.051,6.374-0.074,9.571-0.049c6.395,0.052,12.829,0.301,19.369,0.932l-3.979-0.386
						c-0.578-0.269,2.478-0.457,4.886-0.634c-3.963-0.428-7.786-0.865-11.444-1.31c7.091,0.043,14.252,0.041,21.284-0.157
						c7.777-2.1,40.354-0.906,50.307-3.086c39.225-0.26,22.796,0.957,62.369,0.886c21.135-1.191,46.285-2.734,71.36-3.069
						c9.086-0.139,17.396,0.556,15.903,1.016c5.455-0.205,12.089-0.403,18.77-0.577l9.914-0.242l4.162-0.091
						c0.042-0.011,0.225,0.031,0.333,0.046l1.262,0.164c0.951,0.104,1.89,0.178,2.811,0.215c3.943,0.024,7.351-0.568,10.139-1.355
						c2.797-0.79,4.996-1.762,6.724-2.652c3.439-1.822,5.07-3.252,5.669-3.875c0.585-0.645,0.105-0.552-1.161,0.031
						c-1.273,0.572-3.366,1.617-6.172,2.605c-2.797,0.984-6.333,1.896-10.239,2.146c-1.947,0.139-3.977,0.1-6.007-0.098
						c-0.507-0.054-1.015-0.114-1.521-0.186c-0.486-0.075-1.115-0.167-1.244-0.208c-0.258-0.069-0.468-0.083-0.668-0.084
						l-1.161-0.013C318.332,141.142,311.524,141.17,306.982,141.24z"/>
					<path fill="#010101" d="M81.137,16.034c-1.814,1.042,10.105,1.937,14.063,2.566l5.317-0.154
						c13.277,0.117,13.776-1.136,5.396-2.133C102.789,17.145,88.652,16.562,81.137,16.034z"/>
					<path fill="#010101" d="M23.891,54.854l-1.069-1.813l-0.028,16.425C23.519,69.058,23.666,61.072,23.891,54.854z"/>
					<path fill="#010101" d="M317.99,17.422c-15.465-0.794-21.609-2.104-37.981-2.379l3.008,2.143
						c15.866,1.524,32.598,3.519,51.612,4.213C347.537,19.791,311.716,19.086,317.99,17.422z"/>
					<path fill="#010101" d="M284.554,12.439c14.184-0.406,29.532,0.455,44.336,1.145l10.975,0.463l5.36,0.166l2.64,0.059
						l0.655,0.012l0.327,0.005l0.493,0.026c0.662,0.054,1.288,0.171,1.873,0.328c2.322,0.661,4.062,1.775,5.631,2.903
						c1.559,1.146,2.922,2.371,4.195,3.614c2.534,2.494,4.709,5.061,6.724,7.614c0.043-1.071-0.372-2.579-1.265-4.389
						c-0.898-1.809-2.252-3.92-4.245-6.166c-0.999-1.122-2.168-2.277-3.611-3.425c-1.462-1.134-3.172-2.313-5.665-3.208
						c-0.645-0.213-1.308-0.413-2.074-0.547c-0.368-0.073-0.778-0.122-1.181-0.163l-0.629-0.04l-0.344-0.01l-2.393-0.038
						l-4.941-0.039c-13.395-0.05-28.24,0.251-37.259-0.851c-11.974,0.094-19.07,0.298-34.127,0.232
						C258.942,10.698,277.05,11.913,284.554,12.439z"/>
					<path fill="#010101" d="M369.459,36.902c0.614,1.51,1.257,3.158,1.725,4.752c0.477,1.585,0.749,3.153,0.761,4.342
						c0.08,0.554,0.175,0.611,0.278,0.344c0.102-0.178,0.236-1.089,0.229-2.015c0.013-1.907-0.486-4.25-0.834-5.686
						c-0.527-1.654-1.987-4.283-2.887-5.335c-0.442-0.535-0.721-0.699-0.636-0.212C368.171,33.586,368.635,34.713,369.459,36.902z"
						/>
				</g>
			</g>
		</g>
	</g>
</g>
<path d="M64.888,61.719c3.944,0.934,6.035,3.863,6.272,8.786h-5.895c-0.06-1.557-1.061-2.261-3.003-2.113h-7.919
	c-1.631,3.53-2.488,6.199-2.569,8.008c-0.082,1.809,0.386,3.511,1.401,5.104c1.016,1.595,2.121,2.729,3.314,3.403
	c1.194,0.675,2.836,0.909,4.927,0.701s4.026-1.558,5.806-4.049l3.981,4.961c-2.313,2.239-4.189,3.733-5.627,4.481
	c-1.438,0.749-3.34,1.139-5.706,1.168c-2.366,0.03-4.527-0.43-6.484-1.379s-3.752-2.71-5.383-5.283
	c-1.632-2.572-2.358-5.505-2.18-8.798c0.178-3.292,0.608-5.405,1.29-6.339l4.427-1.98h-5.294l0.356-2.113l0.511-2.024l0.979-2.536
	H64.888z"/>
<path d="M74.542,61.652h19.174c1.349,0.163,2.276,1.031,2.78,2.603l-0.044,8.942c-0.43,2.062-1.053,3.445-1.868,4.149
	c-0.816,0.704-2.269,1.516-4.36,2.436l1.757,2.803c1.305,2.047,3.151,3.226,5.539,3.537l-0.512,6.851l-3.581-0.667
	c-2.329-0.475-4.791-2.906-7.385-7.296l-1.401-2.67l-3.492,1.646l-0.022,7.941l-6.229,0.044v-5.917l-2.447-5.227l2.402-1.514
	l0.044-9.364l3.048-1.69l-4.805,0.022L74.542,61.652z M81.148,68.281v8.563l6.651-2.625c1.616-0.593,2.425-1.549,2.425-2.87v-3.069
	H81.148z"/>
<path d="M100.434,61.607h21.421l-1.779,6.718l-10.811,0.044v3.314h11.856l-1.068,6.05l-10.944-0.022
	c-0.223,3.204-0.026,5.321,0.589,6.352c0.615,1.03,1.642,1.554,3.081,1.568h8.142l-1.09,6.295
	c-6.54,0.147-10.333-0.056-11.378-0.612c-1.045-0.556-2.136-1.475-3.27-2.758c-1.134-1.282-1.85-3.17-2.146-5.661v-5.184
	l-3.67,0.022l0.912-6.094l3.003,0.022v-3.47l-3.915,0.022L100.434,61.607z"/>
<path d="M135.913,59.427l5.472,2.069l-0.645,2.135h8.809l-0.912,6.584l-4.805,0.022l7.63,20.442l-5.895,2.024l-7.83-20.91
	l-8.742,20.732l-5.983-1.824l8.63-20.554l-6.295-0.022l0.489-6.496h8.319L135.913,59.427z M138.738,82.116l3.403,3.736l-6.295,6.317
	l-3.426-3.692L138.738,82.116z"/>
<path d="M153.308,61.652h20.198l-0.823,6.673h-7.185v14.436c-0.252,2.239,0.504,3.567,2.269,3.982l-1.624,6.272
	c-2.032,0.059-3.748-0.601-5.15-1.979c-1.401-1.38-2.124-3.203-2.168-5.473V69.659l2.87-1.379l-9.054-0.022L153.308,61.652z"/>
<path d="M176.687,61.607h21.421l-1.779,6.718l-10.811,0.044v3.314h11.856l-1.067,6.05l-10.944-0.022
	c-0.223,3.204-0.026,5.321,0.589,6.352c0.615,1.03,1.642,1.554,3.081,1.568h8.142l-1.09,6.295
	c-6.54,0.147-10.333-0.056-11.378-0.612c-1.045-0.556-2.136-1.475-3.27-2.758c-1.134-1.282-1.85-3.17-2.146-5.661v-5.184
	l-3.67,0.022l0.912-6.094l3.003,0.022v-3.47l-3.915,0.022L176.687,61.607z"/>
<path d="M214.991,61.585h6.606l-0.021,15.905l3.781,0.044l-0.646,5.339l-2.958,0.022v1.979l11.878-0.022l-0.689,6.985l-20.486-0.045
	l1.001-6.873h1.401v-1.98h-2.181l0.579-5.428l1.69-0.021L214.991,61.585z"/>
<path d="M242.24,61.585v2.914l1.735-2.914h14.681c1.81,0.504,2.662,3.055,2.559,7.652v20.042c-0.356,1.632-1.743,2.484-4.16,2.559
	h-16.972c-2.521,0.104-3.982-0.994-4.383-3.292V62.942L242.24,61.585z M242.24,68.147v17.128h12.412V68.147H242.24z"/>
<path d="M264.619,61.674h13.88c2.98,0.164,4.79,0.868,5.428,2.113s0.896,2.581,0.778,4.004c-0.119,1.424-1.179,3.233-3.181,5.428
	c3.114-0.119,4.849,0.994,5.205,3.336v9.698c-0.163,1.735-0.73,3.081-1.702,4.038c-0.971,0.956-2.154,1.598-3.548,1.924
	c-3.263,0.771-6.644,0.43-10.143-1.023l2.224-5.583c3.144,0.993,5.105,1.234,5.884,0.723s1.094-3.073,0.945-7.686l-8.408,0.045
	v5.472c-0.786,5.68-3.47,8.253-8.053,7.719v-5.628c1.38,0.016,1.958-1.156,1.735-3.515v-3.848h-1.779l0.022-5.672l2.269,0.044
	v-5.272h-2.357L264.619,61.674z M271.981,67.991v4.983l2.869-0.623c2.017-1.082,2.937-2.536,2.759-4.36H271.981z"/>
<path d="M290.199,61.674h13.88c2.98,0.164,4.79,0.868,5.428,2.113s0.896,2.581,0.778,4.004c-0.119,1.424-1.179,3.233-3.181,5.428
	c3.114-0.119,4.849,0.994,5.205,3.336v9.698c-0.163,1.735-0.73,3.081-1.702,4.038c-0.971,0.956-2.154,1.598-3.548,1.924
	c-3.263,0.771-6.644,0.43-10.143-1.023l2.224-5.583c3.144,0.993,5.105,1.234,5.884,0.723s1.094-3.073,0.945-7.686l-8.408,0.045
	v5.472c-0.786,5.68-3.47,8.253-8.053,7.719v-5.628c1.38,0.016,1.958-1.156,1.735-3.515v-3.848h-1.779l0.022-5.672l2.269,0.044
	v-5.272h-2.357L290.199,61.674z M297.562,67.991v4.983l2.869-0.623c2.017-1.082,2.937-2.536,2.759-4.36H297.562z"/>
<path d="M318.427,61.719l8.453,16.572c1.542-1.558,2.613-3.637,3.214-6.24s0.76-5.75,0.479-9.442l6.184,0.245
	c-0.074,7.86-0.916,13.35-2.524,16.472c-1.609,3.122-3.589,5.925-5.939,8.408c-2.351,2.484-5.18,4.778-8.486,6.885l-2.646-6.272
	l5.717-4.672L313.6,65.811L318.427,61.719z"/>
</svg>
