<?xml version="1.0" encoding="utf-8"?>
<!-- Generator: Adobe Illustrator 15.0.0, SVG Export Plug-In . SVG Version: 6.00 Build 0)  -->
<!DOCTYPE svg PUBLIC "-//W3C//DTD SVG 1.0//EN" "http://www.w3.org/TR/2001/REC-SVG-20010904/DTD/svg10.dtd">
<svg version="1.0" id="Layer_1" xmlns="http://www.w3.org/2000/svg" xmlns:xlink="http://www.w3.org/1999/xlink" x="0px" y="0px"
	 width="374.866px" height="166.644px" viewBox="3.032 -6.909 374.866 166.644"
	 enable-background="new 3.032 -6.909 374.866 166.644" xml:space="preserve">
<g>
	
		<radialGradient id="SVGID_1_" cx="-137.7031" cy="-737.1282" r="132.0896" gradientTransform="matrix(-0.0351 1.0054 -13752.5957 -480.3531 -10137235 -353859.1563)" gradientUnits="userSpaceOnUse">
		<stop  offset="0" style="stop-color:#FFFFFF;stop-opacity:0.2"/>
		<stop  offset="0.0144" style="stop-color:#F4F4F4;stop-opacity:0.2007"/>
		<stop  offset="0.0883" style="stop-color:#C2C2C2;stop-opacity:0.2045"/>
		<stop  offset="0.1677" style="stop-color:#949494;stop-opacity:0.2085"/>
		<stop  offset="0.2505" style="stop-color:#6C6C6C;stop-opacity:0.2128"/>
		<stop  offset="0.3378" style="stop-color:#4A4A4A;stop-opacity:0.2172"/>
		<stop  offset="0.4307" style="stop-color:#2F2F2F;stop-opacity:0.2219"/>
		<stop  offset="0.5313" style="stop-color:#1A1A1A;stop-opacity:0.2271"/>
		<stop  offset="0.6432" style="stop-color:#0B0B0B;stop-opacity:0.2328"/>
		<stop  offset="0.7759" style="stop-color:#030303;stop-opacity:0.2395"/>
		<stop  offset="0.9818" style="stop-color:#000000;stop-opacity:0.25"/>
	</radialGradient>
	<path fill="url(#SVGID_1_)" d="M374.182,51.028c0.291-8.323-12.162-28.194-20.604-28.49L52.762,10.956
		c-8.454-0.296-32.532,3.784-32.823,12.108l-2.217,95.113c-2.723,30.552,22.506,26.587,30.63,29.016l287.276-0.263
		c21.479,3.79,36.4-16.924,36.691-25.244L374.182,51.028z"/>
	<g>
		<g>
			<path d="M354.631,72.021c0.434,7.823,1.136,15.053,2.238,21.305c-1.179,8.373-1.526,15.732-1.427,22.604l0.057,2.556l0.021,0.632
				l0.011,0.315l0.019,0.05l0.08,0.195c0.112,0.268,0.174,0.557,0.215,0.872c0.021,0.158,0.033,0.323,0.039,0.495
				c-0.034,0.253-0.2,0.724-0.337,1.111c-0.297,0.825-0.699,1.707-1.164,2.584c-1.887,3.523-4.798,6.877-8.397,8.665
				c-1.806,0.896-3.788,1.415-5.989,1.374c-0.604-0.014-0.929-0.033-2.069-0.2l-1.207-0.188c-0.405-0.049-0.818-0.016-1.229-0.027
				l-2.052-0.018c-2.044-0.033-4.148-0.103-6.323-0.214c-30.919,0.134-52.829,2.102-82.518,0.227
				c-9.659,8.523-57.78-1.392-79.808,4.163c-14.782,1.048-22.797,4.371-11.52,5.771c-20.431,0.354-15.184-3.321-32.254-1.833
				l5.753-2.885c-5.622-0.701-11.843-2.187-19.221-1.66l-8.318,2.929c-9.504-1.513-17.083-1.053-24.719-0.342
				c-3.817,0.356-7.649,0.774-11.743,1.041c-2.046,0.133-4.159,0.229-6.367,0.259c-1.104,0.015-2.233,0.014-3.389-0.007
				l-1.755-0.047l-0.838-0.036l-0.652-0.042l-0.515-0.04c-0.174-0.002-0.344-0.032-0.508-0.111l-0.447-0.153
				c-0.175-0.054-0.242-0.086-0.53-0.155l-1.538-0.361c0.586,0.163,1.143,0.33,1.671,0.503c0.32,0.136,0.572,0.263,0.815,0.396
				c0.202,0.138,0.396,0.182,0.569,0.232l0.457,0.153c1.052,0.385,0.854,0.653-0.049,0.895c-0.158,0.042-0.338,0.083-0.535,0.124
				c-0.198,0.048-0.412,0.089-0.629,0.048c-0.339-0.028-0.63-0.033-1.084-0.056c-0.525-0.035-1.042-0.052-1.547-0.058
				c-1.008-0.011-1.965,0.024-2.786,0.096c-1.635,0.148-2.742,0.437-2.416,1.095c-1.582-0.752-5.518-1.738-8.073-3.024
				c-1.278-0.617-2.158-1.23-2.561-1.643c-0.388-0.415-0.261-0.563,0.638-0.378c-1.602-0.856-3.087-1.871-4.354-3.106
				c-1.272-1.229-2.308-2.666-3.109-4.211c-0.805-1.572-1.365-3.125-1.801-4.989c-0.425-1.816-0.671-3.698-0.774-5.558
				c-0.027-0.465-0.043-0.93-0.051-1.392c-0.009-0.462-0.01-0.901,0.007-1.459l-0.072-2.938c-0.032-1.855-0.01-3.637,0.095-5.333
				c0.21-3.394,0.754-6.449,1.868-9.081l-1.144-6.868c-1.513-11.725,0.937-20.96,1.81-31.687l-1.58-1.525
				c-0.748-7.121-0.259-20.153,1.377-26.303l0.112-1.764l0.083-1.624c0.045-0.993,0.075-1.996,0.09-3.016
				c0.016-1.021,0.018-2.058,0.007-3.117c-0.01-0.528-0.024-1.071,0.125-1.589c0.139-0.517,0.376-1.003,0.67-1.449
				c1.225-1.775,3.1-2.969,5.021-4.053c1.965-1.074,4.026-1.972,6.334-2.833c4.862-1.753,9.988-3.187,15.112-4.006
				c1.281-0.208,2.574-0.294,3.865-0.386l3.835-0.279l7.447-0.495c19.113,2.413,10.958-2.545,28.327-2.955
				c10.959,1.436,30.125-0.13,36.737,2.406c-15.293-0.34-17.582,3.989-33.67,2.439c6.104,1.727-27.32,0.59-13.035,3.296
				c31.139-2.498,69.427,2.332,98.015-0.216c-2.289,4.325,35.236,3.962,47.744,3.841l0.755,1.213
				c10.712,1.033,18.646,1.607,35.755,0.792c20.416,0.452,40.57,0.5,57.688,3.667c6.313,1.036,12.946,1.582,19.518,1.777
				c3.286,0.098,6.556,0.108,9.762,0.048c0.266-0.002,0.218-0.008,0.315-0.017c0.074,0.001,0.149-0.006,0.24,0.004
				c0.174,0.007,0.383,0.042,0.608,0.098c0.455,0.112,0.979,0.305,1.517,0.57c1.081,0.526,2.207,1.275,3.282,2.102
				c2.164,1.665,4.163,3.63,5.969,5.578c1.806,1.959,3.423,3.934,4.836,5.833c1.406,1.904,2.615,3.731,3.567,5.461
				c0.952,1.733,1.665,3.358,1.991,4.966c0.282-2.274-0.08-4.363-0.556-6.364c-0.5-1.995-1.187-3.9-1.991-5.731
				c-1.618-3.659-3.674-7.047-6.119-10.144c-1.228-1.546-2.562-3.016-4.054-4.373c-1.501-1.348-3.14-2.612-5.179-3.553
				c-1.021-0.462-2.165-0.839-3.456-0.963l-0.491-0.029l-0.352-0.009l-0.674-0.012l-1.342-0.025l-5.312-0.105
				c-14.041-0.312-27.065-0.999-38.434-5.033c21.451,2.068,22.974,0.51,39.581-1.111l-8.662-1.784l7.132-0.64
				c-3.566-1.672,5.876-2.658,4.854-4.272L324.761,5.96c13.778,1.899,4.59,3.289,0.49,4.789L311.98,9.658
				c3.065,0.868,11.227,1.843,1.517,2.423c-5.329-0.517-12.475,0.123-18.352-1.203l10.697-2.95
				c-16.327,2.027-28.311-5.004-44.665-2.979l-4.81-3.688L241.035,0.92l1.775-1.153l-18.358-1.206
				c-9.957,0.178-11.492,1.735-13.295,2.892c-7.66-0.17-15.053,0.063-18.125-0.802l8.969-1.791l-8.182-0.978
				c5.59,0.919-6.891,1.042-8.941,1.79c-18.386-1.198-13.016-0.684-24.49-2.927c-11.993,0.928-26.526-2.183-27.313,0.586
				C111.356-5.14,88.15-6.05,67.454-6.909l-9.182,1.39l-4.443-0.492c-0.227-0.032-1.062-0.085-1.572-0.106l-1.601-0.047
				c-1.008-0.014-1.927,0-2.81,0.029c-3.502,0.123-6.504,0.468-9.428,0.943c-2.911,0.482-5.683,1.102-8.467,1.903
				c-4.185,1.177-8.144,2.657-11.762,4.615c-3.61,1.961-6.836,4.39-9.41,7.519c-1.276,1.563-2.415,3.337-3.226,5.249
				c-0.2,0.475-0.387,0.955-0.543,1.428c-0.108,0.222-0.097,0.512-0.122,0.782l-0.059,0.82L4.59,20.436l-0.5,6.81L3.826,30.76
				l-0.068,0.892c-0.012,0.244,0.002,0.363,0.001,0.551l0.017,1.042c0.042,2.797,0.058,5.765,0.036,8.956l-0.779-2.031l1.889,14.016
				c-2.123,19.182,1.803,26.782-1.137,49.048c-0.22,3.001-0.371,5.798-0.458,8.41c-0.044,1.306-0.072,2.565-0.085,3.781
				l-0.009,1.792c-0.003,0.16,0.019,0.129,0.007,0.328l-0.025,0.739c-0.116,2.871,0.011,5.671,0.401,8.377
				c0.399,2.725,1.012,5.217,2.053,8c2.016,5.274,5.083,8.987,8.24,11.404c3.178,2.426,6.422,3.617,9.349,4.161
				c1.09,0.45,2.207,0.863,3.349,1.233c0.566,0.184,1.159,0.365,1.718,0.523l1.592,0.421c2.108,0.525,4.178,0.924,6.176,1.265
				l5.693,0.916c0.879,0.146,1.712,0.297,2.436,0.458c0.357,0.08,0.692,0.163,0.966,0.246c0.039,0.01,0.058,0.021,0.113,0.03
				l0.228,0.03c0.152,0.021,0.312,0.065,0.466,0.098l0.932,0.221c0.664,0.198,1.366,0.224,2.047,0.346l1.395,0.078
				c0.266,0.011,0.372,0.024,0.545,0.037l0.479,0.039l1.898,0.156l3.697,0.292c2.413,0.18,4.714,0.32,6.841,0.364l-6.832,1.313
				l8.712,1.441c15.065-0.66,15.874,0.522,35.503-1.011c26.881,1.526,22.796-4.372,34.218-6.563l25.692,3.539l-0.566-0.786
				c15.183-4.243,11.678-1.795,47.713-2.017l-1.645-2.358c12.119,2.577,17.333-1.096,32.931-0.965
				c7.634-0.132,31.051,3.842,44.484,0.827c13.711,1.156,23.882-0.015,33.563-1.426c4.842-0.706,9.561-1.472,14.539-2.036
				c1.242-0.12,2.502-0.319,3.818-0.334c1.313,0.106,2.577,0.142,3.888,0.112c2.61-0.063,5.298-0.385,8.075-1.064
				c3.445-0.446,6.491-1.817,8.922-3.453c2.448-1.639,4.326-3.522,5.823-5.216c3.003-3.419,4.55-5.989,6.96-6.114
				c-0.445,0.744-0.917,1.471-1.413,2.181c2.106-0.707,4.187-1.55,6.304-2.854c-0.716-0.645-1.456-1.269-2.203-1.862
				c1.216-1.982,2.321-4.479,2.401-7.238l0.246-3.854l0.265-3.774c0.398-5.017,1.043-9.875,2.671-13.472l-4.577-19.858
				c0.35,4.851-0.101,10.199-0.554,15.574l0.799-0.524c-0.051,5.131,0.223,17.609-1.029,23.502l-0.726-7.137
				c-0.875,8.159-2.003,1.301-2.374-0.999c1.752-16.364-1.076-11.968-1.349-24.5c0.426-2.811,0.88-8.166,1.654-6.159
				c-0.325-7.389,2.256-26.816-0.521-27.536c0.151-0.636,0.276-0.875,0.424-1.45C364.673,53.248,359.535,61.443,354.631,72.021z"/>
		</g>
	</g>
</g>
<path d="M144.988,31.517h10.454v23.244c-0.074,2.017-0.322,3.763-0.745,5.238c-0.422,1.476-1.65,2.987-3.681,4.537
	c-2.032,1.55-4.693,2.495-7.985,2.836l-0.534-6.673c2.076-0.178,3.707-1.026,4.893-2.547c1.186-1.52,1.676-7.766,1.468-18.739
	l3.025-1.557h-8.408L144.988,31.517z"/>
<path d="M164.362,31.384v2.914l1.735-2.914h14.68c1.809,0.504,2.661,3.055,2.558,7.651v20.04c-0.355,1.632-1.742,2.484-4.159,2.559
	h-16.971c-2.521,0.104-3.981-0.993-4.381-3.292V32.74L164.362,31.384z M164.362,37.946v17.127h12.411V37.946H164.362z"/>
<path d="M186.382,31.45h12.122l-0.89,6.406h-1.957v17.683h2.491l-0.356,6.206H185.67l0.601-6.251l2.603,0.022l0.044-16.081
	l2.802-1.579h-5.983L186.382,31.45z"/>
<path d="M201.172,31.517h6.451l-0.022,4.805l0.756-1.868c2.832,0.756,4.927,1.605,6.283,2.547c1.357,0.941,2.762,2.479,4.216,4.615
	l0.311,0.89l-0.021-10.943h6.405v24.956c0.104,1.143-0.389,2.354-1.479,3.637c-1.09,1.283-3.325,1.835-6.706,1.657v-6.295
	c1.482-0.118,2.105-1.075,1.868-2.869c0.015-1.008-0.204-2.102-0.656-3.281c-0.452-1.179-1.861-2.75-4.227-4.715
	s-4.615-3.244-6.75-3.837v20.997h-6.473L201.172,31.517z"/>
<path d="M55.685,86.22c2.253,0.416,3.417,1.913,3.492,4.493l-0.045,11.299c-0.208,2.313-1.431,3.448-3.67,3.403H46.32l-2.135-3.825
	v10.098c-0.356,2.254-1.12,3.651-2.291,4.193c-1.171,0.541-3.04,0.797-5.605,0.767l-0.022-5.85c1.068,0.252,1.549-1.238,1.446-4.471
	V94.517l3.47-1.936l-5.227-0.022l1.313-6.339H55.685z M44.007,92.581l0.022,5.739l8.43,0.021v-5.761H44.007z"/>
<path d="M62.824,86.131h19.173c1.349,0.163,2.276,1.031,2.78,2.603l-0.044,8.941c-0.43,2.062-1.053,3.444-1.869,4.148
	s-2.269,1.517-4.359,2.436l1.757,2.803c1.305,2.046,3.15,3.225,5.538,3.536l-0.511,6.851l-3.581-0.667
	c-2.329-0.475-4.79-2.906-7.385-7.296l-1.401-2.669l-3.492,1.646l-0.022,7.94l-6.228,0.044v-5.916l-2.447-5.228l2.402-1.512
	l0.044-9.364l3.047-1.69l-4.805,0.021L62.824,86.131z M69.43,92.759v8.563l6.651-2.624c1.616-0.593,2.424-1.55,2.424-2.869v-3.07
	H69.43z"/>
<path d="M88.248,86.131h12.122l-0.89,6.406h-1.958v17.683h2.491l-0.355,6.206H87.536l0.601-6.251l2.603,0.022l0.044-16.081
	l2.803-1.579h-5.983L88.248,86.131z"/>
<path d="M108.511,85.753l8.096,22.754c2.713-2.194,4.471-4.604,5.271-7.229c0.801-2.625,1.104-5.486,0.912-8.586l-3.248,0.022
	l0.734-6.606l9.008-0.044c0.845,3.44,0.986,7.025,0.422,10.754c-0.563,3.729-1.468,6.836-2.713,9.319
	c-1.246,2.484-3.114,5.217-5.605,8.197l-3.203-1.224l1.513,4.248l-6.784,2.558l-10.965-32.385L108.511,85.753z"/>
<path d="M144.076,83.906l5.472,2.069l-0.645,2.135h8.808l-0.912,6.584l-4.805,0.022l7.629,20.44l-5.895,2.024L145.9,96.274
	l-8.742,20.73l-5.983-1.824l8.63-20.552l-6.294-0.022L134,88.111h8.319L144.076,83.906z M146.901,106.594l3.403,3.737l-6.294,6.316
	l-3.425-3.692L146.901,106.594z"/>
<path d="M161.47,86.131h20.196l-0.823,6.673h-7.184v14.436c-0.252,2.239,0.504,3.566,2.269,3.981l-1.624,6.272
	c-2.032,0.059-3.748-0.601-5.149-1.979s-2.124-3.203-2.168-5.472V94.139l2.869-1.38l-9.053-0.021L161.47,86.131z"/>
<path d="M184.846,86.087h21.419l-1.779,6.717l-10.81,0.045v3.313h11.854l-1.067,6.05l-10.943-0.021
	c-0.223,3.202-0.026,5.319,0.59,6.35c0.615,1.031,1.642,1.554,3.08,1.568h8.141l-1.09,6.295c-6.539,0.147-10.331-0.056-11.377-0.612
	c-1.045-0.556-2.134-1.475-3.269-2.758c-1.135-1.282-1.85-3.169-2.146-5.66v-5.183l-3.67,0.021l0.912-6.094l3.003,0.021v-3.47
	l-3.915,0.022L184.846,86.087z"/>
<path d="M223.148,86.065h6.606l-0.022,15.903l3.781,0.044l-0.646,5.339l-2.958,0.022v1.979l11.878-0.022l-0.689,6.984l-20.485-0.045
	l1-6.873h1.401v-1.979h-2.18l0.578-5.427l1.69-0.022L223.148,86.065z"/>
<path d="M250.396,86.065v2.914l1.734-2.914h14.68c1.81,0.504,2.662,3.055,2.559,7.651v20.04c-0.356,1.632-1.743,2.484-4.159,2.559
	h-16.972c-2.521,0.104-3.981-0.993-4.382-3.292V87.421L250.396,86.065z M250.396,92.626v17.127h12.411V92.626H250.396z"/>
<path d="M272.771,86.154h13.88c2.98,0.163,4.789,0.867,5.427,2.113c0.638,1.245,0.897,2.58,0.778,4.003
	c-0.118,1.424-1.179,3.233-3.181,5.428c3.114-0.119,4.85,0.993,5.205,3.336v9.698c-0.163,1.734-0.73,3.08-1.701,4.037
	c-0.972,0.956-2.154,1.598-3.548,1.924c-3.263,0.771-6.644,0.43-10.143-1.023l2.225-5.583c3.143,0.994,5.104,1.234,5.883,0.724
	c0.778-0.512,1.093-3.073,0.945-7.686l-8.408,0.045v5.472c-0.786,5.68-3.47,8.252-8.052,7.718v-5.627
	c1.379,0.015,1.958-1.157,1.735-3.515v-3.848h-1.779l0.022-5.672l2.269,0.044V92.47h-2.358L272.771,86.154z M280.133,92.47v4.982
	l2.87-0.622c2.016-1.083,2.936-2.536,2.758-4.36H280.133z"/>
<path d="M298.35,86.154h13.88c2.98,0.163,4.789,0.867,5.427,2.113c0.638,1.245,0.897,2.58,0.778,4.003
	c-0.118,1.424-1.179,3.233-3.181,5.428c3.114-0.119,4.85,0.993,5.205,3.336v9.698c-0.163,1.734-0.73,3.08-1.701,4.037
	c-0.972,0.956-2.154,1.598-3.548,1.924c-3.263,0.771-6.644,0.43-10.143-1.023l2.225-5.583c3.143,0.994,5.104,1.234,5.883,0.724
	c0.778-0.512,1.093-3.073,0.945-7.686l-8.408,0.045v5.472c-0.786,5.68-3.47,8.252-8.052,7.718v-5.627
	c1.379,0.015,1.958-1.157,1.735-3.515v-3.848h-1.779l0.022-5.672l2.269,0.044V92.47h-2.358L298.35,86.154z M305.712,92.47v4.982
	l2.87-0.622c2.016-1.083,2.936-2.536,2.758-4.36H305.712z"/>
<path d="M326.576,86.198l8.452,16.571c1.542-1.557,2.613-3.637,3.214-6.239s0.76-5.75,0.479-9.441l6.184,0.244
	c-0.075,7.859-0.916,13.35-2.525,16.471c-1.608,3.121-3.588,5.924-5.938,8.407c-2.351,2.484-5.179,4.778-8.485,6.885l-2.646-6.272
	l5.716-4.671l-9.275-17.861L326.576,86.198z"/>
</svg>
