<?xml version="1.0" encoding="utf-8"?>
<!-- Generator: Adobe Illustrator 15.0.0, SVG Export Plug-In . SVG Version: 6.00 Build 0)  -->
<!DOCTYPE svg PUBLIC "-//W3C//DTD SVG 1.0//EN" "http://www.w3.org/TR/2001/REC-SVG-20010904/DTD/svg10.dtd">
<svg version="1.0" id="Layer_1" xmlns="http://www.w3.org/2000/svg" xmlns:xlink="http://www.w3.org/1999/xlink" x="0px" y="0px"
	 width="222.002px" height="103.271px" viewBox="189.646 115.281 222.002 103.271"
	 enable-background="new 189.646 115.281 222.002 103.271" xml:space="preserve">
<g>
	
		<radialGradient id="SVGID_1_" cx="-47.2466" cy="-704.6433" r="99.1529" gradientTransform="matrix(-0.0252 1.0054 -8.8817 -0.4327 -5957.0918 -85.6202)" gradientUnits="userSpaceOnUse">
		<stop  offset="0" style="stop-color:#FFFFFF;stop-opacity:0.2"/>
		<stop  offset="0.0144" style="stop-color:#F4F4F4;stop-opacity:0.2007"/>
		<stop  offset="0.0883" style="stop-color:#C2C2C2;stop-opacity:0.2045"/>
		<stop  offset="0.1677" style="stop-color:#949494;stop-opacity:0.2085"/>
		<stop  offset="0.2505" style="stop-color:#6C6C6C;stop-opacity:0.2128"/>
		<stop  offset="0.3378" style="stop-color:#4A4A4A;stop-opacity:0.2172"/>
		<stop  offset="0.4307" style="stop-color:#2F2F2F;stop-opacity:0.2219"/>
		<stop  offset="0.5313" style="stop-color:#1A1A1A;stop-opacity:0.2271"/>
		<stop  offset="0.6432" style="stop-color:#0B0B0B;stop-opacity:0.2328"/>
		<stop  offset="0.7759" style="stop-color:#030303;stop-opacity:0.2395"/>
		<stop  offset="0.9818" style="stop-color:#000000;stop-opacity:0.25"/>
	</radialGradient>
	<path fill="url(#SVGID_1_)" d="M404.134,168.087c0.161-6.43-37-33-56-36l-131.5-10c-8-1-21,5-20.5,18.5l4.5,46.5
		c-1.508,23.601,20.002,24.624,24.5,26.5l124-2.5c11.895,2.928,60.338-26.572,60.5-33L404.134,168.087z"/>
	<g>
		<g>
			<g>
				<path fill="#202020" d="M401.012,158.16c0.86,0.802,1.658,1.611,1.657,1.614c0.03-0.029,0.042-0.077,0.063-0.116
					C402.111,159.087,401.547,158.604,401.012,158.16z"/>
				<path fill="#202020" d="M398.347,157.814l0.523,0.467c-0.036-0.08-0.022-0.113-0.032-0.168L398.347,157.814z"/>
				<path fill="#202020" d="M402.735,159.656c0.213-0.453-0.164-1.49,1.028-0.958c0.939,0.934,2.784,2.959,3.734,4.513
					c1.173,1.479,0.44-0.286,0.648-0.41c0.489,0.773,1.015,1.729,1.383,2.885c0.396,1.101,0.423,2.572,0.472,2.55
					c0.079,0.198,0.154,0.267,0.225,0.221c0.035-0.023,0.069-0.074,0.103-0.152c0.008-0.025,0.017-0.028,0.024-0.076l0.021-0.332
					c0.011-0.248,0.009-0.493-0.006-0.745c-0.058-1.049-0.332-2.063-0.688-2.945c-0.354-0.879-0.788-1.656-1.264-2.386
					c-1.391-1.39-3.019-2.729-4.587-3.918c-1.565-1.186-3.065-2.208-4.085-2.808c-1.019-0.596-1.549-0.771-1.17-0.177
					C398.946,155.533,400.257,156.836,402.735,159.656z"/>
				<path fill="#202020" d="M394.575,153.84c1.687,1.336,3.346,2.717,4.965,4.183c0.701,0.236,1.586,0.667,1.295-0.008
					C398.158,155.845,396.4,154.767,394.575,153.84z"/>
				<path fill="#202020" d="M407.777,183.956c-0.063-0.061,0.019-0.15,1.046-1.044C408.468,183.287,408.131,183.621,407.777,183.956
					c0.041,0.06,0.193,0.07-0.279,0.567c0.952-0.921,1.898-1.914,2.703-3.014c0.397-0.551,0.759-1.127,1.042-1.746
					c0.14-0.31,0.262-0.632,0.336-0.971c0.038-0.17,0.062-0.344,0.068-0.52c-0.032-0.165-0.134-0.318-0.197-0.479
					c-0.584-1.272-1.225-2.578-1.907-3.852l-1.007-1.816l-0.879-1.558c-0.417-0.477-0.825-0.934-1.208-1.343l2.181,3.914
					c0.817,1.487,1.589,3.026,2.293,4.534c0.078,0.19,0.197,0.372,0.24,0.568c-0.009,0.21-0.051,0.416-0.109,0.615
					c-0.116,0.399-0.294,0.773-0.495,1.133c-0.404,0.719-0.91,1.384-1.459,2.019s-1.144,1.238-1.755,1.821l-0.931,0.86l-0.832,0.734
					c-4.374,3.75-8.771,6.876-12.692,9.791c2.907-1.849,5.291-3.523,7.605-5.255c1.156-0.868,2.294-1.75,3.462-2.697l1.779-1.479
					l0.937-0.815C407.04,184.643,407.41,184.307,407.777,183.956z"/>
				<path fill="#202020" d="M405.332,168.795l-0.582-1.047C405.169,168.748,405.259,168.825,405.332,168.795z"/>
				<path fill="#202020" d="M219.511,215.783c-3.688-0.888-7.338-1.992-10.729-3.782c-3.382-1.771-6.542-4.306-8.856-7.608
					c1.39,2.12,3.149,4.001,5.084,5.533c1.935,1.543,4.034,2.74,6.136,3.684c2.105,0.943,4.224,1.636,6.27,2.182
					c2.033,0.551,4.054,0.938,5.678,1.341l1.235,0.271c0.404,0.104,0.838,0.1,1.251,0.154l6.845-0.332l5.944-0.356l-12.764,0.304
					c-0.4-0.058-0.821-0.051-1.209-0.161l-1.188-0.289C222.083,216.408,220.821,216.124,219.511,215.783z"/>
				<path fill="#202020" d="M192.796,171.175c0.314,4.485,0.729,8.564,1.205,12.397l0.367,2.831l0.095,0.686
					c0.013,0.059,0.035,0.114,0.042,0.178l0.01,0.096c0.001,0.025,0.004,0.011,0.004,0.07l-0.002,0.2
					c-0.005,0.267,0,0.535,0.006,0.804c0.033,2.141,0.253,4.283,0.691,6.403c-0.366-2.17-0.505-4.313-0.479-6.399l0.023-1.166
					c0.003-0.07-0.016-0.13-0.022-0.195l-0.07-0.616l-0.299-2.667l-1.186-10.635L192.796,171.175z"/>
				<path fill="#202020" d="M194.552,181.026c0.197,2.048,0.414,4.014,0.646,5.918l0.044,0.292l0.004,0.129l0.002,0.065
					l-0.004,0.183c-0.018,0.537,0,1.082,0.004,1.616c0.038,1.078,0.104,2.146,0.239,3.21c0.512,4.239,1.938,8.442,4.438,11.954
					c-2.687-4.045-3.896-8.722-4.258-12.985c-0.092-1.073-0.14-2.131-0.149-3.17l0.001-0.774c-0.006-0.104-0.008-0.185-0.02-0.274
					l-0.028-0.125c-0.009-0.036-0.018-0.071-0.036-0.21l-0.097-0.664L194.552,181.026z"/>
				<path fill="#202020" d="M340.82,204.968c3.6-0.319,6.255-0.526,8.177-0.653l1.898-0.125l-0.424,1.464
					c0.143-0.493,0.275-1.437,0.253-1.183c0.017-0.007,0.062-0.011,0.113-0.015l0.405-0.029l2.068-0.966l-0.684,0.131
					c-0.535,0.126-1.033,0.215-1.387,0.259l-0.393,0.047l-0.042,0.008l-0.005,0.004l-0.002,0.004l-0.032,0.204
					c-0.035,0.271-0.078,0.537-0.137,0.807c-0.043,0.247-0.093,0.486-0.159,0.729l0.551-2.02l-2.037,0.114l-12.166,0.687
					c-2.338,0.21-4.566,0.429-6.436,0.678L340.82,204.968z"/>
				<path fill="#202020" d="M351.243,204.427c-0.413,0.201-0.533,0.321-0.576,0.416c-0.038,0.095-0.05,0.156-0.048,0.185
					c-0.024,0.057,0.188,0.037,0.689-0.09c0.472-0.122,1.084-0.362,1.21-0.497c0.065-0.067,0.008-0.104-0.212-0.1
					C352.095,204.343,351.691,204.39,351.243,204.427z"/>
				<polygon fill="#202020" points="316.548,212.919 315.719,212.937 313.313,213.073 				"/>
				<path fill="#202020" d="M249.519,210.648c4.746-0.146,9.502-0.334,14.175-0.551c-9.637,0.329-19.354,0.658-27.399,1.201
					c1.197-0.024,2.409,0.08,3.61,0.057C242.303,211.05,245.899,210.721,249.519,210.648z"/>
				<path fill="#202020" d="M353.991,210.984c-1.598,0.306-3.25,0.539-4.884,0.21l0.028,0.003
					c-11.377,0.531-22.551,1.121-33.417,1.74c-25.232,0.557-49.557,1.353-71.391,2.839c-2.628,0.193-5.527,0.367-8.622,0.531
					l-10.077,0.473c-0.387-0.048-0.796-0.025-1.174-0.131l-1.154-0.269c-1.963-0.487-4.345-0.94-6.691-1.632
					c-2.362-0.685-4.778-1.574-7.11-2.823c-2.327-1.246-4.579-2.858-6.483-4.878c-1.91-2.007-3.449-4.396-4.501-6.893
					c-1.063-2.498-1.673-5.075-1.999-7.56c-0.158-1.243-0.245-2.466-0.287-3.664l-0.029-1.587c-0.001-0.127-0.029-0.245-0.056-0.362
					l-0.112-0.699c-0.633-4.078-1.289-7.863-1.974-11.198c0.146,2.064,0.312,4.042,0.494,5.941
					c-0.445-2.791-0.901-5.422-1.371-7.864l-2.586-23.607l-0.634-5.889l-0.158-1.473l-0.083-0.772
					c-0.022-0.219-0.051-0.438-0.052-0.659l-0.015-0.582c-0.031-1.302,0.045-2.635,0.228-3.972c0.364-2.672,1.215-5.371,2.543-7.81
					c1.318-2.445,3.084-4.613,5.092-6.396c4.056-3.56,8.872-5.722,14.16-6.493c1.334-0.181,2.71-0.268,4.152-0.211l3.347,0.245
					l5.956,0.426l24.037,1.777c4.795,0.364,8.424,0.255,13.216,0.619l14.381,1.021c0.021-0.028-0.036-0.061-0.166-0.099
					c19.743,1.34,39.172,2.563,59.632,3.697l7.19,0.493l3.594,0.271l2.208,0.18l1.402,0.247l1.104,0.23
					c5.752,1.334,10.551,3.401,15.247,5.586c3.483,1.678,3.229,2.155,5.422,3.445c4.315,2.669,7.919,5.165,11.599,7.809
					c3.672,2.657,7.412,5.442,11.81,9.004l-0.235,0.304c1.396,1.028,2.608,2.02,3.569,2.881c-2.549-1.234-6.605-3.717-8.693-4.672
					c-1.041-0.483-1.575-0.613-1.159-0.06c0.412,0.56,1.787,1.78,4.455,4.154l-0.003,0.003c-0.65-0.452-1.24-0.85-1.807-1.221
					l-0.19-0.144c0.004,0.01,0.001,0.014,0.004,0.021c-2.804-1.822-4.604-2.765-6.479-3.542c1.757,1.197,3.496,2.428,5.215,3.699
					c-0.431-0.096-0.748-0.104-0.678,0.169l-0.512-0.249l-1.407-1.015c-0.309-0.1-0.551-0.149-0.732-0.158
					c-2.42-1.381-5.5-3.182-7.859-4.422c-2.358-1.244-3.973-1.955-3.394-1.301c0.955,0.894,4.508,2.782,8.37,5.229
					c0.2,0.196,0.438,0.412,0.683,0.625c-5.027-3.258-0.497,0.729-3.541-1.16c-3.979-2.628-8.122-4.989-12.297-7.26
					c-4.252-2.306-8.445-4.319-12.65-5.91c-2.102-0.789-4.209-1.47-6.312-1.958c-0.525-0.121-1.05-0.229-1.572-0.323
					c-0.551-0.109-0.854-0.126-1.489-0.165l-3.364-0.228c-8.961-0.602-17.883-1.152-27.492-1.69l-2.531-0.147
					c-9.316-0.549-18.103-1.189-27.202-1.981l1.833-0.11c-7.32-0.639-14.659-1.225-22.016-1.589l-27.207-1.348l-13.877-0.785
					l-7.056-0.439l-1.777-0.115l-0.431-0.04l-0.346-0.024c-0.23-0.01-0.463-0.018-0.699-0.015c-0.944,0.006-1.93,0.116-2.911,0.317
					c-4.137,0.842-8.011,3.246-10.183,6.53c-1.098,1.641-1.785,3.497-2.051,5.47c-0.069,0.492-0.105,0.994-0.124,1.499
					c-0.01,0.253-0.01,0.507-0.007,0.763l0.011,0.372c0.004,0.088,0.006,0.176,0.02,0.264l0.401,3.654
					c1.09,9.873,2.224,19.779,3.422,29.944c-1.089-8.297-2.152-16.587-3.065-25.118l-0.543-5.728l-0.271-2.771
					c-0.021-0.218-0.022-0.675-0.019-1.046c0.012-0.385,0.028-0.766,0.065-1.141c-0.047,0.388-0.07,0.781-0.088,1.176
					c-0.008,0.396-0.013,0.828,0.009,1.055l0.268,2.817l0.579,5.637c0.688,7.378,1.36,14.859,2.147,21.902
					c0.394,3.521,0.816,6.934,1.283,10.168c0.234,1.617,0.479,3.19,0.737,4.711c0.038,0.293,0.192,0.989,0.193,1.522l0.002,0.423
					l0.002,0.21l0.005,0.126l0.029,0.496c0.047,0.655,0.116,1.291,0.215,1.899c-0.059,1.061-0.183,1.073-0.076,2.083
					c0.411,3.54,1.661,6.686,3.775,9.023c2.098,2.355,5.015,3.926,8.031,4.807c0.016-0.087,3.059,0.92,2.125,0.337
					c0.957,0.285,1.973,0.547,3.054,0.808c1.07,0.262,2.259,0.513,3.575,0.871c0.105,0.027,0.21,0.058,0.313,0.093
					c0.102,0.042,0.217,0.003,0.324,0.008l6.745-0.232c2.374-0.09,4.702-0.19,6.916-0.314c3.123-0.146,6.23-0.454,9.346-0.817
					l79.1-3.621c6.521-0.247,13.991-0.407,20.689-0.545l2.26-0.046l-0.757,2.783c0.064-0.24,0.115-0.478,0.157-0.718
					c0.057-0.264,0.102-0.527,0.134-0.79c0.048-0.286,0.086-0.574,0.111-0.859c0.002-0.045,0.022-0.204,0.02-0.174h0.003
					l0.007,0.001l-0.007,0.005c-0.002,0.002-0.003-0.037-0.022,0.171c-0.025,0.285-0.063,0.574-0.111,0.859
					c-0.033,0.263-0.078,0.525-0.135,0.789c-0.041,0.239-0.092,0.477-0.156,0.716l0.769-2.827l-2.271,0.139
					c-9.91,0.605-20.109,1.15-30.461,1.665c-10.445,0.116-20.448,0.319-28.671,1.142l-5.734,0.46l34.405-1.602
					c6.169-0.069,12.488-0.109,18.683-0.229l-0.372,0.034l-14.688,0.762c-9.29,0.104-18.222,0.276-25.871,0.892l-2.806,0.251
					l-5.731,0.459l21.322-0.972l13.086-0.63l8.252-0.084l-0.862,0.116c-2.413,0.175-9.114,1.814-5.502,2.126
					c7.85-0.172,17.041-0.475,25.023-0.756l0.518-0.019l0.646,0.147c0.306,0.07,1.304,0.068,2.257-0.095
					c0.979-0.151,2.015-0.401,3.008-0.683c1.996-0.571,3.842-1.261,5.377-1.872c3.08-1.237,4.963-2.149,4.978-2.104
					c0.382-0.014-1.891,1.246-5.256,2.689c-1.678,0.713-3.64,1.467-5.606,2.025c-0.979,0.279-1.964,0.509-2.854,0.637
					c-0.878,0.134-1.701,0.136-2.067,0.072l-0.714-0.123l-0.271,0.014c-5.711,0.291-10.336,0.52-9.863,0.561l5.333,0.04l-4.85,0.43
					c-3.602,0.2-8.415,0.17-10.819,0.475c-8.397,0.937-18.024,0.875-27.63,1.579l-20.409,1.82c0.005,0.256-3.614,0.201-2.402,0.433
					c-6.785,0.137-14.637,0.295-17.529,1.101l-0.492,0.03c-0.478,0.01-1.157,0.065-1.883,0.139
					c-11.293,0.096-19.156,0.965-29.384,1.663l-3.428,0.122c-0.351-0.038-0.724,0.008-1.063-0.103
					c-0.337-0.098-0.686-0.188-1.038-0.271c-1.736-0.46-3.7-0.866-5.658-1.443c1.624,0.488,3.839,1.039,5.634,1.531
					c0.36,0.088,0.711,0.18,1.047,0.276c0.352,0.11,0.729,0.065,1.073,0.101l1.071-0.057l2.362-0.156
					c9.123-0.354,17.805-0.869,26.476-1.321c0.707-0.091,1.845-0.234,2.908-0.342l1.886-0.011c0.148-0.056,0.313-0.108,0.489-0.158
					c8.294-0.534,17.679-0.855,24.744-1.374c13.332-0.706,27.562-0.778,41.171-0.979l-19.989,1.097l23.455-1.151l3.455-0.063
					l7.221-0.146l-6.692-0.002l13.276-0.739l1.59-0.071l0.076-0.003l0.129,0.026c1.257,0.257,2.69,0.117,4.082-0.13
					c1.401-0.252,2.801-0.638,4.188-1.077c2.775-0.89,5.508-2.007,8.205-3.215c5.395-2.431,10.666-5.234,15.839-8.21
					c5.167-2.985,10.245-6.154,15.124-9.551c2.434-1.702,4.826-3.462,7.058-5.341l0.763-0.656l0.681-0.616
					c0.448-0.417,0.885-0.849,1.294-1.305c0.407-0.457,0.801-0.937,1.085-1.483c0.117-0.266,0.3-0.581,0.194-0.865l-0.434-0.806
					c0.182,0.168,0.373,0.355,0.575,0.563l0.311,0.324c0.086,0.117,0.085,0.259,0.103,0.391c-0.177,0.624-0.568,1.158-0.963,1.663
					c-0.402,0.505-0.846,0.976-1.303,1.433c-0.457,0.455-0.932,0.894-1.414,1.322c-0.514,0.455-1.077,0.934-1.626,1.386
					c-2.218,1.821-4.519,3.516-6.792,5.134c-4.557,3.231-9.02,6.152-13.023,8.834c5.878-3.392,9.745-6.066,15.077-9.831
					c0.037,0.063,0.151,0.114-0.269,0.467c1.668-1.264,3.455-2.66,5.229-4.167c1.806-1.56,3.439-2.991,4.792-4.759
					c-0.491,1.237-1.422,2.583-2.548,4.008c-1.666,1.804-4.551,4.017-7.461,6.188c-6.391,4.557-12.915,8.495-19.582,12.116
					c-3.338,1.803-6.721,3.516-10.189,5.107c-3.475,1.582-7.021,3.073-10.8,4.223c-1.352,0.369-2.727,0.688-4.155,0.883
					c-1.428,0.183-2.911,0.297-4.521-0.076l0.316,0.035l-32.61,0.611c11.506-0.543,22.211-1.076,32.589-1.664l-0.043-0.005
					C350.759,211.569,352.408,211.309,353.991,210.984z M372.224,138.125c-1.131-0.562-2.312-1.121-3.5-1.659l0.477,0.349
					C370.256,137.365,371.349,137.819,372.224,138.125z M344.584,128.356l3.197,0.304c0.22,0.028,0.71,0.036,1.068,0.116
					l0.992,0.186c0.619,0.124,1.238,0.264,1.855,0.417c2.47,0.614,4.94,1.428,7.415,2.363c4.943,1.876,9.907,4.234,14.646,6.785
					c0.07,0,0.119-0.012,0.134-0.037c-3.906-2.266-8.416-4.557-13.339-6.508c-2.465-0.971-5.033-1.857-7.728-2.544
					c-0.674-0.172-1.356-0.329-2.049-0.47l-1.047-0.196l-1.196-0.187L344.584,128.356z M311.936,123.208l0.193,0.057
					c-0.004-0.02-0.015-0.041-0.013-0.06L311.936,123.208z M196.056,160.874c-0.781-4.758-1.462-10.13-2.123-15.807l-0.498-4.435
					c-0.081-1.742,0.022-3.38,0.351-5.094c0.638-3.396,2.289-6.7,4.644-9.305c1.435-1.538,2.991-2.951,4.877-4.204
					c1.886-1.24,4.104-2.336,6.854-2.955c1.712-0.41,3.313-0.615,4.857-0.647c0.746-0.026,1.613,0.036,2.152,0.068l1.728,0.06
					c2.257,0.075,4.364,0.139,6.769,0.258l-3.575-0.528c8.38,0.765,13.248,0.365,21.606,1.258c0.012-0.128,1.232-0.292,2.432-0.2
					c5.998,0.328,11.974,1.038,16.788,1.148c6.001,0.328,11.984,0.783,16.803,0.893c1.202,0.092,3.625-0.109,6.037-0.055
					l8.779,0.548l-0.35-0.13c-2.379-0.186-4.796-0.356-7.216-0.454c-7.216-0.292-15.62-0.673-22.817-1.093
					c-9-0.556-17.705-1.025-26.263-1.451l-12.745-0.612l-6.324-0.292l-1.578-0.072c-0.475-0.03-1.242-0.095-1.903-0.087
					c-1.35-0.001-2.647,0.136-3.909,0.366c-4.307,0.834-8.197,2.844-11.454,5.675c-2.421,2.144-4.562,5.01-5.787,8.282
					c-1.235,3.275-1.569,6.77-1.134,9.973c0.68,5.522,1.362,10.59,2.155,14.134C195.453,157.304,195.686,159.698,196.056,160.874z
					 M202.873,173.722c-0.882-6.284-1.723-12.917-2.474-19.469l-1.054-9.715l-0.238-2.372c-0.064-0.774-0.187-1.645-0.177-2.107
					c-0.015-1.338,0.133-2.63,0.44-3.836c0.444-1.941,1.609-4.699,4.011-7.003c2.343-2.328,5.805-4.096,9.062-4.786
					c0.812-0.177,1.607-0.294,2.362-0.35c0.378-0.03,0.745-0.042,1.1-0.041c0.356,0.006,0.789,0.021,1.172,0.015
					c1.563-0.002,2.915-0.031,3.96-0.096c2.089-0.13,2.945-0.401,1.784-0.875c-1.508,0.229-3.923,0.327-6.857,0.275
					c-2.688-0.024-6.049,0.704-9.23,2.425c-3.175,1.696-6.125,4.496-7.56,8.115c-0.729,1.795-1.087,3.762-1.097,5.758
					c-0.006,0.236,0.003,0.529,0.009,0.72c-0.002,0.105,0.017,0.209,0.024,0.316l0.041,0.412l0.163,1.646l0.321,3.263
					C200.339,163.281,201.815,178.022,202.873,173.722z M271.812,206.777c-5.032,0.303-9.899,0.583-15.623,0.698L271.812,206.777z
					 M221.029,211.78c1.102,0.216,2.228,0.407,3.364,0.673c0.25,0.058,0.497,0.122,0.74,0.199c0.239,0.091,0.511-0.008,0.765-0.002
					l5.249-0.331l5.38-0.297l10.832-0.517c7.227-0.323,14.43-0.621,21.393-0.988c12.021-0.627,25.257-0.253,36.058-1.367
					l-0.007-0.384l-1.195,0.151c-4.224,0.01-7.629-0.126-11.169-0.162l0.617-0.045l-1.067,0.042c-2.363-0.02-4.813,0.013-7.635,0.17
					l-3.932,0.257c-15.024,0.53-30.531,1.041-44.128,2.119l-5.34,0.389l-5.021,0.424c-0.234,0.001-0.487,0.099-0.712,0.021
					c-0.225-0.065-0.456-0.121-0.691-0.169c-1.952-0.412-3.818-0.675-5.701-1.109c-1.879-0.422-3.764-0.966-5.635-1.746
					C215.294,210.15,218.668,211.346,221.029,211.78z"/>
				<path fill="#202020" d="M331.829,211.119l15.699-0.752l1.589-0.095l0.063-0.003l0.148,0.026
					c1.513,0.275,3.229-0.002,4.866-0.382c1.651-0.394,3.284-0.941,4.894-1.554c4.435-1.652,8.942-3.783,13.481-6.109
					c4.537-2.337,9.107-4.9,13.619-7.635c4.507-2.74,8.976-5.646,13.182-8.78c1.05-0.784,2.08-1.585,3.078-2.405
					c0.499-0.41,0.989-0.826,1.467-1.247c0.406-0.359,0.761-0.686,1.127-1.043c0.713-0.708,1.412-1.437,1.913-2.293
					c0.12-0.216,0.224-0.442,0.28-0.684c0.105-0.257-0.108-0.462-0.214-0.68l-0.74-1.288c-0.614-0.338-0.991-0.227-1.183,0.25
					l0.583,1.134c0.031,0.097,0.135,0.179,0.106,0.289c-0.016,0.105-0.044,0.21-0.086,0.309c-0.081,0.2-0.196,0.384-0.318,0.561
					c-0.502,0.699-1.127,1.289-1.752,1.856l-0.477,0.418l-0.71,0.6c-0.511,0.424-1.033,0.845-1.564,1.261
					c-1.062,0.832-2.152,1.648-3.262,2.45c-4.445,3.205-9.115,6.214-13.87,9.058c-4.762,2.836-9.63,5.51-14.604,7.884
					c-2.486,1.184-5,2.293-7.535,3.26c-2.527,0.962-5.102,1.806-7.576,2.285l-0.451,0.128c-1.276,0.364-2.818,0.597-3.782,0.44
					l-0.562-0.091l-0.162,0.011c-9.483,0.603-22.135,0.764-32.227,1.505c-12.007,1.01-24.027,1.508-36.031,2.39
					C298.193,211.843,314.703,211.234,331.829,211.119z"/>
				<path fill="#202020" d="M195.214,194.84c0.479,2.836,1.386,5.739,2.853,8.441c1.448,2.707,3.476,5.151,5.793,7.1
					c3.128,2.602,6.567,4.247,9.848,5.38c1.646,0.567,3.268,1.009,4.827,1.378l4.289,0.958l1.341,0.272
					c0.437,0.1,0.903,0.119,1.35,0.182l8.988-0.469l8.509-0.485l-17.464,0.444c-0.43-0.065-0.878-0.08-1.296-0.189l-1.278-0.292
					c-1.111-0.309-2.397-0.597-3.744-0.946c-1.342-0.345-2.723-0.738-4.107-1.209c-4.715-1.521-9.29-3.775-12.924-7.386
					c-1.81-1.786-3.344-3.875-4.506-6.124C196.523,199.645,195.722,197.254,195.214,194.84z"/>
				<path fill="#202020" d="M252.778,217.013l-9.768,0.584l39.094-1.208c21.334-0.951,42.682-1.834,64.012-2.939l3.063-0.143
					l-0.575-0.063c1.892,0.392,3.463,0.201,4.969-0.021c-1.516,0.192-3.094,0.341-4.943-0.083l0.548,0.061
					c-38.324,0.636-76.346,1.321-108.85,3.535l-1.96,0.133c16.042-0.411,31.908-0.917,47.729-1.438
					C274.986,215.926,263.878,216.439,252.778,217.013z"/>
				<polygon fill="#202020" points="326.803,211.372 330.269,211.318 334.252,211.107 331.829,211.119 				"/>
				<path fill="#202020" d="M292.438,208.755l-0.45-0.003l-11.566,0.427c-5.373,0.341-10.99,0.651-16.729,0.918
					C274.096,209.741,284.387,209.383,292.438,208.755z"/>
				<polygon fill="#202020" points="259.049,206.361 254.237,206.458 252.055,206.733 255.452,206.689 				"/>
				<path fill="#202020" d="M205.052,190.417c0.168,2.643,0.725,5.103,1.732,7.184c0.999,2.09,2.439,3.803,4.257,5.193
					c1.819,1.391,4.017,2.446,6.431,3.249c1.209,0.403,2.469,0.743,3.793,1.056c1.322,0.319,2.714,0.58,4.341,0.998
					c0.099,0.021,0.195,0.044,0.289,0.071c0.094,0.033,0.199-0.007,0.297-0.007l22.988-1.079l2.875-0.35
					c-4.457,0.064-8.905,0.155-13.308,0.283l-6.563,0.222l-3.248,0.135l-1.613,0.074l-0.804,0.038l-0.099,0.005l-0.026,0.003
					l-0.053,0.007l-0.106,0.015c-0.077,0.003-0.159,0.037-0.231,0.015c-0.074-0.019-0.149-0.034-0.227-0.046
					c-2.05-0.504-3.669-0.772-5.233-1.142c-1.556-0.354-3.005-0.752-4.366-1.223c-1.9-0.623-4.549-1.789-5.837-3.061
					c-1.58-1.431-2.772-3.109-3.615-5.054c-0.839-1.943-1.317-4.148-1.489-6.478c-0.047-0.581-0.072-1.172-0.078-1.768
					c-0.008-0.313-0.009-0.559,0.001-0.933l0.022-0.787c-0.013-0.262-0.057-0.525-0.084-0.787l-0.534-4.117l-1.06-8.058l0.92,7.747
					l0.469,3.916c0.026,0.25,0.111,0.847,0.139,1.333l-0.037,1.226c0,0.582,0.009,1.162,0.036,1.736
					C205.031,190.166,205.045,190.288,205.052,190.417z"/>
			</g>
		</g>
	</g>
</g>
<path d="M234.044,150.948l16.504-0.022c1.794,0.444,2.954,1.445,3.48,3.003c0.526,1.557,0.79,2.921,0.79,4.092l-5.827,1.157
	c0-1.394-1.313-1.987-3.938-1.779h-4.582l13.99,13.701c1.038,1.335,1.172,3.581,0.4,6.739c-0.771,2.017-2.676,3.158-5.716,3.426
	l-11.232-0.022c-1.306-0.43-2.335-1.257-3.092-2.48c-0.757-1.223-1.343-2.739-1.757-4.548l6.094-2.069
	c0.163,1.69,0.846,2.507,2.047,2.447l5.938,0.022c0.904-0.208,0.757-0.86-0.444-1.958l-13.012-12.723l3.202-2.535h-4.093
	L234.044,150.948z"/>
<path d="M258.222,150.992h20.196l-0.823,6.673h-7.184v14.436c-0.253,2.239,0.504,3.566,2.268,3.981l-1.623,6.272
	c-2.031,0.059-3.748-0.601-5.149-1.979s-2.124-3.203-2.169-5.472V159l2.869-1.38l-9.053-0.021L258.222,150.992z"/>
<path d="M292.452,148.768l5.473,2.069l-0.646,2.135h8.808l-0.912,6.584l-4.804,0.022l7.63,20.44l-5.895,2.024l-7.83-20.908
	l-8.741,20.73l-5.983-1.824l8.631-20.552l-6.295-0.022l0.489-6.495h8.319L292.452,148.768z M295.278,171.455l3.402,3.737
	l-6.295,6.316l-3.425-3.692L295.278,171.455z"/>
<path d="M310.714,150.992h19.174c1.348,0.163,2.275,1.031,2.779,2.603l-0.045,8.941c-0.43,2.062-1.053,3.444-1.867,4.148
	c-0.816,0.704-2.27,1.517-4.359,2.436l1.756,2.803c1.305,2.046,3.152,3.225,5.539,3.536l-0.512,6.851l-3.58-0.667
	c-2.328-0.475-4.791-2.906-7.385-7.296l-1.402-2.669l-3.492,1.646l-0.021,7.94l-6.229,0.044v-5.916l-2.445-5.228l2.4-1.512
	l0.045-9.364l3.047-1.69l-4.803,0.021L310.714,150.992z M317.319,157.62v8.563l6.65-2.624c1.617-0.593,2.426-1.55,2.426-2.869v-3.07
	H317.319z"/>
<path d="M335.804,150.992h20.195l-0.822,6.673h-7.184v14.436c-0.254,2.239,0.504,3.566,2.268,3.981l-1.623,6.272
	c-2.031,0.059-3.748-0.601-5.148-1.979c-1.402-1.379-2.125-3.203-2.17-5.472V159l2.869-1.38l-9.053-0.021L335.804,150.992z"/>
</svg>
