<?xml version="1.0" encoding="utf-8"?>
<!-- Generator: Adobe Illustrator 15.0.0, SVG Export Plug-In . SVG Version: 6.00 Build 0)  -->
<!DOCTYPE svg PUBLIC "-//W3C//DTD SVG 1.0//EN" "http://www.w3.org/TR/2001/REC-SVG-20010904/DTD/svg10.dtd">
<svg version="1.0" id="Layer_1" xmlns="http://www.w3.org/2000/svg" xmlns:xlink="http://www.w3.org/1999/xlink" x="0px" y="0px"
	 width="290.429px" height="119.75px" viewBox="155.417 106.823 290.429 119.75"
	 enable-background="new 155.417 106.823 290.429 119.75" xml:space="preserve">
<g>
	
		<radialGradient id="SVGID_1_" cx="-46.6045" cy="-693.6091" r="101.9585" gradientTransform="matrix(-0.0252 1.0057 -17.2821 -0.5831 -11687.8691 -186.2748)" gradientUnits="userSpaceOnUse">
		<stop  offset="0" style="stop-color:#FFFFFF;stop-opacity:0.2"/>
		<stop  offset="0.0144" style="stop-color:#F4F4F4;stop-opacity:0.2007"/>
		<stop  offset="0.0883" style="stop-color:#C2C2C2;stop-opacity:0.2045"/>
		<stop  offset="0.1677" style="stop-color:#949494;stop-opacity:0.2085"/>
		<stop  offset="0.2505" style="stop-color:#6C6C6C;stop-opacity:0.2128"/>
		<stop  offset="0.3378" style="stop-color:#4A4A4A;stop-opacity:0.2172"/>
		<stop  offset="0.4307" style="stop-color:#2F2F2F;stop-opacity:0.2219"/>
		<stop  offset="0.5313" style="stop-color:#1A1A1A;stop-opacity:0.2271"/>
		<stop  offset="0.6432" style="stop-color:#0B0B0B;stop-opacity:0.2328"/>
		<stop  offset="0.7759" style="stop-color:#030303;stop-opacity:0.2395"/>
		<stop  offset="0.9818" style="stop-color:#000000;stop-opacity:0.25"/>
	</radialGradient>
	<path fill="url(#SVGID_1_)" d="M438.394,145.748c0.225-6.43-9.395-21.779-15.916-22.008l-232.375-8.946
		c-6.531-0.229-25.131,2.923-25.355,9.354l-1.713,73.473c-2.104,23.601,17.386,20.538,23.661,22.414l219.097-5.08
		c16.592,2.928,28.119-13.073,28.344-19.501L438.394,145.748z"/>
	<g>
		<g>
			<g>
				<path fill="#202020" d="M437.452,131.869c0.873,1.397,1.601,2.786,1.602,2.787c0.044-0.023,0.07-0.078,0.106-0.118
					C438.569,133.536,438.008,132.667,437.452,131.869z"/>
				<path fill="#202020" d="M434.233,130.313l0.56,0.798c-0.029-0.115-0.006-0.151-0.007-0.224L434.233,130.313z"/>
				<path fill="#202020" d="M439.164,134.536c0.379-0.467,0.198-1.959,1.492-0.729c0.435,0.82,1.06,2.068,1.616,3.4
					c0.563,1.325,1.05,2.756,1.33,3.801c0.823,2.066,0.593-0.152,0.875-0.238c0.292,1.067,0.527,2.258,0.646,3.301
					c0.128,1.027,0.119,1.928,0.198,1.919c0.09,0.269,0.178,0.361,0.262,0.3c0.042-0.03,0.083-0.1,0.123-0.205
					c0.01-0.028,0.02-0.049,0.03-0.091l0.03-0.21l0.051-0.499c0.117-1.46-0.11-3.495-0.697-5.547
					c-1.096-2.173-2.583-4.67-4.175-6.909c-1.582-2.241-3.277-4.239-4.515-5.445c-1.24-1.203-1.941-1.63-1.492-0.705
					C435.346,127.63,436.952,129.844,439.164,134.536z"/>
				<path fill="#202020" d="M429.576,123.985c2.481,2.145,4.382,4.55,6.096,7.076c0.82,0.59,1.798,1.53,1.597,0.547
					C434.44,127.687,432.194,125.625,429.576,123.985z"/>
				<path fill="#202020" d="M438.748,169.128c-0.093-0.012-0.129-0.162,0.132-1.612L438.748,169.128
					c0.084,0.027,0.218-0.055,0.209,0.681c0.313-5.653,0.716-12.256,1.216-18.659c-0.089-0.846-0.182-1.663-0.281-2.408
					c-1.266,15.839-2.623,31.674-2.929,44.702C437.748,184.278,438.023,177.953,438.748,169.128z"/>
				<path fill="#202020" d="M439.09,147.432l0.131-1.612C438.962,147.258,438.998,147.411,439.09,147.432z"/>
				<path fill="#202020" d="M208.799,223.774c-3.826,0.14-7.467,0.335-11,0.563l-10.686,0.768c-0.384-0.026-0.777-0.018-1.156-0.073
					l-1.153-0.148c-0.989-0.117-2.337-0.174-3.763-0.255c1.417,0.13,2.766,0.237,3.733,0.402l1.162,0.175
					c0.383,0.065,0.78,0.068,1.168,0.104l24.699-1.058c7.784-0.346,15.072-0.7,21.383-1.105L208.799,223.774z"/>
				<path fill="#202020" d="M155.878,187.032c-0.141,3.021-0.237,5.911-0.298,8.696c-0.023,0.688-0.007,1.405-0.069,2.041
					l-0.033,0.493l-0.026,0.609c-0.02,0.403-0.031,0.81-0.032,1.22c-0.018,1.631,0.062,3.283,0.279,4.958
					c0.429,3.327,1.454,6.854,3.475,10.043c1.995,3.203,5.037,5.759,8.081,7.241c-3.057-1.595-6-4.237-7.867-7.371
					c-1.9-3.124-2.813-6.45-3.236-9.516c-0.212-1.543-0.302-3.042-0.314-4.501c-0.004-0.729,0.004-1.451,0.037-2.161l0.021-0.531
					l0.027-0.431c0.016-0.29,0.045-0.567,0.041-0.873l0.077-7.195L155.878,187.032z"/>
				<path fill="#202020" d="M156.418,200.853c-0.003,3.304,0.388,6.718,1.653,10.089c1.226,3.355,3.523,6.584,6.38,8.732
					c2.847,2.182,5.947,3.314,8.75,3.968c2.821,0.65,5.458,0.847,7.84,0.986c-2.668-0.247-5.625-0.563-8.688-1.439
					c-3.041-0.857-6.304-2.381-8.975-4.865c-2.687-2.461-4.511-5.701-5.488-8.748C156.879,206.5,156.538,203.572,156.418,200.853z"
					/>
				<path fill="#202020" d="M371.557,208.323c7.294-0.605,11.72-0.899,14.236-1.008c1.109-0.237,2.579-0.53,4.569-0.901l-1.301,0.03
					l-22.908,1.279c-3.157,0.266-6.168,0.54-8.691,0.85L371.557,208.323z"/>
				<path fill="#202020" d="M385.793,207.315C376.321,209.341,395.621,206.897,385.793,207.315L385.793,207.315z"/>
				<polygon fill="#202020" points="338.775,217.897 337.656,217.923 334.408,218.102 				"/>
				<path fill="#202020" d="M248.247,215.716c6.41-0.209,12.832-0.466,19.145-0.758c-13.016,0.462-26.141,0.924-37.006,1.625
					c1.617-0.037,3.255,0.077,4.876,0.039C238.501,216.245,243.358,215.829,248.247,215.716z"/>
				<path fill="#202020" d="M389.393,215.316c-17.647,0.793-34.964,1.678-51.736,2.607c-34.079,0.847-66.931,1.97-96.418,3.889
					c-7.11,0.496-15.686,0.913-24.922,1.318l-29.173,1.259c-0.366-0.031-0.739-0.021-1.098-0.086l-1.09-0.172
					c-1.456-0.241-3.467-0.35-5.48-0.562c-2.036-0.212-4.173-0.511-6.354-1.083c-2.175-0.57-4.417-1.43-6.511-2.752
					c-2.09-1.314-3.987-3.116-5.373-5.154c-1.4-2.034-2.329-4.228-2.929-6.327c-0.603-2.107-0.911-4.141-1.074-6.066
					c-0.184-1.892-0.137-3.886-0.174-5.256l-0.27-4.441l-0.167,4.089c-0.007,0.701-0.084,1.255-0.127,1.978
					c-0.048,0.764-0.073,1.53-0.079,2.297c-0.018-0.564-0.039-1.129-0.037-1.678l0.01-1.501c0.011-0.889-0.058-1.826-0.087-2.715
					l-0.264-5.204l0.389-31.971l0.226-15.942l0.122-7.974l0.063-3.988l0.032-1.996l0.008-0.498c0.002-0.163,0-0.3,0.029-0.648
					l0.127-1.772c0.096-1.178,0.146-2.375,0.28-3.541c0.269-1.111,0.741-2.207,1.352-3.2c1.227-1.994,2.991-3.613,5.007-4.904
					c1.006-0.647,2.074-1.219,3.172-1.725c0.631-0.29,0.904-0.402,1.332-0.582l1.169-0.46c1.546-0.579,3.05-1.043,4.541-1.447
					c2.982-0.801,5.905-1.368,8.903-1.774c1.503-0.2,3.017-0.358,4.634-0.448c0.813-0.044,1.646-0.07,2.597-0.055l2.14,0.071
					l32.573,1.194c6.499,0.251,11.386-0.016,17.881,0.234l19.487,0.666c0.025-0.034-0.054-0.07-0.231-0.11
					c26.748,0.84,53.067,1.554,80.779,2.124c12.991,0.349,25.987,1,38.961,1.5c4.87,0.188,4.847,0.791,8.091,1.067
					c6.476,0.628,12.144,1.186,18.016,1.695l9.088,0.73l4.897,0.343l1.62,0.111c1.126,0.109,2.112,0.362,2.978,0.665
					c1.726,0.616,3.021,1.406,4.158,2.207l-0.259,0.373c2.723,1.872,4.328,3.706,5.592,5.244c-1.7-1.323-3.889-3.248-6.972-4.841
					c-1.545-0.769-3.426-1.52-5.744-1.578h-0.405l-0.194,0.018l-0.38,0.037l-0.722,0.072l-1.259,0.146
					c-1.493,0.197-2.179,0.409-1.316,0.69c0.432,0.141,1.25,0.299,2.547,0.48l1.064,0.142l0.358,0.043
					c0.181,0.021,0.371,0.039,0.547,0.075c0.363,0.062,0.721,0.148,1.067,0.255c1.396,0.432,2.635,1.157,3.797,2.042l-0.003,0.005
					c-1.098-0.692-2.228-1.256-3.538-1.597l-0.47-0.126c0.018,0.011,0.016,0.017,0.026,0.024c-0.424-0.084-0.855-0.145-1.305-0.16
					l-0.313-0.008l-0.194,0.005l-0.382,0.01l-1.442,0.048c-0.917,0.036-1.753,0.079-2.534,0.133
					c-1.562,0.106-2.903,0.252-4.239,0.447l8.536,0.329c-0.547,0.19-0.903,0.39-0.62,0.611l-0.754,0.092l-2.325-0.09
					c-0.418,0.101-0.727,0.205-0.938,0.313c-7.472,0.363-19.222,0.249-16.988,0.963c1.722,0.389,7.177,0.319,13.362,0.363
					c0.371,0.071,0.799,0.141,1.234,0.198c-8.121-0.161-0.041,1.057-4.912,1.02l-19.473-0.596
					c-26.427-1.018-48.707-1.727-74.685-2.272l-3.422-0.078c-12.594-0.297-24.478-0.722-36.798-1.314l2.462-0.199
					c-9.909-0.479-19.842-0.894-29.78-1.046l-36.749-0.564l-18.749-0.402c-1.567-0.021-3.249-0.127-4.502-0.061
					c-1.405,0.063-2.898,0.221-4.383,0.429c-2.974,0.424-5.983,1.05-8.821,1.92c-0.742,0.229-1.47,0.473-2.167,0.741
					c-0.351,0.133-0.691,0.272-1.025,0.415l-0.41,0.185l-0.341,0.163c-0.892,0.455-1.777,0.993-2.378,1.801
					c-0.671,0.821-0.421,1.926-0.487,2.889l-0.075,4.888l-0.27,20.16c-0.156,13.442-0.266,26.94-0.337,40.803
					c-0.071-11.336-0.113-22.652,0.054-34.262l0.353-15.44c-0.171,5.225-0.28,10.354-0.353,15.44
					c-0.265,10.023-0.562,20.182-0.662,29.774l-0.034,7.078c-0.005,1.159,0.034,2.3-0.042,3.46c-0.024,1.007,0,1.985,0.077,2.923
					c0.15,1.874,0.53,3.579,1.13,4.952c0.601,1.378,1.385,2.406,2.292,3.121c0.609,0.798,0.522,0.916,1.374,1.525
					c1.569,1.052,3.72,1.769,6.162,2.212c1.222,0.227,2.512,0.391,3.884,0.545c1.376,0.163,2.822,0.279,4.571,0.613
					c0.122,0.022,0.243,0.049,0.361,0.08c0.12,0.034,0.248,0.001,0.37,0.004l3.282-0.128l3.522-0.167
					c2.318-0.123,4.571-0.273,6.743-0.458c-0.003-0.151,4.877-0.265,3.245-0.528c9.74-0.378,21.114-0.642,30.843-1.169
					c4.218-0.195,8.414-0.584,12.621-1.036l106.83-4.87c9.328-0.36,20.093-0.615,29.537-0.836
					c-13.887,0.827-28.197,1.577-42.732,2.29c-14.107,0.216-27.617,0.53-38.722,1.563l-7.745,0.587l46.467-2.15
					c8.331-0.129,16.866-0.224,25.232-0.411l-0.502,0.043l-19.837,1.011c-12.547,0.191-24.609,0.462-34.941,1.247l-3.788,0.316
					l-7.741,0.586l28.797-1.308l17.674-0.842l11.146-0.161l-1.165,0.143c-3.26,0.226-12.31,2.211-7.432,2.553
					c12.498-0.309,27.515-0.846,39.406-1.287l14.79-0.549l2.9-0.097c0.29-0.031,0.544,0.063,0.802,0.085l0.665,0.099l0.634,0.07
					c0.759,0.07,1.169,0.076,1.168,0.098c0.149,0.078-0.222,0.16-1.002,0.171c-0.454,0-0.646,0.022-1.97-0.15
					c-0.279-0.025-0.584,0.022-0.889,0.03l-0.818,0.049l-1.343,0.092c-3.76,0.249-8.909,0.529-14.06,0.795
					c-10.299,0.532-20.599,1.007-19.789,1.064l7.203,0.007l-6.549,0.544c-4.865,0.264-11.365,0.264-14.613,0.642
					c-11.341,1.17-24.343,1.169-37.315,2.072l-27.564,2.304c0.007,0.302-4.881,0.265-3.244,0.529
					c-9.165,0.212-19.769,0.458-23.676,1.431l-0.664,0.04c-0.645,0.015-1.563,0.086-2.542,0.178
					c-15.253,0.198-25.873,1.284-39.686,2.186c-4.753,0.187-9.587,0.35-14.564,0.466c3.251-0.076,8.122-0.038,11.373-0.264
					l3.191-0.202c12.321-0.486,24.047-1.16,35.757-1.76c0.955-0.112,2.491-0.291,3.929-0.426l2.546-0.027
					c0.201-0.066,0.423-0.13,0.66-0.19c11.202-0.692,23.877-1.142,33.42-1.809c18.005-0.934,37.224-1.125,55.604-1.465
					l-26.996,1.444l31.679-1.535l4.665-0.101l9.752-0.227l-9.038,0.048l17.931-0.973l24.623-1.033
					c0.575-0.072,1.2,0.066,1.705,0.124c0.482,0.056,0.966,0.098,1.449,0.121c0.968,0.048,1.937,0.03,2.898-0.054
					c1.924-0.168,3.822-0.604,5.634-1.29c3.631-1.36,6.904-3.681,9.604-6.521c1.351-1.423,2.562-2.982,3.574-4.639
					c0.999-1.642,1.85-3.441,2.175-5.12c0.041-0.208,0.065-0.407,0.084-0.599l0.055-0.768l0.126-1.552l0.253-3.103l0.516-6.203
					c0.696-8.268,1.424-16.518,2.186-24.724c0.128,0.658,0.247,1.412,0.357,2.248c-0.633,7.922-1.289,15.839-1.824,23.404
					c-0.267,3.769-0.51,7.508-0.691,11.009c-0.167,1.615-0.791,3.243-1.505,4.74c-0.724,1.508-1.591,2.918-2.521,4.234
					c1.424-1.77,2.538-3.566,3.346-5.386c0.401-0.909,0.724-1.829,0.917-2.749c0.096-0.47,0.155-0.899,0.167-1.391l0.098-1.44
					c0.258-3.83,0.508-7.62,0.87-12.031c0.086,0.016,0.218-0.059,0.21,0.682c0.312-5.654,0.714-12.257,1.215-18.663
					c0.215,2.081,0.403,4.413,0.594,6.74c0.023,3.27-0.393,8.121-0.658,12.994l-0.587,7.831l-0.3,3.881l-0.031,0.488
					c-0.018,0.185-0.036,0.37-0.065,0.549c-0.053,0.361-0.128,0.71-0.214,1.052c-0.176,0.684-0.399,1.337-0.655,1.971
					c-1.038,2.526-2.511,4.77-4.197,6.816c-1.693,2.042-3.638,3.867-5.797,5.414c-4.289,3.102-9.602,5.003-15.027,4.885
					c-0.676-0.005-1.35-0.055-2.022-0.114c-0.318-0.039-0.708-0.076-0.97-0.117c-0.277-0.044-0.554-0.093-0.831-0.063l-3.782,0.134
					l-7.744,0.298l-55.074,1.189C356.766,217.053,373.306,216.236,389.393,215.316z M392.222,118.643l-5.113,0.02l0.766,0.135
					C389.446,118.858,391.007,118.777,392.222,118.643z M354.256,117.035c11.136,0.688,25.819,0.907,40.009,1.218
					c0.083-0.038,0.133-0.076,0.135-0.111C382.509,117.544,367.865,117.351,354.256,117.035z M309.856,112.185l0.266,0.06
					c-0.008-0.023-0.023-0.048-0.022-0.07L309.856,112.185z M161.188,173.884c-0.452-13.009-0.074-29.229,0.001-45.448l0.113-4.526
					c-0.111-1.706,0.604-3.372,1.728-4.755c1.126-1.388,2.651-2.548,4.429-3.527c0.447-0.243,0.904-0.477,1.384-0.698
					c0.406-0.193,0.787-0.358,1.19-0.527c0.8-0.332,1.622-0.629,2.472-0.899c4.221-1.388,7.568-2.078,10.784-2.632
					c1.612-0.263,3.177-0.473,4.865-0.592c0.424-0.027,0.857-0.051,1.31-0.063l0.707-0.006l0.598,0.004l2.372,0.028l-2.434-0.245
					c-0.354-0.041-0.941-0.085-1.414-0.105c-0.488-0.023-0.959-0.037-1.422-0.041c0.805-0.025,1.627-0.035,2.479-0.002l1.977,0.071
					l3.713,0.082l6.858,0.029c4.471,0.003,8.939,0.023,14.611,0.394c0.006-0.151,1.638-0.392,3.263-0.329
					c8.117,0.162,16.233,0.776,22.734,0.725c8.121,0.162,16.229,0.474,22.738,0.423c1.629,0.063,4.883-0.267,8.143-0.293
					l11.889,0.316l-0.482-0.14c-3.225-0.13-6.499-0.241-9.772-0.265c-9.759-0.073-21.127-0.207-30.869-0.432
					c-12.185-0.318-23.964-0.545-35.539-0.726l-17.235-0.243l-2.161-0.027c-0.942-0.01-1.758,0.031-2.575,0.089
					c-1.616,0.118-3.149,0.313-4.673,0.551c-3.04,0.484-6.012,1.14-9.006,2.048c-1.281,0.396-2.562,0.852-3.853,1.397l-0.97,0.428
					l-1.083,0.519c-0.811,0.405-1.597,0.849-2.344,1.34c-1.491,0.981-2.833,2.15-3.822,3.584c-0.49,0.716-0.892,1.502-1.134,2.333
					c-0.285,0.815-0.225,1.713-0.276,2.585l-0.063,1.979l-0.028,0.957l0.008,0.7l0.024,2.832l0.013,5.776l-0.025,11.533
					c-0.004,7.504,0.062,14.4,0.477,19.281C161,169,160.924,172.243,161.188,173.884z M167.309,192.369
					c-0.241-17.188-0.09-36.198,0.414-52.384l0.095-5.894l0.04-7.177l-0.014-1.347c-0.027-0.455,0.019-0.927,0.212-1.35
					c0.384-0.849,1.113-1.485,1.874-2.019c0.385-0.266,0.79-0.508,1.205-0.732l0.66-0.338l0.821-0.374
					c1.109-0.483,2.261-0.906,3.401-1.284c4.583-1.5,8.899-2.309,11.53-2.813c1.328-0.253,2.225-0.419,2.638-0.599
					c0.438-0.18,0.298-0.405-0.478-0.65c-1.95,0.385-5.043,0.927-8.862,1.854c-1.905,0.466-3.992,1.029-6.147,1.773
					c-1.075,0.374-2.167,0.794-3.232,1.285c-0.957,0.448-1.831,0.925-2.673,1.56c-0.812,0.628-1.613,1.436-1.848,2.514
					c-0.098,0.534-0.042,1.087-0.062,1.634l-0.016,1.759l-0.134,8.772l-0.367,17.884
					C165.856,177.894,165.447,197.925,167.309,192.369z M278.354,210.977c-6.796,0.396-13.37,0.762-21.1,0.941L278.354,210.977z
					 M209.319,218.735c21.081-1.546,43.809-2.226,64.904-3.317c16.234-0.83,34.111-0.489,48.699-1.886l-0.011-0.453l-1.614,0.188
					c-5.705,0.043-10.303-0.092-15.085-0.107l0.835-0.059l-1.443,0.058c-3.191-0.005-6.499,0.051-10.311,0.258l-5.31,0.333
					c-20.292,0.739-41.234,1.458-59.599,2.834c-11.354,0.716-21.077,1.698-32.437,2.415
					C201.188,218.923,206.071,218.961,209.319,218.735z"/>
				<path fill="#202020" d="M359.414,215.656l21.203-1.007l16.41-0.985l4.935-0.254l2.502-0.119l1.41-0.061
					c0.482,0.055,1.009,0.144,1.355,0.168c3.114,0.324,6.306-0.069,9.31-1.163c3.006-1.093,5.818-2.864,8.263-5.095
					c2.432-2.227,4.564-4.919,5.999-7.841c0.353-0.727,0.657-1.468,0.875-2.191c0.109-0.36,0.198-0.717,0.255-1.053
					c0.027-0.167,0.047-0.328,0.061-0.48l0.048-0.677l0.438-5.396l0.873-10.79l1.643-21.297c-0.372-0.861-0.814-0.997-1.368-0.031
					c-0.771,7.565-1.462,15.138-2.108,22.714l-0.94,11.366l-0.229,2.842l-0.095,1.259c-0.025,0.228-0.085,0.521-0.171,0.834
					c-0.353,1.277-1.075,2.759-1.937,4.126c-3.525,5.548-9.349,9.979-15.623,10.912c-1.568,0.241-3.164,0.28-4.756,0.113
					l-0.597-0.073l-0.896-0.139c-0.313-0.078-0.649-0.008-0.973-0.02l-0.84,0.021l-2.85,0.065l-11.398,0.215l-0.713,0.064
					c-12.978,1.208-34.095,1.396-50.314,2.528c-16.217,1.282-32.451,1.961-48.663,3.093
					C313.986,216.762,336.284,215.919,359.414,215.656z"/>
				<path fill="#202020" d="M167.254,222.334c3.306,1.76,6.615,2.531,9.612,3.01c1.501,0.234,2.945,0.387,4.279,0.52
					c1.33,0.131,2.563,0.247,3.384,0.394l1.26,0.184c0.414,0.065,0.841,0.087,1.264,0.133l2.311-0.082
					c17.924-0.774,33.83-1.597,50.096-2.52l-36.055,0.964c-2.818,0.103-5.535,0.236-8.183,0.39l-8.139,0.525
					c-0.404-0.032-0.815-0.035-1.212-0.092l-1.211-0.153c-0.882-0.107-2.123-0.169-3.453-0.245c-1.333-0.076-2.765-0.17-4.258-0.344
					C173.968,224.656,170.661,224.024,167.254,222.334z"/>
				<path fill="#202020" d="M252.65,223.209l-13.191,0.763l52.8-1.719c28.813-1.284,57.644-2.487,86.452-3.952l9.752-0.43
					c-53.654,1.073-107.142,2.143-152.628,5.104l-2.648,0.172c21.667-0.605,43.096-1.322,64.463-2.057
					C282.644,221.76,267.642,222.448,252.65,223.209z"/>
				<polygon fill="#202020" points="352.625,215.992 357.308,215.902 362.687,215.622 359.414,215.656 				"/>
				<path fill="#202020" d="M306.213,213.159l-0.608-0.001l-15.62,0.591c-7.257,0.443-14.843,0.853-22.593,1.209
					C281.44,214.461,295.339,213.96,306.213,213.159z"/>
				<polygon fill="#202020" points="261.117,210.581 254.62,210.732 251.671,211.073 256.261,210.995 				"/>
				<path fill="#202020" d="M170.81,210.014c1.399,1.45,3.544,2.398,6.271,2.961c1.358,0.281,2.825,0.466,4.414,0.619
					c1.604,0.171,3.263,0.242,5.443,0.627c0.104,0.016,0.208,0.034,0.309,0.057c0.102,0.025,0.211-0.006,0.314-0.007l60.227-2.764
					l3.883-0.434c-17.95,0.324-35.796,0.931-52.233,2.146c-3.239,0.227-8.108,0.793-11.351,0.868l-0.518,0.021
					c-0.101-0.002-0.204,0.025-0.301-0.001c-0.098-0.024-0.196-0.045-0.295-0.063c-2.368-0.43-4.112-0.506-5.799-0.702
					c-1.662-0.176-3.181-0.388-4.551-0.707c-2.774-0.638-4.749-1.659-6.055-3.182c-1.333-1.51-2.181-3.891-2.466-6.722
					c-0.078-0.701-0.117-1.428-0.132-2.168c-0.015-0.761-0.005-1.429,0.044-2.382c0.019-1.753-0.015-3.478-0.019-5.217
					c-0.017,1.755,0.001,3.497-0.043,5.275c-0.028,0.462-0.053,0.912-0.058,1.268c-0.016,0.386-0.011,0.762-0.012,1.141
					c0.012,0.751,0.04,1.494,0.116,2.209c0.272,2.891,1.134,5.34,2.568,6.894C170.643,209.846,170.724,209.929,170.81,210.014z"/>
			</g>
		</g>
	</g>
</g>
<path d="M239.092,152.184c3.944,0.935,6.035,3.863,6.272,8.786h-5.895c-0.06-1.557-1.061-2.261-3.003-2.113h-7.918
	c-1.631,3.529-2.487,6.199-2.569,8.008c-0.081,1.81,0.386,3.511,1.401,5.104s2.121,2.729,3.314,3.403s2.836,0.908,4.927,0.7
	c2.091-0.207,4.025-1.557,5.806-4.048l3.981,4.96c-2.313,2.239-4.189,3.733-5.628,4.482c-1.438,0.748-3.34,1.138-5.705,1.167
	c-2.365,0.03-4.526-0.43-6.483-1.379c-1.958-0.948-3.752-2.71-5.383-5.282c-1.632-2.572-2.357-5.505-2.18-8.797
	s0.607-5.405,1.29-6.34l4.426-1.979h-5.294l0.356-2.112l0.512-2.024l0.979-2.536H239.092z"/>
<path d="M248.745,152.117h19.173c1.349,0.163,2.276,1.031,2.78,2.603l-0.045,8.941c-0.43,2.062-1.053,3.444-1.868,4.148
	s-2.269,1.517-4.359,2.436l1.757,2.803c1.305,2.046,3.151,3.225,5.539,3.536l-0.512,6.851l-3.581-0.667
	c-2.328-0.475-4.79-2.906-7.385-7.296l-1.401-2.669l-3.492,1.646l-0.021,7.94l-6.229,0.044v-5.916l-2.446-5.228l2.402-1.512
	l0.044-9.364l3.048-1.69l-4.805,0.021L248.745,152.117z M255.351,158.745v8.563l6.651-2.624c1.615-0.593,2.424-1.55,2.424-2.869
	v-3.07H255.351z"/>
<path d="M273.59,152.295h21.998v6.34l-12.701,0.021v3.537l10.054,0.022l-0.712,6.116h-9.342v7.852l13.079-1.513l1.868,6.718
	l-23.177,2.914l-0.712-6.718l2.625-0.444v-8.764h-2.758l0.622-5.717l2.18-0.022l-0.021-2.58l3.581-1.313l-6.584,0.022V152.295z"/>
<path d="M300.214,152.14h19.618l4.271,0.022v13.523c0.178,2.269-0.041,4.444-0.656,6.528c-0.615,2.083-1.802,4.114-3.559,6.094
	s-3.692,3.2-5.806,3.659c-2.112,0.459-6.973,0.601-14.58,0.423l0.045-6.317l4.226-0.044l-2.491-1.246v-16.037h-2.135L300.214,152.14
	z M307.71,158.745v17.461c2.254,0.312,4.196-0.033,5.827-1.034s2.721-2.254,3.27-3.759s0.72-5.728,0.512-12.668H307.71z"/>
<path d="M333.778,151.962l-0.022,30.383h-6.695l-0.021-29.36L333.778,151.962z"/>
<path d="M336.937,152.117h20.196l-0.822,6.673h-7.185v14.436c-0.253,2.239,0.504,3.566,2.269,3.981l-1.624,6.272
	c-2.031,0.059-3.748-0.601-5.148-1.979c-1.401-1.379-2.125-3.203-2.169-5.472v-15.903l2.869-1.38l-9.053-0.021L336.937,152.117z"/>
<path d="M360.069,152.073l16.504-0.022c1.794,0.444,2.954,1.445,3.48,3.003c0.526,1.557,0.79,2.921,0.79,4.092l-5.828,1.157
	c0-1.394-1.312-1.987-3.937-1.779h-4.582l13.99,13.701c1.038,1.335,1.172,3.581,0.4,6.739c-0.771,2.017-2.677,3.158-5.716,3.426
	l-11.232-0.022c-1.305-0.43-2.336-1.257-3.092-2.48c-0.756-1.223-1.342-2.739-1.757-4.548l6.094-2.069
	c0.163,1.69,0.846,2.507,2.047,2.447l5.938,0.022c0.904-0.208,0.756-0.86-0.444-1.958l-13.013-12.723l3.203-2.535h-4.093
	L360.069,152.073z"/>
</svg>
