<?xml version="1.0" encoding="utf-8"?>
<!-- Generator: Adobe Illustrator 15.0.0, SVG Export Plug-In . SVG Version: 6.00 Build 0)  -->
<!DOCTYPE svg PUBLIC "-//W3C//DTD SVG 1.0//EN" "http://www.w3.org/TR/2001/REC-SVG-20010904/DTD/svg10.dtd">
<svg version="1.0" id="Layer_1" xmlns="http://www.w3.org/2000/svg" xmlns:xlink="http://www.w3.org/1999/xlink" x="0px" y="0px"
	 width="363.796px" height="144.771px" viewBox="7.96 3.873 363.796 144.771" enable-background="new 7.96 3.873 363.796 144.771"
	 xml:space="preserve">
<g>
	
		<radialGradient id="SVGID_1_" cx="-144.751" cy="-735.6887" r="130.9349" gradientTransform="matrix(-0.0351 1.0054 -2.9031 -0.1014 -1949.074 147.8478)" gradientUnits="userSpaceOnUse">
		<stop  offset="0" style="stop-color:#FFFFFF;stop-opacity:0.2"/>
		<stop  offset="0.0144" style="stop-color:#F4F4F4;stop-opacity:0.2007"/>
		<stop  offset="0.0883" style="stop-color:#C2C2C2;stop-opacity:0.2045"/>
		<stop  offset="0.1677" style="stop-color:#949494;stop-opacity:0.2085"/>
		<stop  offset="0.2505" style="stop-color:#6C6C6C;stop-opacity:0.2128"/>
		<stop  offset="0.3378" style="stop-color:#4A4A4A;stop-opacity:0.2172"/>
		<stop  offset="0.4307" style="stop-color:#2F2F2F;stop-opacity:0.2219"/>
		<stop  offset="0.5313" style="stop-color:#1A1A1A;stop-opacity:0.2271"/>
		<stop  offset="0.6432" style="stop-color:#0B0B0B;stop-opacity:0.2328"/>
		<stop  offset="0.7759" style="stop-color:#030303;stop-opacity:0.2395"/>
		<stop  offset="0.9818" style="stop-color:#000000;stop-opacity:0.25"/>
	</radialGradient>
	<path fill="url(#SVGID_1_)" d="M362.128,43.931c-2.5-19.5-36.059-30.204-44.5-30.5L71.951,12.323
		c-8.454-0.296-35.532,10.784-35.823,19.108l-20.906,79.247c-2.723,30.552,22.506,26.587,30.63,29.016l283.627-6.576
		c21.479,3.79,36.4-16.924,36.691-25.244L362.128,43.931z"/>
	<g>
		<g>
			<g>
				<path fill="#010101" d="M370.861,79.876l0.021-0.449l-0.066-1.569c-0.708-1.761-0.777-5.424-0.91-10.23
					c-0.18,0.011-0.334,0.442-0.533-1.242c-0.117-7.624-0.24-3.803-0.948-9.272c0.107,1.694,0.286,3.809,0.158,4.659l-0.849-10.545
					c-0.254,1.475-0.564,2.692-0.956,0.943c-0.633,1.114-1.696-2.312-2.517-3.581c0.03,1.9,0.025,3.409-0.021,4.121
					c-0.315-0.231-0.563-2.027-0.754-4.246c-0.064,0.173-0.127,0.365-0.176,0.702c0.049-0.337,0.111-0.528,0.176-0.702
					c-0.125-1.455-0.227-3.09-0.304-4.599c-0.036,0.853-0.074,1.706-0.235,1.295l0.401,6.344c-0.056,0.209-0.125,0.008-0.2-0.372
					l0.279,1.628l0.102-1.269c0.107-0.446,0.253,0.4,0.396,1.237c0.151,1.687,0.045,2.128,0.006,2.967l0.531,3.369
					c0.623,1.231-0.245-8.901,0.599-3.44l-0.027,1.703c0.295,2.519,0.509,5.903,0.979,7.574c-0.473,2.577,0.951,7.151,0.118,7.633
					c0.209,9.749,1.689,22.389,1.397,32.166c0.348,0.826,0.804,1.222,1.298,1.933c0.121,0.151,0.253,0.435,0.382,0.737
					c0.132,0.306,0.263,0.661,0.33,1.084c0.073,0.422,0.126,0.91,0.12,1.479c0.002,0.57-0.064,1.236-0.158,1.871
					c-0.377,0.992-1.033,2.338-0.97,1.816c-0.327,1.113-0.719,2.181-1.157,3.217c0.935-1.677,1.808-4.004,2.301-4.982
					c-0.363,1.408-0.528,1.904-0.475,1.965c0.049,0.055,0.286-0.362,0.563-0.962c0.282-0.611,0.574-1.358,0.811-2.097
					c0.233-0.712,0.374-1.217,0.43-1.052c-0.217,1.664-0.589,2.963-1.006,4.211c-0.428,1.243-0.92,2.416-1.466,3.539l0.522-0.729
					c0.781-1.511,1.493-3.099,2.04-4.951c0.283-0.969,0.533-2.126,0.626-3.21c0.067-0.552,0.03-1.106,0.013-1.662l-0.043-1.161
					l-0.261-8.526l-0.515-17.055L370.861,79.876z"/>
				<path fill="#010101" d="M211.93,131.609l0.139,0.677c-24.408,0.998-50.95,1.754-78.917,2.375l-42.93,0.847l-44.042,0.699
					c-0.227-0.067-0.383-0.109-0.675-0.174c-0.392-0.084-0.771-0.155-1.141-0.219c-0.74-0.127-1.447-0.226-2.14-0.315l-4.006-0.499
					c-2.588-0.341-5.068-0.773-7.366-1.478c-2.293-0.702-4.388-1.677-6.097-3.003c-1.716-1.32-3.045-2.991-3.986-4.973
					c-0.945-1.979-1.498-4.255-1.752-6.65c-0.129-1.197-0.18-2.427-0.175-3.671c0.001-0.621,0.022-1.249,0.052-1.878l0.057-0.945
					l0.064-0.79c0.065-0.594,0.575-2.201,0.896-3.465l1.08-3.967l2.161-7.945l17.191-63.692l0.265-0.98l-0.581,0.004
					c0.115-0.001,0.224,0.009,0.325,0.028c0.22,0.026,0.111,0.011,0.135,0.011c0.011-0.021,0.019-0.06,0.044-0.123
					c0.052-0.126,0.158-0.33,0.312-0.563c0.311-0.473,0.822-1.047,1.409-1.607c1.202-1.131,2.713-2.234,4.314-3.246
					c3.222-2.03,6.801-3.781,10.443-5.288c3.638-1.491,7.426-2.795,11.049-3.584c0.898-0.194,1.781-0.343,2.576-0.425
					c0.408-0.04,0.727-0.059,1.084-0.055l1.49,0.005l6.178,0.013l-2.979,2.522c32.086-1.391,68.592-2.154,98.676-3.829l-11.65-0.496
					c10.7-1.359,37.999-2.135,54.825-1.739l-1.668,0.648c-23.068,0.267,1.559,0.222-7.8,1.992l-4.011,0.316l2.343,0.334l4.016-0.317
					c-0.456,0.379-0.115,0.869-3.9,0.996l5.344,0.094c11.483,1.852,11.492,3.401,10.032,5.409c3.017-0.236-0.104-2.229,12.718-1.517
					l-1.682,0.648l14.05-1.108l6.247,0.886c5.008-0.396,8.244-0.822,13.373-0.538l1.567-1.329
					c11.479,0.301,24.464,0.096,37.489-0.048l9.754-0.087l1.214-0.007l0.251,0.001l0.38,0.026c0.552,0.048,1.21,0.143,1.877,0.262
					c1.346,0.241,2.759,0.579,4.155,0.964c5.615,1.567,11.024,3.875,15.577,6.6c2.338,0.538,5.887,2.658,9.318,5.789
					c1.704,1.563,3.351,3.381,4.669,5.324c1.323,1.952,2.286,3.975,2.837,6.132c0.312-1.321,0.402-2.781,0.233-4.328
					c-0.655-2.747-2.891-6.36-6.656-9.685c-3.732-3.349-8.817-6.43-14.46-8.925c-2.823-1.25-5.79-2.366-8.808-3.298
					c-1.508-0.465-3.029-0.885-4.539-1.235c-1.496-0.344-3.04-0.641-4.355-0.741l-9.371-0.137c-3.103-0.056-6.103-0.129-8.944-0.228
					l0.895-0.758c4.774-0.207,8.232-0.821,14.141-0.428l1.554-1.327c-9.951-4.73-40.996,0.821-49.25,0.094
					c-17.499-1.379,11.466-2.8,3.104-2.658c19.271-1.692-16.054-3.385-24.185-4.982c-22.621-3.211-72.391-1.867-102.351-1.915
					C126.379,5.164,107.42,5.427,88,5.313L73.372,5.162l-2.106-0.026c-0.98,0.013-1.822,0.089-2.623,0.184
					c-1.587,0.195-3.003,0.475-4.379,0.789c-2.74,0.633-5.295,1.41-7.81,2.276c-5.018,1.751-9.818,3.807-14.573,6.482
					c-2.379,1.362-4.737,2.847-7.145,4.891c-1.201,1.035-2.431,2.212-3.656,3.851c-0.61,0.835-1.225,1.799-1.763,3.021
					c-0.532,1.215-0.996,2.735-1.075,4.525l0.256-1.737c-4.857,17.024-9.47,33.208-13.212,47.472
					c-1.509,5.338-2.904,11.578-4.269,18.135l-2.033,9.998l-0.508,2.522c-0.049,0.284-0.26,1.188-0.414,1.869
					c-0.033,0.367-0.041,0.739-0.062,1.107l-0.032,0.936c-0.03,1.941,0.028,3.908,0.21,5.894c0.362,3.955,1.235,8.051,3.04,11.886
					c1.773,3.84,4.623,7.232,7.713,9.531c3.09,2.335,6.222,3.729,8.913,4.808c2.708,1.07,5.043,1.845,6.928,2.65
					c1.822,0.3,3.578,0.521,5.165,0.737c0.791,0.107,1.539,0.216,2.18,0.329c0.322,0.056,0.609,0.114,0.851,0.17l0.213,0.053
					l0.508,0.14l1.098,0.322l32.811-0.117l-0.867,0.784c40.454-0.694,85.051-3.559,122.794-5
					c16.488-0.551,21.434-2.635,28.975-0.674c16.396,0.32,34.234-0.462,51.969-1.45l26.329-1.522l12.743-0.666l6.202-0.272
					l3.008-0.115l0.315-0.017c0.123,0.008,0.279,0.036,0.417,0.054l0.692,0.086c0.297,0.033,0.591,0.076,0.889,0.099
					c-0.031-0.344,1.271-0.57,1.702-0.869c0.218-0.143,0.22-0.287-0.248-0.444c-0.234-0.075-0.586-0.165-1.084-0.27l-0.861-0.176
					c-0.323-0.066-0.74-0.142-0.934-0.201c-0.384-0.056-0.665-0.017-0.988,0.018l-1.551,0.093l-3.119,0.146
					c-2.082,0.079-4.163,0.123-6.203,0.136c-4.078,0.025-7.99-0.075-11.411-0.271c-6.841-0.393-11.716-1.167-12.024-2.085
					l6.126,0.037l-10.966-1.248l-7.002,0.749c-1.804-0.414-2.615-0.753-2.745-1.041c-12.046-0.377-22.544-1.767-35.038-2.591
					C235.891,131.854,225.819,132.195,211.93,131.609z"/>
			</g>
		</g>
	</g>
</g>
<path d="M136.488,30.017h10.454v23.244c-0.074,2.017-0.322,3.763-0.745,5.238c-0.422,1.476-1.65,2.987-3.681,4.537
	c-2.032,1.55-4.693,2.495-7.985,2.836l-0.534-6.673c2.076-0.178,3.707-1.026,4.893-2.547c1.186-1.52,1.676-7.766,1.468-18.739
	l3.025-1.557h-8.408L136.488,30.017z"/>
<path d="M155.862,29.884v2.914l1.735-2.914h14.68c1.809,0.504,2.661,3.055,2.558,7.651v20.04c-0.355,1.632-1.742,2.484-4.159,2.559
	h-16.971c-2.521,0.104-3.981-0.993-4.381-3.292V31.24L155.862,29.884z M155.862,36.446v17.127h12.411V36.446H155.862z"/>
<path d="M177.882,29.95h12.122l-0.89,6.406h-1.957v17.683h2.491l-0.356,6.206H177.17l0.601-6.251l2.603,0.022l0.044-16.081
	l2.803-1.579h-5.983L177.882,29.95z"/>
<path d="M192.672,30.017h6.451l-0.022,4.805l0.756-1.868c2.832,0.756,4.927,1.605,6.283,2.547c1.357,0.941,2.762,2.479,4.216,4.615
	l0.311,0.89l-0.021-10.943h6.405v24.956c0.104,1.143-0.389,2.354-1.479,3.637c-1.09,1.283-3.325,1.835-6.706,1.657v-6.295
	c1.482-0.118,2.105-1.075,1.868-2.869c0.015-1.008-0.204-2.102-0.656-3.281c-0.452-1.179-1.861-2.75-4.227-4.715
	s-4.615-3.244-6.75-3.837v20.997h-6.473L192.672,30.017z"/>
<path d="M63.466,84.72c2.253,0.416,3.417,1.913,3.492,4.493l-0.045,11.299c-0.208,2.313-1.431,3.448-3.67,3.403h-9.142l-2.135-3.825
	v10.098c-0.356,2.254-1.12,3.651-2.291,4.193c-1.171,0.541-3.04,0.797-5.605,0.767l-0.022-5.85c1.068,0.252,1.549-1.238,1.446-4.471
	V93.017l3.47-1.936l-5.227-0.022l1.313-6.339H63.466z M51.789,91.081l0.022,5.739l8.43,0.021v-5.761H51.789z"/>
<path d="M76.478,84.276c-0.845,7.8-0.96,13.026-0.345,15.681s1.598,4.753,2.947,6.295c1.349,1.542,4.404,1.913,9.164,1.112
	l-0.022-22.776l6.45,0.378v29.138l-6.45,0.645v-3.67l-1.157,4.026l-1.401,0.312c-4.167,0.073-7.314-0.512-9.442-1.758
	c-2.128-1.245-3.881-3.773-5.26-7.584c-1.379-3.812-1.943-9.313-1.69-16.505l0.378-4.114L76.478,84.276z"/>
<path d="M98.076,84.654h13.879c2.98,0.163,4.79,0.867,5.427,2.113c0.637,1.245,0.897,2.58,0.778,4.003
	c-0.119,1.424-1.179,3.233-3.181,5.428c3.114-0.119,4.849,0.993,5.205,3.336v9.698c-0.163,1.734-0.73,3.08-1.702,4.037
	c-0.971,0.956-2.154,1.598-3.547,1.924c-3.262,0.771-6.644,0.43-10.143-1.023l2.224-5.583c3.144,0.994,5.104,1.234,5.883,0.724
	c0.778-0.512,1.093-3.073,0.945-7.686l-8.408,0.045v5.472c-0.786,5.68-3.47,8.252-8.052,7.718v-5.627
	c1.379,0.015,1.957-1.157,1.735-3.515v-3.848h-1.779l0.022-5.672l2.269,0.044V90.97h-2.358L98.076,84.654z M105.438,90.97v4.982
	l2.869-0.622c2.017-1.083,2.936-2.536,2.758-4.36H105.438z"/>
<path d="M124.789,84.565h6.606l-0.022,15.903l3.781,0.044l-0.645,5.339l-2.958,0.022v1.979l11.877-0.022l-0.689,6.984l-20.485-0.045
	l1.001-6.873h1.401v-1.979h-2.18l0.578-5.427l1.69-0.022L124.789,84.565z"/>
<path d="M152.993,84.476l-0.022,30.383h-6.695l-0.022-29.36L152.993,84.476z"/>
<path d="M175.101,84.698c3.944,0.935,6.035,3.863,6.272,8.786h-5.894c-0.06-1.557-1.061-2.261-3.003-2.113h-7.918
	c-1.631,3.529-2.488,6.199-2.569,8.008c-0.082,1.81,0.386,3.511,1.401,5.104s2.121,2.729,3.314,3.403
	c1.194,0.675,2.836,0.908,4.927,0.7c2.091-0.207,4.026-1.557,5.806-4.048l3.981,4.96c-2.313,2.239-4.189,3.733-5.628,4.482
	c-1.438,0.748-3.34,1.138-5.705,1.167c-2.365,0.03-4.526-0.43-6.483-1.379c-1.958-0.948-3.752-2.71-5.383-5.282
	c-1.631-2.572-2.357-5.505-2.18-8.797s0.608-5.405,1.29-6.34l4.426-1.979h-5.294l0.356-2.112l0.512-2.024l0.979-2.536H175.101z"/>
<path d="M198.367,84.565h6.606l-0.022,15.903l3.781,0.044l-0.646,5.339l-2.958,0.022v1.979l11.878-0.022l-0.689,6.984l-20.485-0.045
	l1-6.873h1.401v-1.979h-2.18l0.578-5.427l1.69-0.022L198.367,84.565z"/>
<path d="M225.614,84.565v2.914l1.734-2.914h14.68c1.81,0.504,2.662,3.055,2.559,7.651v20.04c-0.356,1.632-1.743,2.484-4.159,2.559
	h-16.972c-2.521,0.104-3.981-0.993-4.382-3.292V85.921L225.614,84.565z M225.614,91.126v17.127h12.411V91.126H225.614z"/>
<path d="M247.989,84.654h13.88c2.98,0.163,4.789,0.867,5.427,2.113c0.638,1.245,0.897,2.58,0.778,4.003
	c-0.118,1.424-1.179,3.233-3.181,5.428c3.114-0.119,4.85,0.993,5.205,3.336v9.698c-0.163,1.734-0.73,3.08-1.701,4.037
	c-0.972,0.956-2.154,1.598-3.548,1.924c-3.263,0.771-6.644,0.43-10.143-1.023l2.225-5.583c3.143,0.994,5.104,1.234,5.883,0.724
	c0.778-0.512,1.093-3.073,0.945-7.686l-8.408,0.045v5.472c-0.786,5.68-3.47,8.252-8.052,7.718v-5.627
	c1.379,0.015,1.958-1.157,1.735-3.515v-3.848h-1.779l0.022-5.672l2.269,0.044V90.97h-2.358L247.989,84.654z M255.352,90.97v4.982
	l2.87-0.622c2.016-1.083,2.936-2.536,2.758-4.36H255.352z"/>
<path d="M273.568,84.654h13.88c2.98,0.163,4.789,0.867,5.427,2.113c0.638,1.245,0.897,2.58,0.778,4.003
	c-0.118,1.424-1.179,3.233-3.181,5.428c3.114-0.119,4.85,0.993,5.205,3.336v9.698c-0.163,1.734-0.73,3.08-1.701,4.037
	c-0.972,0.956-2.154,1.598-3.548,1.924c-3.263,0.771-6.644,0.43-10.143-1.023l2.225-5.583c3.143,0.994,5.104,1.234,5.883,0.724
	c0.778-0.512,1.093-3.073,0.945-7.686l-8.408,0.045v5.472c-0.786,5.68-3.47,8.252-8.052,7.718v-5.627
	c1.379,0.015,1.958-1.157,1.735-3.515v-3.848h-1.779l0.022-5.672l2.269,0.044V90.97h-2.358L273.568,84.654z M280.931,90.97v4.982
	l2.87-0.622c2.016-1.083,2.936-2.536,2.758-4.36H280.931z"/>
<path d="M301.795,84.698l8.452,16.571c1.542-1.557,2.613-3.637,3.214-6.239s0.76-5.75,0.479-9.441l6.184,0.244
	c-0.075,7.859-0.916,13.35-2.525,16.471c-1.608,3.121-3.588,5.924-5.938,8.407c-2.351,2.484-5.179,4.778-8.485,6.885l-2.646-6.272
	l5.716-4.671l-9.275-17.861L301.795,84.698z"/>
</svg>
