<?xml version="1.0" encoding="utf-8"?>
<!-- Generator: Adobe Illustrator 15.0.0, SVG Export Plug-In . SVG Version: 6.00 Build 0)  -->
<!DOCTYPE svg PUBLIC "-//W3C//DTD SVG 1.0//EN" "http://www.w3.org/TR/2001/REC-SVG-20010904/DTD/svg10.dtd">
<svg version="1.0" id="Layer_1" xmlns="http://www.w3.org/2000/svg" xmlns:xlink="http://www.w3.org/1999/xlink" x="0px" y="0px"
	 width="235.721px" height="103.672px" viewBox="72.458 24.083 235.721 103.672"
	 enable-background="new 72.458 24.083 235.721 103.672" xml:space="preserve">
<g>
	
		<radialGradient id="SVGID_1_" cx="-133.9346" cy="-666.7332" r="99.1534" gradientTransform="matrix(-0.0268 1.0054 -1197.7247 -54.8843 -798374.0625 -36377.7031)" gradientUnits="userSpaceOnUse">
		<stop  offset="0" style="stop-color:#FFFFFF;stop-opacity:0.2"/>
		<stop  offset="0.0144" style="stop-color:#F4F4F4;stop-opacity:0.2007"/>
		<stop  offset="0.0883" style="stop-color:#C2C2C2;stop-opacity:0.2045"/>
		<stop  offset="0.1677" style="stop-color:#949494;stop-opacity:0.2085"/>
		<stop  offset="0.2505" style="stop-color:#6C6C6C;stop-opacity:0.2128"/>
		<stop  offset="0.3378" style="stop-color:#4A4A4A;stop-opacity:0.2172"/>
		<stop  offset="0.4307" style="stop-color:#2F2F2F;stop-opacity:0.2219"/>
		<stop  offset="0.5313" style="stop-color:#1A1A1A;stop-opacity:0.2271"/>
		<stop  offset="0.6432" style="stop-color:#0B0B0B;stop-opacity:0.2328"/>
		<stop  offset="0.7759" style="stop-color:#030303;stop-opacity:0.2395"/>
		<stop  offset="0.9818" style="stop-color:#000000;stop-opacity:0.25"/>
	</radialGradient>
	<path fill="url(#SVGID_1_)" d="M300.286,77.087c0.171-6.43-39.339-33-59.541-36l-139.814-10c-8.506-1-22.328,5-21.796,18.5
		l4.784,46.5c-1.603,23.601,21.267,24.624,26.049,26.5l131.841-2.5c12.646,2.928,64.153-26.572,64.325-33L300.286,77.087z"/>
	<g>
		<g>
			<g>
				<path fill="#202020" d="M296.632,66.852c0.928,0.808,1.79,1.627,1.79,1.627c0.03-0.032,0.04-0.082,0.06-0.123
					C297.813,67.784,297.206,67.297,296.632,66.852z"/>
				<path fill="#202020" d="M293.848,66.566l0.564,0.469c-0.041-0.082-0.028-0.117-0.04-0.173L293.848,66.566z"/>
				<path fill="#202020" d="M298.484,68.353c0.202-0.475-0.232-1.541,1.026-1.023c1.015,0.942,3.012,2.981,4.063,4.563
					c1.277,1.498,0.445-0.301,0.652-0.448c0.541,0.796,1.129,1.771,1.56,2.999c0.213,0.608,0.368,1.266,0.438,1.846
					c0.074,0.559,0.076,0.973,0.112,0.958c0.081,0.208,0.158,0.279,0.231,0.231c0.036-0.024,0.071-0.078,0.105-0.159
					c0.009-0.027,0.017-0.028,0.025-0.081l0.021-0.374c0.011-0.281,0.004-0.546-0.017-0.832c-0.084-1.167-0.422-2.248-0.825-3.161
					c-0.41-0.922-0.892-1.711-1.415-2.452c-1.498-1.399-3.239-2.729-4.917-3.919c-1.673-1.182-3.273-2.201-4.357-2.794
					c-1.084-0.59-1.643-0.758-1.224-0.152C294.376,64.184,295.792,65.502,298.484,68.353z"/>
				<path fill="#202020" d="M289.761,62.544c1.809,1.342,3.591,2.73,5.336,4.206c0.738,0.227,1.677,0.647,1.346-0.043
					C293.57,64.53,291.696,63.459,289.761,62.544z"/>
				<path fill="#202020" d="M303.658,93.403c-0.06-0.064,0.025-0.158,1.146-1.042C304.412,92.733,304.045,93.069,303.658,93.403
					c0.039,0.063,0.198,0.081-0.321,0.579c1.038-0.921,2.08-1.914,2.988-3.015c0.453-0.55,0.867-1.128,1.215-1.744
					c0.324-0.612,0.676-1.291,0.637-2.022c-0.629-1.307-1.313-2.656-2.045-3.979c-0.365-0.661-0.741-1.316-1.123-1.958l-0.991-1.658
					c-0.448-0.488-0.887-0.957-1.297-1.377l2.439,4.139c0.883,1.547,1.71,3.139,2.472,4.688c0.149,0.182,0.036,0.425,0.011,0.63
					c-0.051,0.212-0.125,0.416-0.211,0.613c-0.172,0.395-0.388,0.767-0.626,1.125c-0.48,0.714-1.048,1.379-1.659,2.013
					c-0.609,0.636-1.264,1.235-1.93,1.819l-1.012,0.858l-0.888,0.725c-4.717,3.744-9.421,6.874-13.621,9.794
					c3.102-1.843,5.652-3.516,8.132-5.246c1.24-0.867,2.462-1.749,3.718-2.694l1.915-1.477l0.997-0.802L303.658,93.403z"/>
				<path fill="#202020" d="M301.551,77.801l-0.639-1.08C301.38,77.755,301.476,77.834,301.551,77.801z"/>
				<path fill="#202020" d="M105.656,125.28c-3.781-0.802-7.609-1.708-11.224-3.246c-3.611-1.52-7.126-3.723-9.941-6.907
					c3.217,3.897,7.523,6.455,11.672,8.058c2.087,0.814,4.173,1.419,6.188,1.907c2.009,0.495,3.98,0.846,5.612,1.236l1.212,0.252
					c0.397,0.094,0.82,0.092,1.225,0.142l8.003-0.368l6.96-0.399l-14.936,0.334c-0.391-0.053-0.8-0.048-1.182-0.148l-1.163-0.269
					C107.291,125.655,106.526,125.484,105.656,125.28z"/>
				<path fill="#202020" d="M75.798,80.314c0.359,4.698,0.82,8.97,1.341,12.982l0.389,2.835c0.015,0.062,0.035,0.118,0.037,0.192
					l0.009,0.105l-0.004,0.387c0.004,0.576,0.005,1.146,0.034,1.723c0.098,2.293,0.42,4.593,1.028,6.85
					c-0.537-2.314-0.773-4.617-0.81-6.853c-0.015-0.561,0-1.112,0.006-1.667l0.017-0.524c0.005-0.078-0.004-0.146-0.016-0.211
					l-0.311-2.605L76.21,82.393L75.798,80.314z"/>
				<path fill="#202020" d="M77.688,90.626l0.343,3.154l0.305,2.513l-0.01,1.343c-0.004,0.575,0.026,1.155,0.049,1.728
					c0.072,1.152,0.192,2.296,0.382,3.431c0.744,4.53,2.705,8.955,5.734,12.332c-1.623-1.95-2.921-4.183-3.834-6.486
					c-0.926-2.307-1.46-4.669-1.765-6.959c-0.143-1.145-0.229-2.274-0.27-3.385c-0.011-0.552-0.029-1.105-0.021-1.646
					c0.004-0.172,0-0.199-0.003-0.244l-0.009-0.143c-0.008-0.093-0.037-0.175-0.054-0.262L77.688,90.626z"/>
				<path fill="#202020" d="M232.724,113.777c4.017-0.346,6.913-0.563,8.952-0.689l1.777-0.11l-0.231,1.009l0.094-0.408l0.039-0.201
					c0.012-0.066,0.026-0.153,0.021-0.126c0.007-0.005,0.016-0.008,0.021-0.009c0.03-0.006,0.06-0.006,0.113-0.01l0.354-0.015
					l2.178-0.938l-0.719,0.118c-0.523,0.108-1,0.18-1.357,0.218l-0.406,0.037c-0.047,0.006-0.067,0.008-0.08,0.016
					c0.021-0.121-0.048,0.301-0.098,0.551c-0.042,0.256-0.096,0.512-0.16,0.768l0.404-1.588l-1.961,0.107l-13.133,0.719
					c-2.449,0.214-4.785,0.438-6.743,0.693L232.724,113.777z"/>
				<path fill="#202020" d="M243.864,113.217c-0.333,0.153-0.46,0.253-0.521,0.343c-0.03,0.044-0.046,0.083-0.049,0.116l-0.073,0.31
					l0.658-2.77l-2.194,2.381c-0.014,0.015-0.013,0.026,0.001,0.037l1.356,1.038l0.179-0.687c0.066-0.259,0.019-0.107,0.061-0.138
					c0.024,0.005,0.105-0.004,0.225-0.021c0.25-0.037,0.707-0.142,1.098-0.282c0.386-0.135,0.676-0.286,0.592-0.349
					C245.136,113.127,244.604,113.173,243.864,113.217z"/>
				<polygon fill="#202020" points="207.28,121.954 206.412,121.971 203.892,122.109 				"/>
				<path fill="#202020" d="M137.056,119.55c4.974-0.147,9.956-0.337,14.853-0.556c-10.097,0.331-20.28,0.661-28.708,1.214
					c1.254-0.024,2.524,0.085,3.782,0.061C129.496,119.957,133.264,119.621,137.056,119.55z"/>
				<path fill="#202020" d="M246.522,120.054c-1.557,0.259-3.157,0.433-4.737,0.134l0.025,0.003
					c-12.054,0.542-23.892,1.145-35.398,1.78c-26.438,0.55-51.924,1.349-74.801,2.861c-2.956,0.211-6.239,0.399-9.752,0.576
					l-11.409,0.508c-0.379-0.044-0.778-0.025-1.149-0.121l-1.133-0.249c-2.032-0.484-4.46-0.911-6.865-1.562
					c-2.419-0.641-4.891-1.469-7.305-2.623c-2.409-1.155-4.77-2.65-6.837-4.573c-2.07-1.911-3.818-4.248-5.045-6.765
					c-1.241-2.516-1.985-5.166-2.386-7.725c-0.201-1.281-0.327-2.546-0.379-3.779c-0.029-0.617-0.044-1.229-0.044-1.831
					c0.004-0.477-0.026-0.495-0.105-0.896c-0.668-4.143-1.357-7.99-2.07-11.389c0.166,2.161,0.353,4.231,0.557,6.222
					c-0.481-2.923-0.973-5.677-1.477-8.233l-2.854-24.717l-0.701-6.166l-0.087-0.771l-0.063-0.569
					c-0.028-0.228-0.023-0.469-0.033-0.703c-0.026-0.742-0.012-1.415,0.02-2.134c0.083-1.42,0.274-2.862,0.627-4.287
					c0.684-2.853,1.975-5.613,3.696-7.963c1.718-2.36,3.826-4.318,6.094-5.878c2.274-1.562,4.71-2.747,7.251-3.603
					c2.545-0.852,5.193-1.385,8.025-1.503c0.71-0.026,1.433-0.024,2.172,0.013l1.826,0.135l3.115,0.206l6.244,0.418l25.194,1.75
					c5.026,0.359,8.827,0.234,13.85,0.593l15.074,1.004c0.021-0.029-0.039-0.063-0.174-0.101c20.692,1.313,41.056,2.508,62.5,3.607
					l7.536,0.483l3.767,0.267l2.058,0.149c0.31,0.014,0.638,0.068,0.962,0.122l0.638,0.108l1.149,0.217
					c5.995,1.265,11.063,3.292,16.024,5.446c3.685,1.657,3.438,2.155,5.766,3.439c4.589,2.662,8.436,5.159,12.367,7.807
					c3.924,2.662,7.925,5.455,12.642,9.03l-0.233,0.32c1.493,1.029,2.794,2.024,3.828,2.891c-2.699-1.211-7.02-3.68-9.23-4.616
					c-1.103-0.477-1.664-0.596-1.209-0.034c0.45,0.569,1.931,1.8,4.803,4.192l-0.003,0.004c-0.694-0.453-1.325-0.85-1.929-1.22
					l-0.205-0.144c0.005,0.01,0.002,0.014,0.005,0.021c-2.991-1.819-4.903-2.75-6.887-3.511c1.877,1.198,3.736,2.43,5.577,3.705
					c-0.453-0.089-0.783-0.09-0.699,0.191l-0.543-0.245l-1.507-1.017c-0.325-0.095-0.578-0.142-0.769-0.146
					c-2.576-1.372-5.855-3.165-8.363-4.393c-2.506-1.232-4.217-1.933-3.588-1.269c1.03,0.902,4.807,2.777,8.928,5.22
					c0.217,0.197,0.471,0.416,0.736,0.63c-5.367-3.254-0.49,0.767-3.737-1.118c-4.249-2.629-8.662-4.978-13.102-7.236
					c-4.522-2.292-8.972-4.287-13.422-5.846c-2.224-0.774-4.449-1.44-6.667-1.908c-0.555-0.117-1.107-0.221-1.659-0.309
					c-0.302-0.046-0.467-0.077-0.719-0.087l-0.873-0.056l-3.525-0.224c-9.391-0.589-18.741-1.126-28.811-1.648l-2.652-0.143
					c-9.763-0.534-18.97-1.164-28.508-1.949l1.919-0.12c-7.672-0.633-15.364-1.212-23.072-1.563l-28.508-1.295l-14.542-0.761
					l-7.393-0.429l-3.733-0.229c-0.322-0.032-0.564-0.051-0.805-0.061c-0.248-0.011-0.499-0.017-0.753-0.013
					c-0.508,0.004-1.026,0.035-1.549,0.09c-4.399,0.471-8.814,2.561-11.558,5.684c-1.378,1.56-2.339,3.367-2.803,5.328
					c-0.239,0.979-0.352,1.998-0.359,3.04c-0.001,0.239,0.003,0.571,0.016,0.737c-0.001,0.087,0.017,0.181,0.026,0.272l0.056,0.484
					l0.225,1.938c1.202,10.337,2.449,20.709,3.766,31.352c-1.189-8.686-2.351-17.365-3.361-26.297l-0.605-5.998l-0.153-1.479
					c-0.02-0.154-0.021-0.259-0.025-0.441c-0.009-0.202,0.001-0.4-0.001-0.6c0.015-0.795,0.097-1.569,0.234-2.32
					c-0.158,0.775-0.256,1.569-0.271,2.379c-0.002,0.203-0.009,0.405-0.001,0.609c0,0.154,0.005,0.252,0.029,0.458l0.153,1.488
					l0.642,5.903c0.768,7.726,1.521,15.559,2.389,22.933c0.434,3.688,0.896,7.26,1.404,10.646l0.823,5.185
					c0.063,0.567,0.009,1.294,0.041,1.537l0.077,1.024c0.071,0.669,0.158,1.317,0.286,1.933c-0.019,1.082-0.142,1.101,0.015,2.121
					c0.603,3.574,2.205,6.609,4.71,8.829c2.492,2.238,5.789,3.648,9.08,4.418c0.011-0.099,3.347,0.825,2.307,0.261
					c1.699,0.433,3.512,0.761,5.728,1.319c0.104,0.025,0.206,0.054,0.307,0.087c0.1,0.037,0.213,0.002,0.318,0.006l7.893-0.253
					c2.759-0.097,5.471-0.207,8.036-0.346c3.272-0.147,6.528-0.463,9.792-0.834l82.879-3.661c6.958-0.253,14.948-0.414,22.063-0.55
					l2.201-0.043l-0.628,2.366c0.103-0.388,0.149-0.73,0.232-1.159l0.142-0.973l-0.143,0.976c-0.082,0.429-0.129,0.77-0.231,1.156
					l0.643-2.421l-2.215,0.132c-10.506,0.624-21.321,1.185-32.301,1.712c-10.945,0.11-21.425,0.311-30.041,1.15l-6.009,0.47
					l36.05-1.62c6.463-0.066,13.083-0.102,19.573-0.22l-0.39,0.035l-15.389,0.772c-9.733,0.098-19.092,0.268-27.107,0.896
					l-2.939,0.256l-6.005,0.468l22.34-0.982l13.712-0.637l8.646-0.079l-0.903,0.118c-2.529,0.179-9.553,1.862-5.769,2.188
					c8.351-0.173,18.151-0.483,26.604-0.77l0.499-0.018l0.635,0.136c0.396,0.085,1.449,0.075,2.448-0.075
					c1.028-0.146,2.104-0.382,3.139-0.654c2.075-0.546,3.992-1.213,5.588-1.802c3.198-1.193,5.153-2.073,5.168-2.027
					c0.394-0.006-1.953,1.213-5.441,2.608c-1.74,0.689-3.774,1.417-5.824,1.96c-1.021,0.269-2.049,0.491-2.989,0.615
					c-0.929,0.131-1.807,0.135-2.247,0.063l-0.694-0.113l-0.267,0.013c-6.158,0.304-11.225,0.544-10.719,0.588l5.587,0.046
					l-5.081,0.438c-3.774,0.203-8.817,0.167-11.337,0.479c-8.799,0.959-18.885,0.886-28.95,1.603l-21.386,1.859
					c0.005,0.263-3.787,0.203-2.518,0.443c-7.11,0.135-15.335,0.291-18.368,1.118l-0.515,0.031c-0.5,0.009-1.213,0.066-1.973,0.142
					c-11.832,0.088-20.072,0.977-30.789,1.688l-5.165,0.173c-0.342-0.036-0.706,0.004-1.04-0.096
					c-0.332-0.093-0.672-0.176-1.017-0.255c-1.399-0.365-2.921-0.668-4.479-1.061c1.314,0.335,2.965,0.712,4.461,1.13
					c0.346,0.084,0.688,0.173,1.021,0.269c0.339,0.104,0.704,0.068,1.048,0.107l1.499-0.044l1.196-0.064l2.476-0.159
					c9.559-0.355,18.655-0.88,27.741-1.338c0.741-0.093,1.933-0.24,3.048-0.35l1.975-0.01c0.156-0.058,0.328-0.111,0.513-0.163
					c8.69-0.543,18.524-0.865,25.928-1.395c13.969-0.715,28.878-0.776,43.136-0.971l-20.944,1.111l24.577-1.165l3.619-0.063
					l7.565-0.144l-7.012-0.008l13.911-0.75l2.05-0.088l0.075-0.004l0.127,0.024c1.327,0.255,2.824,0.12,4.282-0.117
					c1.468-0.247,2.936-0.619,4.392-1.052c2.914-0.869,5.789-1.97,8.633-3.16c5.685-2.397,11.258-5.17,16.735-8.121
					c5.473-2.962,10.861-6.109,16.059-9.489c2.593-1.693,5.147-3.444,7.552-5.318l0.828-0.658l0.734-0.612
					c0.485-0.415,0.96-0.843,1.412-1.295c0.45-0.453,0.886-0.928,1.24-1.462c0.174-0.268,0.331-0.555,0.399-0.868
					c0.009-0.075,0.046-0.163,0.006-0.231l-0.118-0.207l-0.236-0.414c0.197,0.179,0.405,0.376,0.624,0.593
					c0.212,0.224,0.165,0.516,0.163,0.777c-0.608,1.216-1.634,2.15-2.613,3.071c-0.502,0.454-1.016,0.893-1.54,1.321
					c-0.571,0.466-1.172,0.938-1.768,1.392c-2.396,1.823-4.864,3.519-7.301,5.138c-4.882,3.231-9.648,6.149-13.925,8.833
					c6.259-3.374,10.394-6.052,16.106-9.813c0.036,0.066,0.152,0.122-0.299,0.477c1.79-1.266,3.711-2.664,5.629-4.174
					c1.955-1.562,3.725-3.002,5.252-4.757c-0.602,1.247-1.64,2.611-2.884,4.051c-1.815,1.81-4.917,4.023-8.037,6.196
					c-6.844,4.553-13.794,8.479-20.882,12.073c-3.549,1.79-7.139,3.486-10.816,5.056c-3.683,1.56-7.436,3.024-11.424,4.124
					c-1.36,0.335-2.744,0.618-4.173,0.788c-1.433,0.153-2.908,0.244-4.502-0.108l0.308,0.032l-34.552,0.607
					c12.197-0.557,23.536-1.103,34.531-1.708l-0.039-0.004C243.38,120.53,244.979,120.332,246.522,120.054z M265.87,46.808
					c-1.199-0.555-2.45-1.108-3.709-1.637l0.51,0.349C263.791,46.065,264.946,46.51,265.87,46.808z M236.771,37.235l3.352,0.301
					l1.021,0.082l1.09,0.183c0.648,0.118,1.296,0.252,1.943,0.398c2.591,0.587,5.19,1.38,7.802,2.293
					c5.216,1.836,10.475,4.165,15.506,6.695c0.074-0.002,0.125-0.015,0.139-0.042c-4.153-2.255-8.937-4.523-14.134-6.435
					c-2.603-0.951-5.308-1.814-8.135-2.472c-0.708-0.164-1.423-0.314-2.147-0.446c-0.766-0.127-1.34-0.256-2.408-0.345
					L236.771,37.235z M202.534,32.039l0.203,0.058c-0.005-0.021-0.016-0.042-0.014-0.062L202.534,32.039z M79.078,69.509
					c-0.843-4.979-1.587-10.604-2.315-16.547l-0.272-2.243l-0.069-0.577c-0.036-0.248-0.055-0.501-0.058-0.758
					c-0.02-0.461-0.021-0.881-0.012-1.329c0.039-1.764,0.312-3.575,0.859-5.33c1.077-3.528,3.31-6.713,6.077-9.068
					c1.684-1.392,3.458-2.645,5.542-3.718c2.084-1.059,4.478-1.96,7.402-2.329c0.912-0.125,1.792-0.204,2.65-0.229
					c0.43-0.011,0.853-0.016,1.273-0.001l0.625,0.027l0.528,0.035l3.723,0.122c2.364,0.07,4.572,0.128,7.092,0.243l-3.75-0.533
					c8.785,0.76,13.881,0.331,22.644,1.223c0.012-0.132,1.289-0.305,2.546-0.215c6.287,0.317,12.551,1.029,17.595,1.126
					c6.289,0.318,12.561,0.766,17.61,0.863c1.26,0.09,3.797-0.126,6.324-0.078l9.202,0.535l-0.368-0.132
					c-2.494-0.184-5.027-0.352-7.563-0.444c-7.561-0.276-16.368-0.641-23.911-1.048c-9.433-0.542-18.556-0.997-27.524-1.406
					l-13.356-0.587l-6.627-0.279l-3.307-0.138l-0.881-0.053c-0.354-0.021-0.704-0.032-1.05-0.034
					c-0.693-0.005-1.375,0.024-2.045,0.08c-4.584,0.44-8.757,2.112-12.456,4.598c-2.748,1.894-5.368,4.516-7.105,7.782
					c-1.764,3.264-2.472,6.992-2.269,10.462c0.003,0.253,0.042,0.518,0.07,0.745l0.07,0.538l0.14,1.065l0.28,2.086l0.57,3.946
					c0.385,2.513,0.782,4.766,1.205,6.62C78.429,65.772,78.687,68.278,79.078,69.509z M86.21,82.936
					c-0.958-6.579-1.878-13.523-2.705-20.383l-1.164-10.172l-0.265-2.483c-0.057-0.493-0.055-0.538-0.063-0.956
					c0-0.347,0.009-0.691,0.028-1.032c0.084-1.361,0.364-2.657,0.817-3.85c0.352-0.963,0.899-2.113,1.741-3.289
					c0.839-1.174,1.98-2.368,3.38-3.423c2.783-2.13,6.62-3.622,10.081-4.012c0.875-0.098,1.67-0.143,2.508-0.107
					c0.907,0.019,1.786,0.016,2.603,0.015c1.637-0.007,3.053-0.042,4.147-0.113c2.187-0.141,3.082-0.424,1.861-0.908
					c-1.589,0.247-4.08,0.339-7.207,0.32c-0.782,0.011-1.625-0.044-2.37-0.034c-0.779,0.017-1.596,0.085-2.437,0.21
					c-1.682,0.251-3.462,0.725-5.225,1.447c-3.512,1.428-7.015,3.947-8.989,7.489c-0.995,1.754-1.587,3.734-1.756,5.78
					c-0.046,0.511-0.057,1.027-0.056,1.543c0.01,0.279,0.003,0.456,0.035,0.687l0.089,0.85l0.358,3.417
					C83.515,72.01,85.154,87.446,86.21,82.936z M160.419,115.578c-5.272,0.308-10.373,0.592-16.369,0.705L160.419,115.578z
					 M107.13,121.118c0.688,0.12,1.401,0.244,2.098,0.4c0.247,0.054,0.491,0.113,0.731,0.186c0.238,0.08,0.503-0.011,0.754-0.007
					l5.692-0.361l5.827-0.32l11.75-0.549c7.845-0.341,15.671-0.648,23.227-1.035c12.595-0.635,26.462-0.237,37.78-1.376
					l-0.007-0.396l-1.253,0.156c-4.425,0.006-7.992-0.138-11.701-0.178l0.647-0.047l-1.119,0.043
					c-2.476-0.021-5.042,0.009-7.999,0.168l-4.119,0.262c-15.743,0.532-31.99,1.045-46.237,2.145l-6.402,0.459l-6.052,0.502
					c-0.232,0.001-0.48,0.091-0.704,0.021c-0.224-0.062-0.453-0.113-0.686-0.159c-1.796-0.363-3.544-0.595-5.302-0.95
					c-1.757-0.346-3.526-0.773-5.302-1.373C101.036,119.64,104.634,120.702,107.13,121.118z"/>
				<path fill="#202020" d="M223.294,120.113l16.449-0.762l2.049-0.118l0.061-0.004l0.148,0.025
					c1.545,0.264,3.282,0.015,4.948-0.336c1.68-0.364,3.345-0.876,4.989-1.453c4.691-1.607,9.473-3.716,14.296-6.021
					c4.821-2.318,9.686-4.866,14.497-7.593c4.807-2.731,9.58-5.634,14.102-8.77c1.128-0.785,2.238-1.587,3.317-2.409
					c0.54-0.411,1.071-0.828,1.592-1.25c0.469-0.383,0.832-0.692,1.239-1.055c0.78-0.707,1.545-1.434,2.144-2.281
					c0.146-0.213,0.281-0.436,0.381-0.675c0.077-0.229,0.218-0.521,0.005-0.728l-0.812-1.331c-0.664-0.367-1.066-0.272-1.265,0.199
					l0.64,1.168c0.011,0.446-0.32,0.836-0.584,1.181c-0.581,0.69-1.259,1.279-1.94,1.845l-1.313,1.038l-1.694,1.266
					c-1.147,0.835-2.322,1.652-3.515,2.455c-4.774,3.208-9.764,6.213-14.835,9.047c-5.076,2.827-10.257,5.484-15.536,7.833
					c-2.64,1.17-5.306,2.263-7.988,3.208c-2.676,0.938-5.398,1.755-8.004,2.189l-0.477,0.121c-1.258,0.315-2.741,0.515-3.728,0.366
					l-0.555-0.084l-0.152,0.01c-9.977,0.633-23.439,0.781-34.151,1.546c-12.581,1.029-25.176,1.532-37.754,2.432
					C188.052,120.826,205.351,120.214,223.294,120.113z"/>
				<path fill="#202020" d="M78.631,105.388c0.7,3.021,1.946,6.077,3.803,8.765c1.837,2.7,4.235,4.971,6.809,6.709
					c3.193,2.141,6.513,3.473,9.679,4.428c1.585,0.477,3.145,0.856,4.643,1.18c1.507,0.33,2.916,0.581,4.132,0.866l1.315,0.252
					c0.431,0.091,0.887,0.11,1.324,0.168l10.196-0.512l9.695-0.535l-19.856,0.477c-0.42-0.061-0.856-0.074-1.266-0.174l-1.251-0.272
					c-1.936-0.507-4.343-0.979-6.696-1.661c-4.91-1.319-9.724-3.17-13.884-6.452c-2.064-1.636-3.924-3.628-5.397-5.895
					C80.398,110.467,79.318,107.954,78.631,105.388z"/>
				<path fill="#202020" d="M140.462,126.115l-10.234,0.593l40.961-1.208c22.354-0.962,44.721-1.853,67.07-2.973l3.593-0.16
					l-0.558-0.059c1.771,0.352,3.273,0.218,4.721,0.043c-1.455,0.146-2.962,0.242-4.698-0.14l0.533,0.056
					c-40.283,0.621-80.265,1.291-114.432,3.55l-2.055,0.136c16.809-0.408,33.433-0.916,50.01-1.438
					C163.731,125.016,152.092,125.533,140.462,126.115z"/>
				<polygon fill="#202020" points="218.026,120.368 221.659,120.315 225.832,120.101 223.294,120.113 				"/>
				<path fill="#202020" d="M182.027,117.638l-0.472-0.004l-12.118,0.43c-5.63,0.347-11.516,0.662-17.528,0.931
					C162.808,118.637,173.59,118.278,182.027,117.638z"/>
				<polygon fill="#202020" points="147.048,115.138 142.007,115.234 139.72,115.515 143.28,115.473 				"/>
				<path fill="#202020" d="M88.522,100.265c0.257,2.582,0.958,4.923,2.101,6.881c1.142,1.962,2.729,3.569,4.697,4.866
					c1.965,1.299,4.283,2.275,6.784,3.022c1.252,0.376,2.55,0.694,3.907,0.989c1.348,0.299,2.795,0.556,4.412,0.951
					c0.097,0.02,0.193,0.042,0.286,0.068c0.093,0.029,0.197-0.008,0.294-0.008l25.703-1.162l3.013-0.358
					c-4.944,0.065-9.878,0.162-14.757,0.303l-7.27,0.246l-3.593,0.15l-1.784,0.083l-0.889,0.044l-0.203,0.011l-0.06,0.008
					l-0.12,0.017c-0.076,0.004-0.157,0.036-0.23,0.017l-0.227-0.041c-1.844-0.432-3.397-0.674-4.857-0.974
					c-1.463-0.291-2.84-0.604-4.154-0.971c-1.042-0.295-2.321-0.667-3.519-1.145c-1.2-0.473-2.307-1.062-3.08-1.644
					c-1.859-1.35-3.292-2.951-4.327-4.83c-1.038-1.874-1.667-4.059-1.937-6.421c-0.073-0.588-0.114-1.19-0.14-1.798
					c-0.02-0.303-0.018-0.611-0.024-0.918l-0.002-0.462l0.018-0.659c0.055-0.529-0.057-1.117-0.113-1.614l-0.144-1.06L88.02,91.74
					l-1.157-8.436l1.009,8.111l0.545,4.387c0.042,0.264-0.005,0.521-0.003,0.783l-0.021,0.616l0.001,0.9
					c0.01,0.598,0.041,1.189,0.089,1.774C88.49,100.01,88.51,100.134,88.522,100.265z"/>
			</g>
		</g>
	</g>
</g>
<path d="M109.362,59.926h6.606l-0.022,15.903l3.781,0.044l-0.645,5.339l-2.958,0.022v1.979l11.877-0.022l-0.689,6.984l-20.485-0.045
	l1.001-6.873h1.401v-1.979h-2.18l0.578-5.427l1.69-0.022L109.362,59.926z"/>
<path d="M142.214,57.768l5.472,2.069l-0.645,2.135h8.808l-0.912,6.584l-4.805,0.022l7.629,20.44l-5.895,2.024l-7.829-20.908
	l-8.742,20.73l-5.983-1.824l8.63-20.552l-6.294-0.022l0.489-6.495h8.319L142.214,57.768z M145.039,80.455l3.403,3.737l-6.294,6.316
	l-3.425-3.692L145.039,80.455z"/>
<path d="M166.347,59.637c-0.845,7.8-0.96,13.026-0.345,15.681s1.598,4.753,2.947,6.295c1.349,1.542,4.404,1.913,9.164,1.112
	l-0.022-22.776l6.45,0.378v29.138l-6.45,0.645v-3.67l-1.157,4.026l-1.401,0.312c-4.167,0.073-7.314-0.512-9.442-1.758
	c-2.128-1.245-3.881-3.773-5.26-7.584c-1.379-3.812-1.943-9.313-1.69-16.505l0.378-4.114L166.347,59.637z"/>
<path d="M186.855,60.059h6.451l-0.023,4.805l0.758-1.868c2.832,0.756,4.926,1.605,6.283,2.547c1.355,0.941,2.762,2.479,4.215,4.615
	l0.311,0.89l-0.021-10.943h6.406V85.06c0.104,1.143-0.391,2.354-1.48,3.637c-1.09,1.283-3.324,1.835-6.705,1.657v-6.295
	c1.482-0.118,2.105-1.075,1.867-2.869c0.016-1.008-0.203-2.102-0.656-3.281c-0.451-1.179-1.859-2.75-4.225-4.715
	s-4.615-3.244-6.752-3.837v20.997h-6.472L186.855,60.059z"/>
<path d="M233.009,60.059c3.943,0.935,6.035,3.863,6.271,8.786h-5.895c-0.059-1.557-1.061-2.261-3.002-2.113h-7.918
	c-1.633,3.529-2.488,6.199-2.57,8.008c-0.08,1.81,0.387,3.511,1.402,5.104s2.119,2.729,3.314,3.403
	c1.193,0.675,2.836,0.908,4.926,0.7c2.092-0.207,4.025-1.557,5.805-4.048l3.982,4.96c-2.313,2.239-4.189,3.733-5.627,4.482
	c-1.439,0.748-3.34,1.138-5.705,1.167c-2.365,0.03-4.527-0.43-6.484-1.379c-1.957-0.948-3.752-2.71-5.383-5.282
	s-2.357-5.505-2.18-8.797s0.607-5.405,1.289-6.34l4.428-1.979h-5.295l0.357-2.112l0.51-2.024l0.98-2.536H233.009z"/>
<path d="M241.481,60.081h6.719v10.32l9.787-0.066V60.17l6.717-0.044v10.476h1.156l0.533,6.117h-1.689v9.787
	c-0.445,1.334-1.002,2.221-1.668,2.657c-0.668,0.438-1.709,0.771-3.125,1.001c-1.418,0.23-2.836,0.345-4.26,0.345l-0.045-5.872
	c1.363-0.089,2.209-0.652,2.535-1.69v-6.205l-8.162-0.022l-1.779-2.825v15.903l-6.674,1.135L241.481,60.081z"/>
</svg>
