<?xml version="1.0" encoding="utf-8"?>
<!-- Generator: Adobe Illustrator 15.0.0, SVG Export Plug-In . SVG Version: 6.00 Build 0)  -->
<!DOCTYPE svg PUBLIC "-//W3C//DTD SVG 1.0//EN" "http://www.w3.org/TR/2001/REC-SVG-20010904/DTD/svg10.dtd">
<svg version="1.0" id="Layer_1" xmlns="http://www.w3.org/2000/svg" xmlns:xlink="http://www.w3.org/1999/xlink" x="0px" y="0px"
	 width="381.256px" height="151.862px" viewBox="-1.284 -1.716 381.256 151.862"
	 enable-background="new -1.284 -1.716 381.256 151.862" xml:space="preserve">
<radialGradient id="SVGID_1_" cx="-107.2966" cy="-573.4763" r="131.9691" gradientTransform="matrix(-0.0351 1.0054 -2.9031 -0.1014 -1473.2819 129.2392)" gradientUnits="userSpaceOnUse">
	<stop  offset="0" style="stop-color:#FFFFFF;stop-opacity:0.2"/>
	<stop  offset="0.0144" style="stop-color:#F4F4F4;stop-opacity:0.2007"/>
	<stop  offset="0.0883" style="stop-color:#C2C2C2;stop-opacity:0.2045"/>
	<stop  offset="0.1677" style="stop-color:#949494;stop-opacity:0.2085"/>
	<stop  offset="0.2505" style="stop-color:#6C6C6C;stop-opacity:0.2128"/>
	<stop  offset="0.3378" style="stop-color:#4A4A4A;stop-opacity:0.2172"/>
	<stop  offset="0.4307" style="stop-color:#2F2F2F;stop-opacity:0.2219"/>
	<stop  offset="0.5313" style="stop-color:#1A1A1A;stop-opacity:0.2271"/>
	<stop  offset="0.6432" style="stop-color:#0B0B0B;stop-opacity:0.2328"/>
	<stop  offset="0.7759" style="stop-color:#030303;stop-opacity:0.2395"/>
	<stop  offset="0.9818" style="stop-color:#000000;stop-opacity:0.25"/>
</radialGradient>
<path fill="url(#SVGID_1_)" d="M374.081,46.394c0.291-8.323-12.162-28.195-20.604-28.49L52.66,6.323
	c-8.454-0.295-32.532,3.785-32.823,12.109l-2.217,95.114c-2.723,30.551,22.506,26.587,30.63,29.015l283.627-6.576
	c21.479,3.79,36.402-16.924,36.692-25.245L374.081,46.394z"/>
<path fill="#010101" d="M379.683,66.555c-3.408,15.886-7.15,10.639-10.397,16.364l-0.44-8.176
	c2.358-10.66,6.282-26.996,8.946-23.649C378.202,52.158,380.833,59.825,379.683,66.555z"/>
<path fill="#010101" d="M368.356,47.437c-0.065,1.512-0.545,1.734-0.604,3.239l-3.113-4.566L368.356,47.437z"/>
<path fill="#010101" d="M369.723,94.935l-0.304,7.579c-0.538,1.731-0.836-2.6-1.315-2.385l-1.107,4.211l-0.55,2.126
	c-0.227,1.027-0.555,1.935-0.943,2.783c0.351-0.87,0.61-1.744,0.76-2.653c0.04-0.224,0.062-0.465,0.088-0.692l0.004-0.044
	l0.002-0.021c0.002-0.043-0.022,0.352-0.01,0.181v-0.009l0.008-0.055l0.018-0.115l0.033-0.222l0.122-0.854
	c0.14-1.102,0.224-2.051,0.271-2.875c0.095-1.648,0.056-2.791,0.09-3.645C366.954,96.54,367.327,96,369.723,94.935z"/>
<path fill="#010101" d="M240.221,125.726c-9.129-1.138,6.643-2.377,10.192-3.421c7.515-0.006,14.281,1.225,8.382,2.367
	C248.896,124.774,244.97,125.532,240.221,125.726z"/>
<path fill="#010101" d="M328.212,137.153c1.828-0.549,5.802-1.086,9.869-2.318c4.088-1.207,8.075-3.028,11.075-4.931
	c3.029-1.897,5.233-3.836,6.438-5.242c1.202-1.412,1.441-2.28,0.375-2.17c-1.878,0.172-3.647,0.343-6.421,1.671
	c-2.508,2.552-5.661,5.022-10.11,6.974c-4.569,1.403-8.459,1.629-10.905,1.559c-2.483-0.079-3.676-0.371-4.025-0.55
	c-0.698-0.394,1.905-0.461,4.579-1.016c2.717-0.513,5.264-1.566,5.658-2.181c0.213-0.309-0.066-0.482-1.037-0.511
	c-0.968-0.046-2.652,0.093-5.247-0.025c-2.612,0.16-4.484-0.051-5.959-0.193l-0.265-0.026l-0.035,0.003
	c-1.072,0.088-1.941,0.196-2.743,0.351c-10.643,1.331-7.461,1.807-1.096,2.753c-31.229,0.961-19.946-5.217-36.965-4.829
	c-23.284,1.243-8.541,4.563-14.043,5.989c-0.119-3.61-42.913-5.492-77.311-5.007c-32.001,2.191-68.493-0.546-106.773,2.502
	l-34.895-0.313l3.499,0.45c-1.924-0.569-3.309-0.778-4.548-0.982c-1.231-0.188-2.292-0.327-3.282-0.465l-1.374-0.192l-1.034-0.167
	c-0.687-0.116-1.366-0.243-2.037-0.395c-2.68-0.575-5.196-1.577-6.96-3.011c0.224-0.127,0.422-0.27,0.661-0.385
	c-0.399-0.061-0.737-0.059-0.981,0.075c-0.438-0.889-0.896-1.838-1.276-2.851c-0.193-0.503-0.367-1.021-0.529-1.555
	c-0.159-0.53-0.286-1.022-0.478-1.814c-0.343-1.457-0.591-3.08-0.719-4.764c-0.063-0.844-0.1-1.702-0.104-2.566l0.017-1.295
	l0.064-1.382c0.03-7.558,0.276-14.043,3.518-15.146l-0.504-2.492c-0.18-12.337,2.321,0.096,3.784-6.936
	c-0.572-11.419,5.073-26.301-0.176-32.344c0.39-0.913,0.641,0.321,1.031-0.595l-0.717-9.259c-1.286-0.656-2.82-2.563-4.25-1.075
	c0.14-2.139-1.397-4.052-0.859-7.099c0.174-7.696,2.716-0.841,3.894-3.569l-0.181-3.675l-0.041-0.885l-0.05-0.44l-0.093-0.896
	c-0.026-0.601-0.207-1.231-0.036-1.841c0.181-0.606,0.652-1.159,1.264-1.628c1.24-0.939,2.955-1.604,4.756-2.123
	c1.315-0.414,5.026-1.156,7.902-1.45c1.5-0.164,2.945-0.256,3.803-0.238c0.25,0.001,0.501,0.011,0.748,0.028l1.42,0.069l2.988,0.153
	c3.976,0.209,7.922,0.442,11.814,0.697c7.783,0.513,15.356,1.122,22.561,1.844c-0.145,2.958,33.12,3.761,47.11,4.119
	c27.822,3.676,60.363-0.641,81.45,2.658c-12.625,1.409-34.205-1.494-36.701,0.484l5.729,1.17
	c12.982,1.149,33.634,3.365,41.441,1.474c-7.161-1.462-7.602-2.547-9.964-3.523c5.804-0.312,6.813-1.1,14.055-1.122
	c10.607,0.174,22.164,1.031,22.101,2.511c-5.822,0.309-12.063-0.464-17.369-0.55c-2.018,1.583,16.782,2.425,23.022,3.196
	c-10.907-4.209,18.57-4.677-11.195-8.251l16.426-0.139c12.688-2.889-52.841-5.288-24.238-7.921c2.938-0.898-0.861-2.169,8.826-2.684
	c-5.229-1.564-15.855-1.737-20.224-1.135c-7.113-2.938-40.932-1.867-41.746-5.511c-27.613,1.839-40.362-3.745-65.39-5.358
	c-31.771-1.991-11.188,1.703-20.429,3.301C88.92,0.429,72.921,1.651,63.242,2.166c-4.353-0.137-7.777-0.596-9.518-1.063
	c-1.216-0.248-1.81-0.46-1.543-0.66c0.175-0.21,1.712-0.342,2.962-0.424l-0.761-0.067L53.475-0.12
	C52.7-0.173,51.922-0.211,51.14-0.229c-1.56-0.036-3.184-0.003-4.487,0.046C43.94-0.079,41.44,0.127,38.95,0.408
	c-1.244,0.144-2.476,0.306-3.707,0.49l-1.847,0.295c-0.531,0.084-1.481,0.269-2.189,0.41c-3.037,0.609-6.019,1.368-8.851,2.3
	c-5.646,1.86-10.748,4.458-13.969,7.976c-0.789,0.878-1.469,1.802-1.966,2.759c-0.253,0.479-0.48,0.956-0.624,1.452l-0.228,1.551
	l-0.917,6.272c-0.096,0.621-0.101,0.796-0.141,1.159L4.41,26.044l-0.201,1.943l-0.389,3.89l-0.729,7.781L1.813,55.232
	C1.04,65.617,0.411,76.006-0.112,86.38l-0.712,15.545l-0.156,3.88l-0.039,0.965l-0.087,0.864c-0.064,0.762-0.114,1.527-0.143,2.308
	c-0.113,3.113,0.025,6.367,0.805,9.917c0.058,0.799,0.158,1.604,0.316,2.444l0.15,0.685l0.204,0.774
	c0.145,0.516,0.305,1.028,0.487,1.541c0.722,2.041,1.748,4.049,3.099,5.957c2.684,3.817,6.727,7.231,11.792,9.835
	c5.05,2.623,11.053,4.397,17.324,5.419c1.568,0.26,3.152,0.478,4.741,0.665l3.064,0.34c0.765,0.082,1.349,0.152,1.475,0.172
	l0.019,0.003l0,0l0,0c0-0.003-0.001,0.006,0.002-0.006l0.048-0.145l0.697-2.041c0.426-1.207,0.833-2.238,1.204-3.11
	c0.74-1.731,1.383-2.919,1.983-3.808l-6.854,10.145l10.999-0.195c11.559-0.202,23.137-0.086,35.163,1.613l-4.388-0.623
	c-0.666-0.409,2.645-0.652,5.249-0.888c-4.376-0.687-8.6-1.383-12.648-2.09c7.738,0.146,15.549,0.229,23.193,0.018
	c8.214-3.041,43.896-0.87,54.472-4.006c42.749,0.081,24.984,1.701,68.134,2.066c22.897-1.528,50.133-3.529,77.435-3.731
	c9.895-0.096,19.046,1.04,17.476,1.706l9.247-0.326l-6.193-0.458c5.157,0.875,11.244,1.127,16.925,0.493
	c5.708-0.605,10.773-2.005,14.877-3.609c4.129-1.617,7.381-3.439,10.099-5.222c2.715-1.792,4.896-3.566,6.729-5.242
	c4.551-4.929,6.354-8.727,7.426-11.546c1.013-2.813,1.091-4.649,0.856-5.417c-0.561-1.569-2.134,1.367-5.219,5.126
	c-3.117,3.807-7.753,8.782-14.718,13.145c-3.476,2.168-7.619,4.177-12.293,5.564C337.491,136.521,332.333,137.163,328.212,137.153z"
	/>
<path fill="#010101" d="M57.94,21.99c-2.005,1.581,10.976,2.73,15.282,3.607l5.805-0.312c14.482-0.034,15.058-1.908,5.94-3.264
	C81.535,23.308,66.124,22.658,57.94,21.99z"/>
<path fill="#010101" d="M42.918,66.165l-2.573-1.327l0.569,11.426C42.593,76.025,42.63,70.477,42.918,66.165z"/>
<path fill="#010101" d="M316.322,20.364c-16.854-0.942-23.528-2.8-41.385-2.954l3.233,3.149c17.273,2.023,35.482,4.738,56.211,5.478
	C348.499,23.436,309.435,22.945,316.322,20.364z"/>
<path fill="#010101" d="M279.957,13.455c15.483-0.827,32.206,0.216,48.343,1.015c4.031,0.199,8.029,0.384,11.961,0.521l3.086,0.102
	c2.959,0.169,4.848,0.89,6.31,1.487c2.821,1.256,4.403,2.465,5.944,3.624c2.96,2.321,5.174,4.526,7.364,6.673l6.271,6.254
	c1.945-1.758,1.644-4.928-0.846-8.891c-1.285-1.994-3.031-4.163-5.925-6.649c-1.512-1.253-3.199-2.592-6.207-4.182
	c-0.793-0.405-1.636-0.813-2.729-1.246c-1.053-0.42-2.334-0.869-3.954-1.268c-1.6-0.392-3.578-0.75-5.958-0.844
	c-0.389-0.017-0.31-0.011-0.395-0.011l-0.17,0.001l-0.342,0.002l-0.683,0.007c-14.612,0.133-30.814,0.815-40.629-0.688
	c-13.064,0.328-20.81,0.743-37.236,0.881C252.054,11.259,271.782,12.789,279.957,13.455z"/>
<path fill="#010101" d="M366.824,39.516c0.789,2.268,1.951,4.983,2.122,6.705c0.415,0.742,0.95,0.331,1.299-1.163
	c0.335-1.375,0.305-3.13,0.339-4.225c-0.316-1.253-1.729-3.281-2.854-4.091C366.582,35.932,365.983,36.217,366.824,39.516z"/>
<path fill="#010101" d="M100.014,103.859c0,0.892-0.167,1.729-0.5,2.514c-0.334,0.785-0.792,1.474-1.375,2.068
	c-0.583,0.594-1.271,1.06-2.062,1.4c-0.792,0.339-1.625,0.509-2.5,0.509c-1.167,0-2.229-0.298-3.187-0.891
	c0.958-0.553,1.728-1.315,2.312-2.291c0.583-0.977,0.875-2.079,0.875-3.31V73.632l-8.373,21.891
	c-0.333,0.85-0.896,1.454-1.687,1.813c-0.792,0.361-1.604,0.372-2.437,0.032c-0.708-0.255-1.271-0.764-1.687-1.527
	c-0.542-1.4-1.031-2.662-1.468-3.786s-0.928-2.396-1.468-3.818c-0.542-1.421-1.084-2.874-1.625-4.359
	c-1.333-3.478-2.854-7.423-4.561-11.836v22.591c0,0.891-0.313,1.654-0.938,2.291c-0.625,0.636-1.375,0.954-2.25,0.954
	c-0.917,0-1.687-0.318-2.312-0.954c-0.625-0.637-0.937-1.4-0.937-2.291V59.76c-1.542-0.211-2.823-0.933-3.843-2.164
	c-1.021-1.23-1.531-2.65-1.531-4.263c0-1.146,0.271-2.228,0.813-3.246c0.583,0.977,1.353,1.761,2.312,2.354
	c0.958,0.595,2.041,0.891,3.249,0.891h3.125c0.833,0,1.541,0.265,2.125,0.795c0.583,0.531,0.937,1.199,1.062,2.004l11.123,29.272
	l11.435-29.717c0.208-0.721,0.594-1.305,1.156-1.75c0.563-0.446,1.218-0.668,1.968-0.668c0.875,0,1.625,0.318,2.25,0.955
	s0.937,1.4,0.937,2.291V103.859z"/>
<path fill="#010101" d="M138.317,85.723c-0.584-0.976-1.354-1.76-2.312-2.354c-0.959-0.594-2.042-0.891-3.25-0.891h-1.124
	l5.936,20.3c0.25,0.848,0.322,1.707,0.219,2.577c-0.104,0.868-0.354,1.664-0.75,2.386c-0.396,0.721-0.927,1.357-1.593,1.909
	c-0.667,0.551-1.417,0.954-2.25,1.209c-1.124,0.339-2.229,0.339-3.312,0c0.75-0.807,1.281-1.771,1.594-2.896
	s0.302-2.259-0.031-3.404l-6.437-22.081h-8.873l-3.874,13.235c-0.25,0.85-0.761,1.496-1.531,1.941
	c-0.771,0.445-1.573,0.519-2.405,0.223c-0.875-0.255-1.521-0.773-1.938-1.559c-0.417-0.785-0.5-1.623-0.25-2.514
	c2.166-7.467,4.103-14.127,5.811-19.982c0.75-2.502,1.468-4.953,2.156-7.35c0.687-2.396,1.301-4.539,1.843-6.427
	c0.541-1.887,1.166-3.998,1.875-6.332c0.291-1.019,0.822-1.93,1.593-2.736c0.771-0.806,1.697-1.378,2.781-1.718
	c1.083-0.296,2.187-0.318,3.312-0.064c-0.792,0.849-1.333,1.825-1.624,2.927c-0.292,1.104-0.271,2.25,0.063,3.437l5.811,20.363
	h2.999c0.875,0,1.708,0.17,2.5,0.509c0.791,0.34,1.479,0.806,2.062,1.4c0.583,0.595,1.041,1.294,1.375,2.1
	c0.333,0.807,0.5,1.654,0.5,2.546C139.192,83.665,138.9,84.747,138.317,85.723z M118.009,75.923h5.062l-2.5-8.718L118.009,75.923z"
	/>
<path fill="#010101" d="M177.308,96.095c0,0.892-0.167,1.74-0.5,2.546c-0.334,0.806-0.792,1.505-1.375,2.1
	c-0.584,0.594-1.271,1.061-2.062,1.4c-0.792,0.339-1.625,0.509-2.5,0.509c-1.167,0-2.229-0.297-3.187-0.891
	c0.958-0.595,1.728-1.379,2.312-2.354c0.583-0.977,0.875-2.078,0.875-3.31V76.559h-13.372v17.881c0,0.934-0.313,1.708-0.937,2.323
	c-0.625,0.615-1.396,0.923-2.313,0.923c-0.875,0-1.625-0.308-2.249-0.923c-0.625-0.615-0.938-1.39-0.938-2.323V76.559
	c-0.875,0-1.698-0.18-2.469-0.541c-0.771-0.36-1.437-0.837-1.999-1.432c-0.563-0.594-1.011-1.283-1.344-2.068
	c-0.334-0.785-0.5-1.623-0.5-2.514c0-1.188,0.291-2.269,0.875-3.246c0.541,0.977,1.291,1.761,2.25,2.354
	c0.957,0.595,2.02,0.891,3.187,0.891V59.95c-0.875,0-1.698-0.18-2.469-0.541c-0.771-0.36-1.437-0.828-1.999-1.4
	c-0.563-0.572-1.011-1.25-1.344-2.036c-0.334-0.785-0.5-1.623-0.5-2.514c0-1.23,0.291-2.333,0.875-3.309
	c0.541,0.977,1.291,1.772,2.25,2.387c0.957,0.615,2.04,0.922,3.249,0.922l3.124-0.063c0.916,0,1.688,0.318,2.313,0.955
	c0.624,0.636,0.937,1.422,0.937,2.354v13.3h13.372V56.769c0-0.891,0.313-1.654,0.938-2.291c0.625-0.636,1.375-0.954,2.249-0.954
	c0.916,0,1.688,0.318,2.313,0.954c0.625,0.637,0.938,1.4,0.938,2.291V96.095z"/>
<path fill="#010101" d="M210.612,91.004v0.128v0.254c0,0.892-0.167,1.74-0.5,2.546c-0.334,0.807-0.792,1.506-1.375,2.1
	c-0.583,0.595-1.26,1.062-2.03,1.4c-0.771,0.34-1.594,0.509-2.469,0.509h-13.621c0.583,1.188,1.415,2.101,2.499,2.736
	c-1,0.551-2.062,0.827-3.187,0.827c-0.875,0-1.709-0.17-2.5-0.509c-0.791-0.34-1.479-0.807-2.062-1.4
	c-0.584-0.594-1.042-1.283-1.375-2.067c-0.334-0.785-0.5-1.623-0.5-2.514V80.823c0-0.891,0.313-1.654,0.938-2.29
	c0.625-0.637,1.375-0.955,2.25-0.955c0.208,0,0.354,0.022,0.438,0.063v-0.063c1.082-0.084,1.926-0.423,2.53-1.018
	c0.604-0.594,1.177-1.357,1.718-2.291c0.583,0.977,0.875,2.059,0.875,3.246c0,1.019-0.209,1.963-0.625,2.832
	c-0.416,0.87-0.979,1.602-1.687,2.195v8.845h14.309v-0.382V59.823h-6.248c-1.209,0-2.292,0.297-3.249,0.891
	c-0.959,0.595-1.729,1.379-2.313,2.354c-0.584-0.975-0.875-2.057-0.875-3.245c0-0.891,0.166-1.728,0.5-2.514
	c0.333-0.785,0.791-1.474,1.375-2.068c0.583-0.593,1.271-1.06,2.063-1.4c0.79-0.339,1.624-0.509,2.499-0.509h11.622
	c1.208,0,2.291-0.308,3.249-0.923c0.958-0.615,1.729-1.41,2.313-2.386c0.583,1.061,0.875,2.164,0.875,3.309
	c0,1.613-0.521,3.022-1.563,4.231c-1.042,1.209-2.333,1.941-3.874,2.195V91.004z"/>
<path fill="#010101" d="M260.099,62.114c0,1.613-0.49,3.002-1.468,4.168c-0.979,1.167-2.198,1.92-3.656,2.259v11.264
	c0,1.399,0,2.79,0,4.168c0,1.379,0.01,2.599,0.031,3.659c0.021,1.061,0.031,2.27,0.031,3.627c0,0.891-0.167,1.74-0.499,2.546
	c-0.334,0.806-0.792,1.506-1.375,2.1c-0.584,0.595-1.271,1.061-2.063,1.4s-1.624,0.509-2.499,0.509h-18.996
	c-0.084,0-0.178-0.01-0.28-0.032c-0.104-0.021-0.198-0.031-0.281-0.031h-0.063c-0.875,0-1.709-0.169-2.5-0.51
	c-0.792-0.339-1.479-0.805-2.062-1.399c-0.584-0.594-1.042-1.294-1.375-2.101c-0.334-0.805-0.5-1.654-0.5-2.545
	c0-0.042,0-0.859,0-2.45s0-3.573,0-5.949s0.01-4.942,0.031-7.7c0.021-2.757,0.031-5.324,0.031-7.7c0-2.375,0.01-4.369,0.031-5.981
	c0.021-1.612,0.031-2.439,0.031-2.482c0.208-1.612,0.916-2.937,2.125-3.977c1.207-1.039,2.603-1.559,4.187-1.559h19.62
	c1.625,0,3.03,0.531,4.218,1.591c1.188,1.061,1.884,2.376,2.093,3.945h0.063v3.055c0.916-0.212,1.75-0.583,2.5-1.114
	c0.75-0.53,1.354-1.198,1.812-2.004C259.827,59.887,260.099,60.969,260.099,62.114z M248.602,62.114v-2.227h-19.62v2.227H248.602z
	 M248.602,68.669h-19.62v22.527l19.62,0.063V68.669z"/>
<path fill="#010101" d="M302.277,49.514c-0.959,0.595-1.729,1.379-2.313,2.354c-0.584,0.977-0.875,2.079-0.875,3.309v41.999
	c0.458,0.764,0.76,1.569,0.906,2.418c0.146,0.849,0.125,1.676-0.063,2.482c-0.188,0.805-0.521,1.568-1,2.291
	c-0.479,0.721-1.093,1.314-1.843,1.781c-0.459,0.339-0.959,0.583-1.5,0.731c-0.542,0.148-1.084,0.244-1.625,0.287
	c0.5-0.977,0.739-2.048,0.719-3.214c-0.021-1.167-0.365-2.259-1.03-3.277l-20.933-32.963v27.108c0,0.891-0.313,1.654-0.938,2.291
	s-1.375,0.954-2.25,0.954c-0.917,0-1.687-0.317-2.312-0.954s-0.938-1.4-0.938-2.291V56.705h0.063
	c-0.084-1.188,0.396-2.121,1.438-2.8c0.75-0.467,1.562-0.605,2.437-0.414s1.541,0.668,2,1.432l20.495,32.2V55.178
	c0-0.891,0.166-1.728,0.5-2.514c0.333-0.784,0.78-1.474,1.343-2.068c0.563-0.594,1.239-1.06,2.031-1.4
	c0.791-0.339,1.624-0.509,2.499-0.509C300.214,48.687,301.277,48.964,302.277,49.514z"/>
<path fill="#010101" d="M339.83,80.696v14.19c0,0.892-0.167,1.729-0.5,2.514c-0.334,0.785-0.792,1.474-1.375,2.068
	c-0.584,0.594-1.271,1.06-2.062,1.4c-0.792,0.339-1.625,0.509-2.5,0.509c-1.125,0-2.187-0.276-3.187-0.827
	c1.083-0.637,1.915-1.549,2.499-2.736h-13.621c-0.875,0-1.698-0.169-2.469-0.509c-0.771-0.34-1.448-0.806-2.03-1.4
	c-0.584-0.594-1.042-1.294-1.375-2.1c-0.334-0.806-0.5-1.655-0.5-2.546V59.633c-1.542-0.255-2.833-0.986-3.874-2.195
	c-1.042-1.209-1.563-2.619-1.563-4.232c0-1.146,0.291-2.248,0.875-3.309c0.541,0.977,1.291,1.772,2.25,2.386
	c0.957,0.616,2.04,0.923,3.249,0.923l19.87-0.063c0.875,0,1.697,0.17,2.469,0.509c0.77,0.34,1.446,0.807,2.03,1.4
	c0.583,0.595,1.041,1.295,1.375,2.1c0.333,0.807,0.5,1.655,0.5,2.545c0,1.146-0.271,2.227-0.813,3.246
	c-0.584-0.976-1.354-1.76-2.313-2.354c-0.958-0.594-2.041-0.891-3.249-0.891h-14.434v31.563h14.309v-8.082l-4.187-1.081
	c-1.167-0.297-2.291-0.275-3.374,0.063c-1.084,0.34-2.021,0.913-2.812,1.718c-0.125-0.509-0.198-1.05-0.219-1.622
	c-0.021-0.573,0.052-1.155,0.219-1.75c0.208-0.892,0.562-1.676,1.062-2.354s1.104-1.23,1.813-1.655
	c0.708-0.424,1.479-0.7,2.312-0.827c0.833-0.127,1.688-0.084,2.563,0.127l6.623,1.718c0.708,0.213,1.291,0.604,1.75,1.178
	c0.458,0.572,0.688,1.22,0.688,1.94V80.696z"/>
</svg>
