<?xml version="1.0" encoding="utf-8"?>
<!-- Generator: Adobe Illustrator 15.0.0, SVG Export Plug-In . SVG Version: 6.00 Build 0)  -->
<!DOCTYPE svg PUBLIC "-//W3C//DTD SVG 1.0//EN" "http://www.w3.org/TR/2001/REC-SVG-20010904/DTD/svg10.dtd">
<svg version="1.0" id="Layer_1" xmlns="http://www.w3.org/2000/svg" xmlns:xlink="http://www.w3.org/1999/xlink" x="0px" y="0px"
	 width="214.964px" height="113.503px" viewBox="12.546 22.284 214.964 113.503"
	 enable-background="new 12.546 22.284 214.964 113.503" xml:space="preserve">
<radialGradient id="SVGID_1_" cx="-99.1946" cy="-577.5261" r="142.5916" gradientTransform="matrix(-2.500320e-008 0.6886 -1.6278 -8.565914e-008 -816.8344 144.4174)" gradientUnits="userSpaceOnUse">
	<stop  offset="0" style="stop-color:#FFFFFF;stop-opacity:0.2"/>
	<stop  offset="0.0144" style="stop-color:#F4F4F4;stop-opacity:0.2007"/>
	<stop  offset="0.0883" style="stop-color:#C2C2C2;stop-opacity:0.2045"/>
	<stop  offset="0.1677" style="stop-color:#949494;stop-opacity:0.2085"/>
	<stop  offset="0.2505" style="stop-color:#6C6C6C;stop-opacity:0.2128"/>
	<stop  offset="0.3378" style="stop-color:#4A4A4A;stop-opacity:0.2172"/>
	<stop  offset="0.4307" style="stop-color:#2F2F2F;stop-opacity:0.2219"/>
	<stop  offset="0.5313" style="stop-color:#1A1A1A;stop-opacity:0.2271"/>
	<stop  offset="0.6432" style="stop-color:#0B0B0B;stop-opacity:0.2328"/>
	<stop  offset="0.7759" style="stop-color:#030303;stop-opacity:0.2395"/>
	<stop  offset="0.9818" style="stop-color:#000000;stop-opacity:0.25"/>
</radialGradient>
<path fill="url(#SVGID_1_)" d="M224.438,44.893c0-5.887-7.607-19.621-12.496-19.621l-174.229-0.76c-4.896,0-18.74,3.477-18.74,9.366
	l0.638,67.258c-0.958,21.653,13.556,18.229,18.303,19.745l171.602,6.526c12.5,2.148,17.994-7.774,17.994-13.66L224.438,44.893z"/>
<path fill="#010101" d="M91.838,103.522c0,0.887-0.153,1.722-0.459,2.505c-0.307,0.782-0.727,1.469-1.263,2.062
	c-0.536,0.592-1.167,1.057-1.893,1.395c-0.727,0.339-1.492,0.508-2.295,0.508c-1.071,0-2.046-0.296-2.926-0.888
	c0.88-0.55,1.587-1.312,2.123-2.283c0.535-0.974,0.803-2.072,0.803-3.298V73.393L78.24,95.212c-0.307,0.847-0.823,1.448-1.549,1.808
	c-0.727,0.359-1.473,0.371-2.238,0.031c-0.65-0.254-1.167-0.761-1.549-1.521c-0.498-1.396-0.947-2.653-1.349-3.774
	c-0.401-1.12-0.852-2.389-1.348-3.806c-0.498-1.416-0.995-2.864-1.492-4.345c-1.225-3.467-2.621-7.399-4.189-11.798v22.518
	c0,0.888-0.287,1.648-0.86,2.283c-0.574,0.634-1.262,0.951-2.066,0.951c-0.842,0-1.549-0.317-2.123-0.951
	c-0.574-0.635-0.861-1.396-0.861-2.283V59.565c-1.416-0.211-2.592-0.93-3.529-2.157c-0.938-1.226-1.406-2.642-1.406-4.25
	c0-1.142,0.249-2.22,0.746-3.235c0.535,0.973,1.243,1.755,2.123,2.347c0.879,0.593,1.874,0.888,2.983,0.888h2.869
	c0.765,0,1.415,0.265,1.951,0.793c0.535,0.529,0.861,1.195,0.976,1.998l10.213,29.177l10.5-29.622
	c0.191-0.718,0.545-1.3,1.062-1.744c0.517-0.444,1.119-0.666,1.808-0.666c0.803,0,1.492,0.317,2.065,0.952s0.861,1.395,0.861,2.283
	V103.522z"/>
<path fill="#010101" d="M123.854,91.469c0.727,0.34,1.357,0.805,1.894,1.396c0.535,0.592,0.956,1.29,1.263,2.093
	c0.305,0.804,0.459,1.649,0.459,2.537c0,1.184-0.269,2.262-0.804,3.235c-0.536-0.974-1.243-1.756-2.123-2.348
	s-1.874-0.888-2.983-0.888h-11.533v0.761c0,0.889-0.153,1.723-0.459,2.506c-0.307,0.781-0.727,1.469-1.262,2.062
	c-0.536,0.592-1.167,1.057-1.894,1.396c-0.727,0.338-1.492,0.508-2.295,0.508c-1.071,0-2.047-0.297-2.926-0.889
	c0.879-0.55,1.587-1.311,2.123-2.283c0.535-0.973,0.803-2.072,0.803-3.299v-0.761h-0.746c-1.11,0-2.104,0.296-2.983,0.888
	c-0.88,0.592-1.569,1.374-2.065,2.348c-0.536-0.974-0.804-2.052-0.804-3.235c0-0.888,0.153-1.733,0.459-2.537
	c0.306-0.803,0.726-1.501,1.262-2.093c0.535-0.592,1.156-1.057,1.865-1.396c0.707-0.338,1.463-0.507,2.266-0.507h0.746V75.359
	h-0.746c-0.803,0-1.559-0.168-2.266-0.507c-0.708-0.338-1.33-0.803-1.865-1.396c-0.536-0.591-0.957-1.278-1.262-2.061
	c-0.307-0.782-0.459-1.618-0.459-2.506c0-1.226,0.268-2.325,0.804-3.298c0.497,0.973,1.185,1.766,2.065,2.378
	c0.879,0.613,1.874,0.919,2.983,0.919h0.746v-9.387h-0.746c-0.803,0-1.559-0.168-2.266-0.507c-0.708-0.338-1.33-0.803-1.865-1.396
	c-0.536-0.592-0.957-1.278-1.262-2.062c-0.307-0.782-0.459-1.617-0.459-2.505c0-1.142,0.268-2.241,0.804-3.298
	c0.497,0.973,1.185,1.766,2.065,2.379c0.879,0.613,1.874,0.919,2.983,0.919h18.189c1.109,0,2.104-0.306,2.983-0.919
	c0.88-0.613,1.587-1.406,2.123-2.379c0.535,1.058,0.804,2.157,0.804,3.298c0,0.888-0.154,1.724-0.459,2.505
	c-0.307,0.783-0.728,1.47-1.263,2.062c-0.536,0.593-1.167,1.058-1.894,1.396c-0.727,0.339-1.492,0.507-2.295,0.507h-11.533v9.387
	h8.32c0.803,0,1.492,0.308,2.066,0.92c0.574,0.613,0.86,1.386,0.86,2.315c0,0.888-0.287,1.649-0.86,2.284
	c-0.574,0.634-1.263,0.951-2.066,0.951h-8.32v15.604h11.533C122.362,90.962,123.127,91.131,123.854,91.469z"/>
<path fill="#010101" d="M160.088,91.533c0.707,0.339,1.328,0.803,1.864,1.395c0.535,0.594,0.956,1.291,1.263,2.094
	c0.305,0.804,0.459,1.648,0.459,2.537c0,1.184-0.269,2.262-0.804,3.234c-0.497-0.973-1.187-1.755-2.065-2.346
	c-0.881-0.594-1.875-0.889-2.984-0.889h-21.114c-0.728,0-1.349-0.254-1.864-0.762c-0.518-0.507-0.852-1.141-1.005-1.902
	c-0.038-0.127-0.058-0.359-0.058-0.697V59.311c0-0.888,0.152-1.733,0.459-2.537c0.307-0.803,0.727-1.5,1.263-2.093
	c0.535-0.592,1.157-1.057,1.864-1.396c0.708-0.338,1.464-0.508,2.268-0.508c0.535,0,1.061,0.085,1.577,0.254
	c0.517,0.169,0.984,0.381,1.405,0.634c-0.88,0.593-1.598,1.375-2.15,2.347c-0.556,0.974-0.832,2.073-0.832,3.298v31.714h18.188
	C158.624,91.026,159.379,91.196,160.088,91.533z"/>
<path fill="#010101" d="M199.305,91.469c0,0.467-0.078,0.867-0.23,1.206c-0.307,1.354-0.984,2.484-2.036,3.394
	c-1.053,0.91-2.267,1.363-3.644,1.363h-18.992h-0.057h-0.115c-0.803,0-1.492-0.307-2.066-0.92c-0.573-0.612-0.859-1.385-0.859-2.314
	V58.17c-0.613-0.592-1.091-1.3-1.436-2.125c-0.344-0.824-0.516-1.722-0.516-2.695c0-1.226,0.268-2.325,0.803-3.298
	c0.497,0.973,1.186,1.766,2.066,2.378c0.879,0.613,1.873,0.92,2.982,0.92l18.305-0.063c0.267,0,0.592,0.085,0.975,0.253
	c1.377,0.254,2.525,0.973,3.443,2.157c0.918,1.184,1.377,2.58,1.377,4.186V91.469z M193.395,90.962v-31.08v-0.063h-16.181v31.143
	H193.395z"/>
<g>
	<g>
		<g>
			<g>
				<path fill="#010101" d="M218.737,96.372c0.963-14.669,2.978-10.074,4.291-15.467l0.556,7.438
					c-0.679,9.846-1.869,24.954-3.287,22.038C220.054,109.432,218.471,102.571,218.737,96.372z"/>
				<path fill="#010101" d="M224.971,113.232c-0.032-1.382,0.188-1.609,0.152-2.984l1.685,4.004L224.971,113.232z"/>
				<path fill="#010101" d="M222.311,69.964l-0.174-6.93c0.185-1.606,0.51,2.329,0.729,2.107l0.708-7.797
					C222.937,67.919,224.516,67.774,222.311,69.964z"/>
				<path fill="#010101" d="M173.683,24.699c-5.247-0.999,4.012-1.685,6.14-2.415c4.377,0.114,8.243,1.148,4.74,1.916
					C178.793,24.118,176.461,24.629,173.683,24.699z"/>
				<g>
					<path fill="#010101" d="M219.802,35.429c0.55-0.14,1.407,0.18,2.088,0.982c0.341,0.394,0.618,0.905,0.781,1.47
						c0.173,0.566,0.172,1.178,0.218,1.771l0.059,0.88l0.065,1.275c0.047,0.861,0.104,1.632,0.179,2.256
						c0.151,1.249,0.38,1.912,0.766,1.531c0.664-0.66,1.324-1.316,1.731-3.151l-0.218-1.89l-0.218-1.533
						c-0.119-0.996-0.306-1.968-0.797-2.821c-0.575-1.77-1.533-2.75-2.13-3.375c-0.629-0.617-0.977-0.914-1.027-1.094
						c-0.124-0.342,0.942-0.188,2.111,0.371c1.187,0.523,2.308,1.553,2.81,1.735c0.249,0.088,0.409-0.078,0.285-0.631
						c-0.135-0.54-0.52-1.525-1.683-2.749c-1.145-0.901-2.147-1.367-2.969-1.668c-0.831-0.289-1.5-0.401-2.124-0.416
						c-1.639-0.147-2.731,0.094-3.381,0.254c-0.652,0.168-0.882,0.323-0.824,0.477s0.403,0.307,0.915,0.473
						c0.511,0.162,1.191,0.348,1.906,0.671c-0.969-0.146-1.861-0.107-2.676-0.134c-0.851-0.02-1.791-0.056-2.556-0.106
						c-1.575-0.1-2.84-0.256-3.875-0.449c-2.07-0.386-3.224-0.923-4.117-1.466c-1.788-1.086-2.536-2.198-7.505-2.185
						c-13.632,0.569-5.244,3.299-8.533,4.286c0.146-2.718-24.663-4.808-44.722-4.981c-18.767,1.148-39.854-1.487-62.328,0.209
						c-9.594-0.348-22.125-0.955-34.724-1.184c0.003-0.143-0.024-0.281,0-0.424c-0.307,0.116-0.497,0.244-0.497,0.396
						c-2.316-0.492-5.404-0.682-8.769-0.739l-2.672-0.017c-1.211,0.012-2.439-0.009-3.64,0.191
						c-2.406,0.351-4.716,1.238-6.657,2.527c-1.948,1.281-3.521,2.961-4.598,4.752c-1.084,1.792-1.664,3.678-1.907,5.347
						c-0.145,1.705-0.317,3.184-0.568,4.362c-0.222,0.836-0.514,1.408-0.9,1.689l0.27,2.252c0.222,11.239-1.117,0-1.742,6.46
						c0.4,10.389-2.146,24.128,0.442,29.466c-0.178,0.843-0.312-0.272-0.49,0.573l0.446,8.416c0.625,0.56,1.383,2.253,2.054,0.854
						c-0.044,1.955,0.715,3.655,0.49,6.45c0,7.023-1.295,0.843-1.832,3.365l0.521,14.973c0.149,3.44,1.734,6.711,4.104,9.177
						c2.378,2.476,5.541,4.163,8.926,4.888c0.846,0.186,1.708,0.301,2.576,0.367c0.868,0.063,1.747,0.042,2.619,0.069l3.574,0.054
						c2.318,0.042,4.618,0.103,6.888,0.184c4.54,0.161,8.961,0.401,13.169,0.736c-0.01,2.234,19.357,1.879,27.503,1.744
						c16.272,1.969,35.091-2.229,47.438-0.352c-7.307,1.43-19.93-0.137-21.333,1.428l3.361,0.716
						c7.58,0.491,19.647,1.564,24.139-0.087c-4.201-0.896-4.484-1.7-5.884-2.369c3.369-0.402,3.936-1.025,8.146-1.251
						c6.174-0.176,12.918,0.136,12.918,1.253c-3.379,0.4-7.027-0.002-10.116,0.089c-1.133,1.251,9.822,1.341,13.471,1.743
						c-6.45-2.858,10.683-4.063-6.72-5.897l9.549-0.581c7.308-2.544-30.865-2.459-14.296-5.271c1.687-0.761-0.556-1.609,5.065-2.278
						c-3.082-1.029-9.267-0.851-11.792-0.271c-4.211-2.01-23.852-0.225-24.418-2.949c-16.013,2.187-23.569-1.656-38.165-2.148
						c-18.528-0.582-6.464,1.607-11.798,3.081c-9.266-0.849-18.538,0.534-24.156,1.203c-5.051,0.044-8.136-0.983-4.764-1.384
						l-0.888-0.057l-0.444-0.029l-0.206-0.014l-0.104-0.014l-0.813-0.116c-0.53-0.093-1.038-0.258-1.501-0.493
						c-0.928-0.463-1.681-1.214-2.081-2.115c-0.2-0.449-0.305-0.937-0.301-1.421c0.013-0.485,0.104-0.956,0.153-1.408l0.021-0.169
						c0.007-0.037,0.015-0.267,0.021-0.39l0.042-0.893l0.083-1.785l0.161-3.571c0.417-9.525,0.745-19.068,1.003-28.612
						s0.446-19.088,0.584-28.615l0.094-6.77c0.021-0.503,0.02-1.029,0.334-1.438c0.282-0.41,0.714-0.699,1.18-0.836
						c0.232-0.071,0.475-0.104,0.715-0.106l0.359,0.009l1.531,0.011c15.429,1.789,29.756-0.757,44.902,2.462l-2.519-0.538
						c-0.363-0.318,1.579-0.45,3.109-0.586c-2.508-0.585-4.927-1.177-7.241-1.772c4.498,0.233,9.041,0.417,13.505,0.378
						c4.964-2.161,25.614,0.033,31.96-2.161c24.888,0.731,14.448,1.672,39.554,2.625c13.425-0.79,29.403-1.87,45.316-1.592
						c5.734,0.081,11.189,1.08,9.652,1.558c0.575-0.137,1.446,0.032,1.903,0.689c0.242,0.312,0.295,0.722,0.272,1.094l-0.021,4.443
						c1.063,15.288,2.056,14.301,2.804,8.052c0.373-3.125,0.686-7.565,0.915-11.945l0.155-1.738c0.05-0.541-0.007-1.08-0.16-1.564
						C221.018,36.619,220.385,35.883,219.802,35.429z"/>
					<path fill="#010101" d="M39.447,133.509c-1.126,1.251,6.454,1.742,8.979,2.278l3.368-0.403
						c8.423-0.443,8.709-1.875,3.372-2.634C53.203,133.822,44.224,133.778,39.447,133.509z"/>
					<path fill="#010101" d="M12.546,67.303l1.251,1.123l-0.4-10.385C12.592,58.317,12.636,63.368,12.546,67.303z"/>
					<path fill="#010101" d="M189.678,124.812c-9.825-0.225-13.754-1.432-24.143-1.032l1.959,2.281
						c10.099,1.026,20.757,2.546,32.831,2.505C208.472,126.197,185.74,126.955,189.678,124.812z"/>
					<path fill="#010101" d="M168.355,120.653c8.984-1.071,18.737-0.768,28.141-0.633c4.702,0.067,9.317,0.094,13.705-0.115
						c2.193-0.104,4.331-0.268,6.394-0.514l0.379-0.048l0.258-0.055c0.17-0.036,0.336-0.087,0.498-0.135
						c0.324-0.103,0.631-0.232,0.918-0.377c0.569-0.3,1.058-0.677,1.422-1.106c-0.559-0.471-1.125-0.765-1.706-0.993
						c-0.291-0.112-0.588-0.206-0.898-0.298l-0.478-0.133c-0.302-0.042-0.745-0.082-1.131-0.112
						c-3.22-0.253-7.239-0.106-11.486,0.156c-8.494,0.523-17.901,1.506-23.646,0.657c-7.59,0.624-12.085,1.161-21.634,1.739
						C152.073,119.804,163.584,120.387,168.355,120.653z"/>
					<path fill="#010101" d="M223.917,117.671c0.447-0.549,0.727-1.25,0.837-1.877c0.103-0.633,0.053-1.186-0.017-1.543
						c-0.229-0.755-0.42,0.05-0.662,0.449c-0.244,0.506-0.639,1.109-1.014,1.404c-0.218,0.435-0.633,1.368-0.843,1.975
						c-0.095,0.295-0.075,0.523,0.186,0.528C222.664,118.615,223.208,118.408,223.917,117.671z"/>
				</g>
			</g>
		</g>
	</g>
</g>
</svg>
