<?xml version="1.0" encoding="utf-8"?>
<!-- Generator: Adobe Illustrator 15.0.0, SVG Export Plug-In . SVG Version: 6.00 Build 0)  -->
<!DOCTYPE svg PUBLIC "-//W3C//DTD SVG 1.0//EN" "http://www.w3.org/TR/2001/REC-SVG-20010904/DTD/svg10.dtd">
<svg version="1.0" id="Layer_1" xmlns="http://www.w3.org/2000/svg" xmlns:xlink="http://www.w3.org/1999/xlink" x="0px" y="0px"
	 width="378px" height="166px" viewBox="-240.384 92.919 378 166" enable-background="new -240.384 92.919 378 166"
	 xml:space="preserve">
<g>
	
		<image overflow="visible" opacity="0.37" width="378" height="166" xlink:href="4B12A08C.png"  transform="matrix(1 0 0 1 -240.3838 92.9192)">
	</image>
	<g>
		<image overflow="visible" width="337" height="117" xlink:href="4B12A08D.png"  transform="matrix(1 0 0 1 -216.8721 116.4309)">
		</image>
		<g>
			<g>
				<g>
					<path fill="#202020" d="M5.987,135.659l6.945-2.004c-20.221,3.889-40.381,9.341-60.218,14.177
						c-19.82,4.842-39.36,9.087-57.923,10.68c-2.417-0.202-7.216-0.645-9.603-0.896c-9.149,0.839-19.168,2.416-28.976,4.033
						c-9.809,1.629-19.4,3.275-27.705,4.505c-4.147,0.623-7.652,2.929-10.232,5.07c-2.568,2.143-4.181,4.134-4.18,4.136
						c-2.099,1.439-4.364,4.298-2.278,5.86c2.14,0.447,5.951,0.678,9.281,1.063c3.324,0.395,6.167,0.982,6.244,2.462
						c0.038,0.738-2.223,0.853-4.48,0.918c0.046,1.478-1.592,3.75-3.598,5.621c-1.999,1.874-4.366,3.33-5.54,3.306
						c-1.187,0.723-5.342,2.104-9.645,3.24c-4.287,1.159-8.745,2.021-10.09,2.548c-1.858,0.272-2.03,1.369-1.099,2.919
						c0.913,1.547,3.192,3.588,6.077,5.57c5.78,4.023,14.321,7.651,19.588,8.69c5.281,1.417,0.057,3.707,0.036,5.916
						c5.363-0.793,8.105,1.323,13.366,0.286c0.02,0.369,4.008,0.517,8.912,0.351c4.908-0.154,10.714-0.642,14.534-1.151
						c-0.006-0.012,2.476-1.028,10.01-2.187c2.512-0.395,2.39-1.13,2.273-1.859l0.236,1.462c2.27-1.858,7.486-1.254,9.834-2.44
						l0.265,1.456c4.678-2.354,9.868-1.865,14.606-3.605l0.301,1.449c2.451-0.508,4.878-1.032,5.035-0.31l0.312,1.447
						c2.611,0.201,7.151-2.334,7.474-0.892l-0.326-1.443c9.698-2.199,17.054-3.257,24.399-4.354
						c19.855-1.966,42.962-10.059,63.281-17.543c2.306-0.673,4.192-2.766,1.475-3.514l6.904-2.018
						c4.59-1.342,1.673-2.803,6.256-4.143c17.792-7.107,36.032-12.467,53.825-16.67c4.438-1.041,8.838-1.997,13.135-2.839
						c4.29-0.84,8.495-1.567,12.384-2.091c1.938-0.261,3.794-0.467,5.464-0.602c1.659-0.136,3.154-0.188,4.139-0.185
						c0.496,0.004,0.761-0.001,1.12,0.02c0.34,0.021,0.683,0.056,1.018,0.129c0.666,0.135,1.334,0.446,1.692,0.99
						c-0.224-0.809-0.749-1.441-1.32-1.904c-0.58-0.472-1.213-0.814-1.907-1.067c-0.76-0.259-2.01-0.432-3.474-0.424
						c-1.471,0.006-3.177,0.182-5.073,0.58c-0.089-0.729-0.226-2.216-2.241-1.959c-6.131,0.428-13.251,2.064-19.622,3.433
						c-6.39,1.372-12.103,2.467-15.862,1.919c-2.445-0.117-5.276-1.682-12.11,0.198l6.825-1.857l-0.575-2.145
						c-9.3,1.725-20.942,4.271-30.311,6.223l-0.618-2.13l-4.583,1.331c-6.037-3.64,19.401-10.313,30.717-14.094l-0.773-2.855
						l-4.617,1.263l-0.394-1.428c6.928-1.909,13.294-3.601,19.694-5.188c6.401-1.579,12.83-3.076,19.925-4.41
						c-2.372,0.43-7.08,1.405-9.422,1.936c-0.159-0.717-0.321-1.449-2.67-0.916c4.699-1.072,10.049-2.019,15.425-2.929
						c5.386-0.908,10.765-1.783,15.76-2.68c1.246-0.398,1.259-1.139-0.056-1.847c-1.306-0.698-3.959-1.33-7.788-1.272
						c-7.543,0.903-12.364,1.841-19.564,3.347l-0.31-1.447c4.81-1.05,12.218-1.694,17.171-3.06c2.442-1.092-5.366-1.493-2.947-2.577
						c2.55-0.377,5.119-0.701,7.734-1.679c-8.092,0.7-17.757,3.331-25.157,4.226c-2.576-0.187-5.147-0.342-5.487-1.781
						c-11.846,3.561-21.725,4.005-29.764,2.385C24.372,129.62,12.902,133.642,5.987,135.659z"/>
				</g>
			</g>
		</g>
	</g>
</g>
<path fill="#FFFFFF" stroke="#FFFFFF" stroke-miterlimit="10" d="M-138.94,165.44c0.442-0.005,0.744,0.646,0.902,1.95l-0.083,0.001
	c0.216,0.518,0.326,0.915,0.33,1.191c0.006,0.521-0.112,1.358-0.354,2.513l-0.167-0.081l-1.116-0.303
	c-0.001-0.1-0.052-0.149-0.151-0.148c-0.056,0.001-0.265,0.053-0.629,0.157c-0.702-0.357-1.335-0.533-1.899-0.526l-0.316,0.003
	c-0.002-0.21-0.081-0.314-0.236-0.313l-0.316,0.004c-0.886,0.01-1.667,0.495-2.342,1.455l-0.083,0.001l0.006,0.548
	c-0.272,0.391-0.451,0.759-0.536,1.103l0.085,0.165c-0.206,0.435-0.359,1.09-0.459,1.965c0.063,0.631,0.122,0.946,0.177,0.945
	l-0.082,0.15l0.007,0.631c0.06,0.442,0.092,0.813,0.096,1.112l-0.083,0.001l0.001,0.149c0.002,0.144,0.054,0.304,0.155,0.479
	c-0.043,0.101-0.064,0.178-0.064,0.233c0.1-0.001,0.209,0.419,0.33,1.259c0.088-0.001,0.358,0.782,0.808,2.35
	c0.033,0.011,0.192,0.347,0.477,1.008c0.077-0.001,0.213,0.235,0.407,0.709c0.122-0.001,0.308,0.34,0.56,1.023l0.725,0.938
	c0.002,0.199,0.109,0.354,0.321,0.462c0.002,0.144,0.189,0.507,0.561,1.09c0.001,0.1,0.186,0.308,0.555,0.625
	c0.002,0.232,0.323,0.649,0.961,1.251c0.001,0.078,0.108,0.259,0.322,0.545c0.731,1.01,1.212,1.896,1.442,2.657
	c1.067,1.35,1.606,2.446,1.616,3.287l0.004,0.398c0,0.056,0.028,0.083,0.084,0.082c0,0.056-0.027,0.084-0.082,0.084
	c0.062,0.554,0.121,0.891,0.178,1.012l-0.081,0.167l0.084,0.148c-0.502,1.611-1.091,2.902-1.766,3.874
	c0.001,0.133-0.699,0.849-2.102,2.149c-0.956,0.698-3.001,1.884-6.138,3.559c-0.77,0.507-1.683,1.016-2.74,1.526
	c0.001,0.133-0.495,0.327-1.488,0.582c0.001,0.11-0.285,0.241-0.859,0.392c0.001,0.133-0.495,0.349-1.488,0.648l-0.549-0.061
	c-0.418,0.26-1.206,0.579-2.364,0.957c-0.731-0.058-1.099-0.181-1.101-0.369c0.301-0.801,0.568-2.592,0.802-5.374
	c0.085-0.312,0.161-0.467,0.227-0.468l0.482-0.006l0.318,0.229l0.232-0.003c0.055-0.001,0.083-0.023,0.082-0.067
	c0.892,0.477,1.337,0.732,1.338,0.766c0.266,0.03,0.4,0.105,0.401,0.228l0.083-0.001c0.099-0.057,0.176-0.085,0.232-0.086
	c0.001,0.078,0.318,0.234,0.952,0.471l0.148-0.084c0.002,0.154,0.186,0.23,0.551,0.226c0.11-0.045,0.193-0.068,0.248-0.069
	c0.522,0.116,0.783,0.19,0.784,0.224c0.055,0,0.083-0.028,0.082-0.084c1.053,0.088,1.581,0.265,1.584,0.53l0.066-0.001
	c3.514-1.579,5.588-2.738,6.222-3.476c0.1-0.002,0.516-0.399,1.249-1.194c0.384-0.314,0.716-0.794,0.997-1.439
	c0.033,0,0.137-0.156,0.31-0.469l-0.004-0.398c-0.001-0.11-0.025-0.216-0.07-0.314c0.043-0.101,0.064-0.178,0.063-0.233
	c-0.001-0.122-0.081-0.332-0.24-0.629l0.083-0.001c-0.185-0.685-0.399-1.025-0.643-1.022c-0.004-0.31-0.323-0.616-0.958-0.919
	c-0.001-0.144-0.242-0.33-0.721-0.557c-0.001-0.133-0.292-0.417-0.874-0.854c-0.001-0.11-0.213-0.264-0.636-0.458l-0.619-0.392
	l-0.252-0.313c-0.594-0.569-0.962-0.853-1.106-0.852l-0.637-0.458c-0.133,0.002-0.452-0.282-0.957-0.853
	c-0.166,0.002-0.351-0.156-0.554-0.476c-0.459-0.415-0.749-0.622-0.871-0.621c-0.292-0.351-0.533-0.559-0.721-0.623
	c-0.002-0.177-0.322-0.511-0.958-1.002c0-0.066-0.186-0.247-0.554-0.542l-0.8-1.651c-0.214-0.353-0.432-1.003-0.653-1.953
	l0.083-0.001l-0.327-1.025l0.066-0.001l-0.248-1.343l0.083-0.001c-0.025-0.254-0.104-0.381-0.237-0.379
	c0.01-0.111,0.059-0.167,0.147-0.168c-0.102-0.188-0.154-0.397-0.157-0.63l-0.001-0.149l0.061-0.482
	c-0.045-0.076-0.069-0.204-0.071-0.381l0.064-0.167l-0.066,0.001l0.064-0.15l-0.004-0.398c0-0.056-0.023-0.083-0.067-0.083
	c0.043-0.1,0.064-0.178,0.063-0.232l-0.002-0.232c0.239-0.402,0.545-1.247,0.918-2.536c0.11-0.001,0.212-0.317,0.305-0.95
	c0.133-0.001,0.29-0.263,0.473-0.786l0.686-1.037c0.233-0.003,0.468-0.266,0.706-0.789l-0.085-0.148l-0.001-0.083
	c0.199-0.002,0.358-0.109,0.478-0.321c0.244-0.003,0.453-0.138,0.626-0.405c1.504-1.125,2.464-1.895,2.88-2.309
	c0.692-0.474,1.526-1.142,2.502-2.006c0.078-0.001,0.334-0.291,0.771-0.872l1.086-0.876l0.083-0.001
	c0.001,0.056,0.029,0.082,0.084,0.082c-0.001-0.155,0.206-0.368,0.624-0.639c0-0.055,0.021-0.133,0.064-0.233l0.167,0.064
	C-140.1,165.713-139.45,165.446-138.94,165.44z"/>
<path fill="#FFFFFF" stroke="#FFFFFF" stroke-miterlimit="10" d="M-100.226,165.3c-0.1,0.397-0.316,0.865-0.649,1.404
	c-0.427,1.136-0.612,2.046-0.555,2.729c0.011,0.133-0.141,0.834-0.457,2.105l0.115,0.373c0.03,0.364-0.518,0.583-1.646,0.655
	l-0.676,0.29c-0.104-0.047-0.183-0.068-0.238-0.063c0.009,0.11-0.042,0.17-0.152,0.179c-0.055,0.005-0.135-0.016-0.239-0.063
	c-0.183,0.07-0.285,0.106-0.307,0.108l-0.785-0.018c-0.055,0.005-0.136,0.039-0.241,0.104c-0.634-0.002-0.953-0.031-0.958-0.086
	l-0.906,0.325l-0.404-0.049l-0.463,0.038l-0.159,0.097c-0.004-0.055-0.035-0.08-0.09-0.075l0.007,0.083
	c-0.044,0.003-0.069-0.022-0.073-0.078c-0.505,0.076-1.198,0.156-2.08,0.241c-0.115-0.046-0.2-0.066-0.255-0.062
	c-0.15,0.068-0.223,0.124-0.219,0.168l-0.155-0.054l-1.109,0.093c-0.188,0.016-0.57,0.153-1.149,0.413
	c0.074,0.883,0.02,1.493-0.163,1.83l0.083-0.007c-0.027,0.202-0.069,0.306-0.124,0.311l0.08,0.16l0.033,0.397
	c0.009,0.11-0.004,0.217-0.04,0.319c0.12,0.235,0.188,0.463,0.207,0.683c0.003,0.033-0.016,0.141-0.057,0.322l0.278,0.526
	c0.002,0.033-0.022,0.33-0.076,0.89c0.061,0.195,0.119,0.29,0.174,0.285l-0.052,0.171c0.019,0.222,0.09,0.477,0.214,0.766
	c-0.098,0.031-0.143,0.09-0.135,0.179l0.007,0.082l0.112,0.541l-0.066,0.006l0.079,0.143c-0.089,0.13-0.133,0.795-0.133,1.995
	c0.052,0.096,0.081,0.171,0.085,0.226c0.005,0.056-0.015,0.085-0.059,0.089c0.068,0.417,0.135,0.622,0.202,0.616l-0.07,0.156
	l0.026,0.314c0.019,0.221,0.07,0.505,0.155,0.854c-0.042,0.159-0.086,0.24-0.13,0.244l0.254,1.245
	c-0.047,0.104-0.068,0.184-0.063,0.239c0.004,0.055,0.034,0.08,0.089,0.075c-0.111,2.254-0.277,3.391-0.498,3.409
	c-0.265,0.021-0.386,0.165-0.364,0.431c-0.328,0.327-0.537,0.684-0.627,1.069l-0.411,0.667l-0.64,0.921
	c-0.1,0.008-0.199,0.411-0.299,1.208l-0.265,2.405c-0.243,0.021-0.382,0.555-0.416,1.602c-0.264,0.7-0.391,1.105-0.382,1.216
	l0.083-0.007c-0.07,0.361-0.073,0.917-0.01,1.668c-0.088,0.007-0.187-0.168-0.294-0.525l-0.149,0.012
	c-0.331,0.028-0.716,0.482-1.153,1.363c-0.14,0.846-0.208,1.295-0.204,1.351l0.083-0.007l-0.069,0.173
	c0.063,0.095,0.097,0.169,0.102,0.225c-0.144,0.012-0.254,0.282-0.332,0.811l0.097,0.159c0.003,0.044-0.022,0.068-0.077,0.073
	l0.116,0.39l0.053,0.629l-0.133,1.195l0.083-0.007c-0.21,0.673-0.308,1.103-0.292,1.291l0.045,0.546
	c0.007,0.077-0.064,0.161-0.212,0.251c-0.078,0.007-0.223-0.137-0.436-0.43l-0.079-0.943c-0.005-0.056-0.035-0.081-0.09-0.076
	c-0.003-0.044,0.022-0.068,0.077-0.073c-0.461-2.328-0.783-4.568-0.963-6.72l-0.098-1.175c-0.005-0.056-0.029-0.081-0.073-0.077
	c-0.005-0.056,0.015-0.085,0.059-0.089l-0.098-0.375l0.053-0.171c-0.052-0.084-0.083-0.188-0.093-0.309l-0.005-0.066
	c-0.005-0.056,0.015-0.085,0.059-0.089l-0.08-0.159c-0.097-1.159-0.416-2.71-0.957-4.653c0.002-0.634,0.031-0.953,0.086-0.958
	c-0.068-0.149-0.129-0.223-0.185-0.218l0.071-2.14c-0.064-0.094-0.098-0.169-0.102-0.225l0.083-0.007
	c-0.004-0.055-0.035-0.08-0.09-0.075l0.054-1.155c-0.109-0.102-0.224-0.542-0.344-1.321c-0.002-0.422,0.036-0.636,0.113-0.643
	l-0.095-0.142c-0.005-0.066,0-0.328,0.018-0.785l-0.149-0.787l0.083-0.008l-0.095-0.142l-0.007-0.083
	c-0.005-0.055,0.021-0.085,0.076-0.09c-0.005-0.055-0.035-0.08-0.09-0.075c-0.004-0.056,0.001-0.317,0.018-0.785
	c-0.002-0.033-0.059-0.372-0.168-1.02c0.047-0.104,0.068-0.183,0.063-0.238c-0.11,0.01-0.169-0.036-0.178-0.135
	c0.055-0.005,0.081-0.034,0.076-0.09l-0.172-0.069c0.046-0.114,0.073-0.456,0.081-1.023l-0.083,0.007l0.069-0.172
	c-0.004-0.056-0.034-0.081-0.089-0.076l0.07-0.155l-0.278-0.527l0.142-0.095c-0.085-0.36-0.15-0.538-0.194-0.534l0.172-0.731
	c-0.094-0.325-0.193-0.578-0.297-0.758c0.044-0.004,0.064-0.033,0.059-0.089l-0.156-0.07l0.07-0.155
	c-0.063-0.095-0.098-0.17-0.102-0.226l0.142-0.095c-0.13-0.622-0.261-0.928-0.394-0.917c0.096-0.175,0.141-0.312,0.132-0.411
	l-0.083,0.007c0.047-0.104,0.068-0.184,0.063-0.238c-0.006-0.077-0.069-0.494-0.188-1.251l-0.552-0.021l0.005,0.065l-0.171-0.052
	l-0.144,0.078c-0.092-0.036-0.199-0.05-0.32-0.039c-0.056,0.004-0.081,0.029-0.077,0.073c-0.044,0.003-0.068-0.017-0.072-0.062
	c-0.877,0.141-1.423,0.264-1.636,0.371l-0.156-0.07l-0.083,0.007c-0.055,0.005-0.081,0.034-0.076,0.09
	c-0.056,0.004-0.085-0.021-0.09-0.076l-0.374,0.114l-0.314,0.026c-0.055,0.005-0.085-0.021-0.089-0.075l-0.142,0.095l-0.629,0.053
	l-0.788,0.149l-0.007-0.083l-0.142,0.096c-0.122,0.01-0.229-0.009-0.321-0.057l-0.534,0.194c-0.004-0.044-0.033-0.063-0.088-0.059
	l0.005,0.066c-0.103-0.036-0.182-0.052-0.237-0.047c-0.055,0.004-0.136,0.033-0.243,0.087l-0.386-0.034
	c-0.283,0.067-0.491,0.107-0.624,0.118l-0.005-0.066l-0.16,0.08l-0.066,0.006l-0.403-0.033l0.005,0.066l-0.171-0.052
	c-0.11,0.009-0.213,0.04-0.309,0.092l-0.154-0.054c-0.1,0.009-0.147,0.035-0.144,0.079l-0.568-0.02l-0.231,0.02
	c-0.155,0.014-0.23,0.042-0.227,0.086l-0.402-0.033l-1.01,0.085c-0.056,0.005-0.085-0.021-0.09-0.076l-0.159,0.097
	c-0.104-0.047-0.184-0.067-0.238-0.063l-0.142,0.096l-0.172-0.069c-0.68,0.246-1.187,0.5-1.52,0.761l-0.066,0.006l-0.097-0.159
	l-0.026-0.314l0.07-0.155c-0.056,0.005-0.085-0.021-0.09-0.076c0.39-0.121,0.964-0.825,1.723-2.111
	c0.386-0.299,0.952-1.035,1.699-2.209l1.677-2.657c0.126-0.222,0.25-0.337,0.371-0.348c0.055-0.005,0.135,0.017,0.239,0.063
	c0.055-0.005,0.13-0.038,0.225-0.103l0.956,0.07c-0.004-0.044,0.021-0.068,0.077-0.073c1.522,0.795,3.116,1.317,4.781,1.566
	c1.78,0.162,3.276,0.382,4.489,0.657c0.582,0.052,0.9,0.075,0.956,0.07c0.095-0.063,0.169-0.098,0.225-0.103l0.007,0.083
	l0.142-0.096c0.055-0.004,0.085,0.021,0.089,0.076c0.206-0.062,0.307-0.12,0.302-0.175l0.171,0.052
	c0.096-0.052,0.171-0.081,0.226-0.085l0.006,0.065c0.3-0.125,0.975-0.231,2.023-0.319c0.596-0.172,1.007-0.312,1.231-0.42
	l0.156,0.07c0.055-0.005,0.416-0.14,1.083-0.407c0.044-0.004,0.256,0.001,0.635,0.014c1.274-0.573,2.571-1.076,3.89-1.51
	c0.431-0.035,0.801-0.188,1.112-0.459l0.005,0.065c1.865-0.678,3.193-1.206,3.984-1.583l0.005,0.065
	c0.213-0.106,0.802-0.311,1.765-0.614l1.775-0.898c0.093,0.048,0.2,0.066,0.321,0.057c-0.017-0.21,0.128-0.328,0.438-0.354
	C-101.722,165.937-101.225,165.705-100.226,165.3z"/>
<path fill="#FFFFFF" stroke="#FFFFFF" stroke-miterlimit="10" d="M-78.226,160.839c0.987,0.133,1.525,0.552,1.613,1.255
	c0.059,0.473-0.11,0.816-0.508,1.034l-0.329,0.041c-0.056,0.007-0.086-0.018-0.093-0.072c-0.196,0.125-0.372,0.197-0.525,0.216
	c-0.396,0.05-0.976-0.034-1.738-0.251c-0.391,0.093-0.648,0.176-0.773,0.247c-0.105-0.043-0.186-0.061-0.24-0.054
	c-0.132,0.016-0.417,0.107-0.854,0.273l-0.01-0.082c-0.056,0.007-0.079,0.037-0.072,0.093c-0.077,0.009-0.676-0.05-1.797-0.178
	l-0.154,0.103l-0.956,0.119c-0.055,0.007-0.086-0.017-0.093-0.071c-0.044,0.005-0.063,0.035-0.056,0.09l-0.817,0.019l-0.066,0.009
	c-0.329,0.041-0.904,0.219-1.725,0.533l-0.01-0.083l-0.138,0.102c-0.172-0.034-0.261-0.074-0.267-0.118
	c-0.65,0.238-1.251,0.391-1.8,0.459l-0.066,0.009l-0.57-0.013c0.136,0.195,0.226,0.29,0.27,0.284l0.035,0.816l0.127,1.021
	c0.016,0.121,0.051,0.228,0.107,0.321c-0.033,0.094-0.042,0.201-0.026,0.321l0.108,0.874c0.044,0.262,0.109,0.388,0.198,0.377
	l-0.044,0.323c0.169,1.709,0.286,2.826,0.352,3.354c0.102,0.456,0.157,0.718,0.165,0.783l-0.045,0.173
	c0.055,0.083,0.09,0.185,0.104,0.306l-0.026,0.321c0.056,0.093,0.092,0.2,0.106,0.321l-0.065,0.008l0.084,0.141l0.05,0.396
	c0.015,0.121,0.007,0.233-0.025,0.338c0.007,0.055,0.032,0.079,0.076,0.074c-0.019,0.649-0.006,1.155,0.039,1.518
	c0.055-0.007,0.086,0.018,0.093,0.072l2.681-1.054l0.008,0.065c0.564-0.394,0.995-0.609,1.292-0.646l0.175,0.062
	c0.206-0.048,0.301-0.138,0.285-0.27l0.396-0.05c0.772-0.42,1.23-0.639,1.374-0.656l0.175,0.062c0.527-0.334,0.83-0.505,0.906-0.515
	c0.159,0.024,0.243,0.064,0.25,0.119l0.154-0.103l0.082-0.011c0.943,0.229,1.454,0.65,1.53,1.266
	c0.097,0.77-0.329,1.252-1.275,1.448l-0.008-0.066l-0.156,0.087l-0.083,0.01c-0.055,0.007-0.085-0.012-0.091-0.056l-0.14,0.085
	l-3.478,0.032c-0.264,0.032-0.399,0.021-0.406-0.033c-0.044,0.006-0.063,0.036-0.056,0.091l-0.422-0.031
	c-0.506,0.063-0.972,0.177-1.396,0.342l-0.488-0.022l-0.808,0.101l-0.534,0.15c0.062,0.494,0.12,1.185,0.175,2.07l0.104,0.154
	l-0.023,0.488c0.039,0.308,0.146,0.941,0.321,1.901l-0.043,0.323c0.081,0.202,0.132,0.386,0.152,0.551
	c0.007,0.055-0.012,0.135-0.054,0.241c0.081,0.201,0.132,0.385,0.152,0.55c0.007,0.055-0.011,0.141-0.052,0.258l0.132,0.385
	l-0.033,0.406c0.181,0.558,0.313,1.16,0.394,1.809l0.067,0.544c0.016,0.121,0.051,0.228,0.107,0.321
	c0.052,0.418-0.098,0.916-0.449,1.495c0.031,0.253-0.065,0.778-0.289,1.576c-0.104,0.872-0.135,1.468-0.095,1.786l0.03,0.247
	c0.284,2.274,0.267,3.432-0.052,3.472c0.032,0.264,0.045,0.586,0.037,0.966l-0.165,0.021l-0.021-0.164l-0.148,0.019l0.021,0.164
	c0.015,0.121,0.05,0.223,0.104,0.306c-0.068,0.254-0.156,0.398-0.264,0.435l-0.175-0.063c0.072,0.583-0.059,1.006-0.394,1.271
	c0.025,0.208,0.012,0.316-0.044,0.323l0.104,0.154c0.015,0.121,0,0.229-0.043,0.323c0.065,0.081,0.105,0.183,0.121,0.304
	l-0.154,0.103c-0.095-0.044-0.203-0.059-0.323-0.043l0.049,0.396c0.007,0.055-0.018,0.086-0.072,0.093
	c0.007,0.055,0.038,0.079,0.093,0.072c0.021,0.433-0.008,0.653-0.084,0.663c0.066,0.092,0.104,0.165,0.11,0.221
	c0.027,0.219,0.013,0.545-0.045,0.976l-0.23,0.029c-0.033-0.264-0.104-0.389-0.215-0.375c0.017,0.132,0.007,0.456-0.029,0.975
	l-0.082,0.01l-0.175-0.062l0.069,0.561c0.054,0.429-0.072,0.712-0.379,0.851c0.011,0.088-0.239,0.225-0.752,0.412
	c-0.07,0.421-0.454,1.011-1.152,1.768c0.017,0.132-0.074,0.249-0.273,0.352c-0.012,0.27-0.077,0.411-0.198,0.427l-0.148,0.019
	c-0.22,0.027-0.623-1.239-1.21-3.799l-0.011-0.083l0.082-0.01c-0.007-0.056-0.037-0.079-0.092-0.072
	c-0.178-0.972-0.294-1.682-0.351-2.133l-0.049-0.396c-0.196-0.768-0.299-1.185-0.307-1.25l-0.379-3.033
	c-0.027-0.22-0.091-0.507-0.191-0.863l0.064-0.158c-0.007-0.055-0.038-0.079-0.093-0.072l0.032-0.405l-0.03-0.248
	c-0.095-0.758-0.182-1.634-0.262-2.628l-0.115-0.388c0.02-0.649-0.03-1.452-0.149-2.408l-0.009-0.066
	c-0.015-0.12-0.001-0.233,0.042-0.34c-0.077-0.169-0.294-1.057-0.65-2.664l0.022-0.488c-0.059-0.472-0.229-1.605-0.509-3.401
	l0.083-0.01l-0.104-0.154l-0.028-0.231c-0.007-0.055,0.017-0.085,0.072-0.092l-0.104-0.155l-0.019-0.148
	c-0.007-0.055,0.018-0.086,0.072-0.093l-0.103-0.154l-0.019-0.148c-0.027-0.22-0.037-0.514-0.026-0.884
	c-0.076-0.157-0.142-0.233-0.196-0.227l-0.125-2.88c-0.221-1.412-0.353-2.288-0.395-2.629c-0.125-1.356-0.198-2.123-0.22-2.299
	l-0.116-0.388c0-0.356-0.021-0.706-0.063-1.046l-0.168-1.352l-0.136-0.553l0.066-0.008c-0.007-0.055-0.032-0.08-0.076-0.074
	c-0.004-0.033-0.002-0.195,0.006-0.486c-0.011-0.088-0.113-0.505-0.307-1.251l0.033-0.405c0.021-0.817-0.142-1.673-0.488-2.567
	c0.443-0.021,0.712-0.011,0.808,0.033c0.527-0.065,0.784-0.153,0.771-0.264c0.593,0.016,0.894,0.056,0.902,0.122l0.46-0.208
	l0.422,0.031c0.092-0.067,0.165-0.104,0.221-0.111l0.01,0.082c0.056-0.007,0.079-0.037,0.072-0.093l0.406,0.033l0.21-0.193
	l0.104,0.154l0.154-0.103c0.9-0.113,1.5-0.054,1.796,0.177l0.211-0.193l0.164-0.021c0.121-0.015,0.229,0,0.323,0.043l0.155-0.103
	c0.164-0.021,0.676,0.184,1.532,0.612c0.922-0.216,1.929-0.553,3.021-1.014c0.189,0.089,0.355,0.123,0.498,0.105l0.231-0.028
	c0.766-0.207,1.183-0.315,1.248-0.323l1.599-0.2c0.121-0.015,0.229,0,0.323,0.044c1.166-0.313,2.017-0.608,2.551-0.888
	c0.666-0.027,1.016-0.043,1.049-0.047c0.253-0.032,0.711-0.251,1.374-0.657l0.488,0.022
	C-78.356,160.911-78.313,160.85-78.226,160.839z M-69.336,201.089l1.253-0.156c2.062-0.112,3.149,0.287,3.263,1.199
	c0.053,0.418-0.553,0.756-1.814,1.014c-0.088,0.011-0.218,0.005-0.388-0.019c-0.577,0.116-1.047,0.197-1.409,0.242l-0.255-0.035
	c-0.149,0.063-0.322,0.107-0.52,0.132l-0.099,0.013l-0.412-0.082l-0.891,0.11c-0.197,0.114-0.318,0.174-0.362,0.18l-0.264,0.032
	c-0.187,0.023-0.36,0.022-0.52-0.002c-0.137,0.062-0.311,0.106-0.519,0.132l-0.363,0.046l-0.396-0.085
	c-0.159,0.064-0.288,0.103-0.387,0.115c-0.009-0.065-0.318-0.139-0.932-0.219l-1.4,0.175l-0.75,0.161
	c-0.36-0.022-0.918-0.02-1.673,0.008l-0.256,0.099c-0.521,0.021-0.787-0.008-0.797-0.085c-0.077,0.01-0.112,0.037-0.107,0.081
	l-1.294,0.094l-1.895,0.237l-0.412-0.083c-0.175,0.033-0.257,0.088-0.248,0.165l-0.881,0.043c-0.44,0.055-1.162,0.167-2.168,0.338
	c-0.22,0.027-0.741,0.003-1.565-0.073l-1.788,0.291l-0.767,0.028c-0.138,0.062-0.305,0.104-0.503,0.13l-0.132-0.118
	c0.594-0.342,1.082-0.536,1.467-0.584l1.154-0.145c0.879-0.109,1.464-0.25,1.755-0.42c0.511,0.07,0.948,0.083,1.311,0.037
	l2.884-0.627c0.621-0.033,1.135-0.075,1.541-0.126c0.468-0.192,0.8-0.301,0.998-0.325c1.478-0.14,2.252-0.192,2.323-0.156
	c0.236-0.074,1.03-0.24,2.382-0.498c0.258,0.013,0.39,0.041,0.396,0.085c0.743-0.216,1.581-0.432,2.514-0.648
	c0.17,0.022,0.305,0.028,0.403,0.017c0.832-0.216,1.244-0.356,1.236-0.423l0.651-0.014L-69.336,201.089z"/>
<path fill="#FFFFFF" stroke="#FFFFFF" stroke-miterlimit="10" d="M-61.575,160.278l0.214-0.029c0.044-0.006,0.069,0.019,0.077,0.073
	c0.08-0.067,0.147-0.104,0.203-0.112c1.086-0.149,1.761,0.127,2.024,0.828c0.908,2.457,1.729,4.401,2.462,5.831
	c0.312,0.718,0.532,1.146,0.663,1.284l-0.024,0.188c0.088-0.012,0.454,0.781,1.099,2.38c1.356,2.955,3,6.774,4.93,11.461
	l1.074,2.082c0.354,0.544,0.837,1.611,1.447,3.204c0.59,1.204,1.056,2.353,1.396,3.446c0.043-0.006,0.069,0.019,0.077,0.073
	l-0.18,0.158c-0.003-0.021-0.05-0.16-0.142-0.416l-0.147,0.021c0.022,0.164,0.127,0.356,0.313,0.577
	c0.014,0.099-0.028,0.154-0.127,0.168l-0.218-0.121c-0.098,0.025-0.141,0.081-0.128,0.169l0.061,0.444l0.18,0.21
	c-0.031,0.418-0.103,0.635-0.212,0.649l0.086,0.139l0.029,0.214l-0.065,0.01c-0.077,0.01-0.276-0.264-0.6-0.823l-0.082,0.012
	l0.018,0.131l0.105,0.153c-0.099,0.014-0.138,0.098-0.116,0.251l0.086,0.139c-0.191,0.642-0.314,0.966-0.369,0.974
	c-0.104-0.098-0.16-0.19-0.173-0.278l-0.131,0.018c0.033,0.241,0,0.369-0.099,0.383l0.091,0.172l0.018,0.132
	c-0.228,0.21-0.409,0.437-0.543,0.679c-0.007-0.044-0.037-0.063-0.092-0.055c0.03,0.219-0.265,0.472-0.885,0.759
	c-0.169-0.089-0.291-0.128-0.368-0.117c-0.121,0.017-0.37,0.151-0.749,0.404l0.104,0.153l-0.19,0.194l-0.132,0.019
	c-0.56,0.076-1.29-0.885-2.19-2.885c-0.44-0.599-1.07-1.881-1.888-3.848l-1.505-3.264c-1.154-2.132-1.949-3.722-2.384-4.769
	c-0.014-0.099-0.063-0.143-0.151-0.13l-1.218,0.167c-0.187,0.025-0.364,0.073-0.534,0.141l-0.354-0.019
	c-0.883,0.167-1.32,0.277-1.313,0.332l-0.356-0.035c-1.306,0.18-3.89,0.613-7.751,1.301c-0.045,0.007-0.069-0.013-0.075-0.057
	c-1.021,0.141-1.499,0.436-1.438,0.886c-0.079,1.944-0.332,3.236-0.758,3.876l-0.065,0.01c-0.007-0.044-0.043-0.106-0.109-0.187
	c0.011-0.896,0.043-1.348,0.099-1.354l-0.101-0.121l0.093-2.494l-0.05,0.007c-0.526,0.073-1.026,0.298-1.499,0.676
	c-0.071,0.055-0.162,0.09-0.271,0.104l-0.56,0.077c-0.044,0.006-0.068-0.013-0.074-0.057l-0.123,0.084
	c-0.25-0.033-0.571-0.296-0.964-0.79c-0.002-0.1,0.035-0.155,0.111-0.166c-0.11-0.152-0.176-0.305-0.197-0.459
	c0.265-0.595,0.688-0.933,1.27-1.013c0.428-0.059,0.802,0.019,1.121,0.231c0.182,0.02,0.371,0.016,0.568-0.012l0.28-0.038
	c0.044-0.006,0.07,0.023,0.079,0.09c0.34-0.047,0.51-0.355,0.51-0.926c0.531-1.749,0.903-3.913,1.119-6.491
	c0.088-0.012,0.146-0.769,0.174-2.271l0.065-0.009l-0.086-0.139c0.137-0.31,0.286-1.13,0.45-2.46
	c0.236-0.39,0.378-1.595,0.425-3.612c0.113-0.966,0.257-1.991,0.432-3.077c-0.068-0.494-0.075-0.75-0.021-0.769
	c-0.066-0.069-0.107-0.17-0.126-0.302l0.27-0.237l2.715-0.374c0.712-0.266,1.139-0.458,1.278-0.578l1.35-0.186
	c0.108-0.183,0.607-0.335,1.496-0.457l0.56-0.077C-62.079,160.799-61.842,160.615-61.575,160.278z M-72.801,188.848
	c0.089-0.001,0.14,0.037,0.149,0.113l0.179,1.3l-0.102,0.232c0.057,0.093,0.09,0.167,0.098,0.222
	c-0.084,0.045-0.188,0.869-0.313,2.474c-0.026,0.708-0.07,1.155-0.134,1.343c1.096,0.576,2.25,1.412,3.463,2.508
	c-0.095,0.371-0.601,0.553-1.518,0.545c-0.014,0.146-0.879,0.114-2.596-0.096c-0.459-0.25-0.706-0.501-0.74-0.754
	c0.286-0.844,0.485-2.039,0.597-3.586c0.133-0.901,0.251-1.465,0.354-1.691C-73.146,190.031-72.959,189.16-72.801,188.848z
	 M-68.013,163.325c0.091,0.256,0.14,0.406,0.146,0.45l-1.326,7.056c-0.106,0.932-0.412,2.856-0.916,5.776
	c-0.01,0.817-0.07,1.233-0.18,1.249l0.088,0.155l-1.292,3.648c0.041,0.296,0.01,0.558-0.093,0.784l0.141,0.047l7.157-0.984
	l0.346-0.048c0.099-0.014,0.184-0.047,0.254-0.102c0.056-0.008,0.086,0.011,0.092,0.055l0.484-0.134l2.172-0.299
	c0.099-0.014,0.195-0.005,0.289,0.027c0.07-0.055,0.155-0.089,0.254-0.103l0.23-0.031l0.421,0.009l0.122-0.084
	c0.204,0.018,0.379,0.071,0.525,0.163c-0.017-0.121-0.008-0.223,0.025-0.306c-1.096-2.845-2.369-5.766-3.821-8.763
	c-0.462-1.244-1.21-2.862-2.244-4.854c-0.633-1.434-0.954-2.188-0.965-2.265l-0.066,0.009l0.044-0.174
	c-0.316-0.672-0.696-1.2-1.141-1.587l-0.082,0.012C-67.678,163.078-67.899,163.176-68.013,163.325z M-47.668,188.123l0.014,0.099
	c0.045,0.084,0.071,0.152,0.078,0.207l0.148-0.021l-0.012-0.082c-0.056-0.081-0.088-0.155-0.097-0.221L-47.668,188.123z
	 M-46.58,190.304l0.018,0.132c0.06,0.104,0.093,0.183,0.101,0.237l0.049-0.007l-0.034-0.246
	C-46.459,190.332-46.504,190.293-46.58,190.304z"/>
<path fill="#FFFFFF" stroke="#FFFFFF" stroke-miterlimit="10" d="M-43.499,157.587l1.102-0.161c0.811-0.119,1.348-0.041,1.612,0.233
	c0.025,0.176,0.071,0.304,0.14,0.383c-0.042,0.096-0.055,0.204-0.036,0.324c0.006,0.044,0.036,0.062,0.092,0.054
	c-0.063,0.256-0.074,0.525-0.033,0.811l0.088,0.139c-0.029,0.104-0.04,0.185-0.032,0.239c0.111,0.454,0.172,0.714,0.182,0.779
	c-0.03,0.105-0.04,0.185-0.032,0.239l0.065-0.009c0.008,0.055-0.01,0.085-0.054,0.092c0.933,3.467,1.597,6.206,1.992,8.219
	l-0.061,0.16l0.645,2.222l-0.044,0.157l0.012,0.083c0.022,0.153,0.056,0.227,0.1,0.22l-0.009,0.404l0.067,0.46
	c0.009,0.056,0.034,0.079,0.078,0.073c0.008,0.055-0.01,0.085-0.054,0.092c0.227,0.862,0.462,2.125,0.706,3.791l0.046,0.312
	c0.086,0.514,0.173,0.764,0.261,0.751c0.008,0.055-0.01,0.086-0.054,0.092l0.146,0.533l0.137,0.937
	c0.084,0.569,0.21,1.055,0.381,1.455c-0.042,0.096-0.054,0.204-0.036,0.324l0.082-0.012c0.008,0.055-0.016,0.086-0.07,0.094
	c0.402,1.676,0.748,3.505,1.038,5.488l0.128,0.3l-0.058,0.177c0.069,0.091,0.107,0.163,0.116,0.218
	c0.008,0.055-0.016,0.086-0.07,0.095l0.138,0.365l0.091,0.625c0.008,0.055-0.016,0.086-0.07,0.094l0.104,0.136l-0.024,0.407
	c0.016,0.109,0.051,0.16,0.105,0.152l-0.002,0.554c0.088,0.603,0.206,1.564,0.354,2.886l0.23-0.033
	c1.902-0.38,2.909-0.577,3.019-0.594c-0.024-0.164,0.669-0.478,2.078-0.941c0.219-0.032,0.423-0.09,0.612-0.174l0.012,0.082
	l0.453-0.234l0.784-0.03c0.361-0.053,0.607-0.168,0.738-0.344c0.132-0.019,0.336-0.077,0.613-0.173
	c0.281,0.015,0.548,0.003,0.801-0.033c-0.017-0.11,0.43-0.31,1.339-0.6c0.789-0.417,1.171-0.714,1.146-0.89
	c0.262-0.352,0.725-0.626,1.39-0.824l0.158,0.044l0.154-0.09c0.603-0.088,1.101,0.259,1.495,1.04l0.082-0.012l0.082,0.559
	c0.08,0.548-0.305,0.974-1.156,1.277c-0.216-0.024-0.428-0.021-0.636,0.009l0.012,0.083c-0.447-0.147-0.759-0.287-0.934-0.418
	c-0.797,0.218-1.9,0.67-3.311,1.357l-0.105-0.152l-0.53,0.162l-1.167,0.171c-0.055,0.008-0.078,0.039-0.07,0.094
	c-0.106-0.04-0.188-0.057-0.242-0.049c-2.378,0.349-4.186,0.691-5.422,1.029l-0.461,0.067c-0.346,0.162-0.546,0.248-0.601,0.256
	l-0.771,0.113c-0.387,0.269-0.549,0.611-0.488,1.027c0.068,0.08,0.11,0.18,0.128,0.301c-0.3,0.626-0.493,0.945-0.581,0.958
	c-0.143,0.021-0.29,0.12-0.443,0.3c-0.016-0.109-0.073-0.157-0.172-0.143l-0.669,0.819l-0.395,0.058
	c0.069,0.472-0.182,0.749-0.751,0.832c-0.106-0.04-0.188-0.057-0.242-0.049c0.005,0.033-0.08,0.18-0.254,0.44h-0.571
	c-0.044,0.006-0.242,0.063-0.596,0.171c-0.055,0.008-0.229-0.073-0.522-0.242c0.033,0.229-0.321,0.517-1.065,0.86
	c-0.486-0.029-0.755-0.225-0.808-0.586c-0.009-0.056,0.015-0.087,0.069-0.095c-0.166-0.445-0.307-1.063-0.422-1.852l-0.25-1.709
	c-0.008-0.056-0.04-0.078-0.095-0.07c-0.006-0.044,0.018-0.07,0.073-0.078c-0.149-1.321-0.279-2.365-0.392-3.132
	c-0.097-0.657-0.267-1.668-0.511-3.031c-0.069-0.09-0.107-0.163-0.116-0.218l0.082-0.012l-0.104-0.136l-0.115-0.789
	c-0.189-1.293-0.713-3.415-1.57-6.367c-0.008-0.055,0.016-0.086,0.07-0.094l-0.14-0.383l-0.01-0.065
	c-0.143-0.976-0.353-1.873-0.63-2.694l0.037-0.324c-0.008-0.055-0.047-0.128-0.116-0.219c-0.055-0.831-0.07-1.282-0.047-1.353
	c-0.064-0.136-0.268-0.795-0.608-1.976c0.009-0.326,0.04-0.493,0.095-0.501c-0.069-0.091-0.107-0.163-0.116-0.218
	c-0.004-0.033,0-0.19,0.016-0.473l-0.106-0.152l0.061-0.159c-0.404-1.307-0.97-3.528-1.698-6.668
	c-0.088,0.013-0.183-0.292-0.285-0.915l-0.079-0.542c-0.008-0.055-0.039-0.078-0.094-0.07l0.058-0.177l-0.528-1.433l0.065-0.01
	c-0.255-0.746-0.477-1.189-0.665-1.33c-0.144-0.985,0.332-1.559,1.428-1.72c1.554-0.54,2.323-0.865,2.308-0.976l0.801-0.033
	c0.055-0.008,0.128-0.046,0.218-0.115l0.324,0.036L-43.499,157.587z"/>
</svg>
