<?xml version="1.0" encoding="utf-8"?>
<!-- Generator: Adobe Illustrator 15.0.0, SVG Export Plug-In . SVG Version: 6.00 Build 0)  -->
<!DOCTYPE svg PUBLIC "-//W3C//DTD SVG 1.0//EN" "http://www.w3.org/TR/2001/REC-SVG-20010904/DTD/svg10.dtd">
<svg version="1.0"
	 id="svg6065" sodipodi:docname="MJSouthwind.svg" inkscape:version="0.47 r22583" xmlns:dc="http://purl.org/dc/elements/1.1/" xmlns:cc="http://creativecommons.org/ns#" xmlns:rdf="http://www.w3.org/1999/02/22-rdf-syntax-ns#" xmlns:svg="http://www.w3.org/2000/svg" xmlns:inkscape="http://www.inkscape.org/namespaces/inkscape" xmlns:sodipodi="http://sodipodi.sourceforge.net/DTD/sodipodi-0.dtd"
	 xmlns="http://www.w3.org/2000/svg" xmlns:xlink="http://www.w3.org/1999/xlink" x="0px" y="0px" width="74.7px" height="95.1px"
	 viewBox="0 0 74.7 95.1" enable-background="new 0 0 74.7 95.1" xml:space="preserve">
<sodipodi:namedview  id="base" pagecolor="#ffffff" inkscape:cy="49.198727" inkscape:cx="-35.4553" inkscape:zoom="5.6" borderopacity="1.0" showgrid="false" bordercolor="#666666" inkscape:current-layer="layer1" inkscape:window-y="25" inkscape:window-x="0" inkscape:window-height="851" inkscape:window-width="1440" inkscape:pageshadow="2" inkscape:pageopacity="0.0" inkscape:window-maximized="1" inkscape:document-units="px">
	</sodipodi:namedview>
<g id="layer1" transform="translate(-273.82856,-427.79074)" inkscape:label="Layer 1" inkscape:groupmode="layer">
	<g id="text6075">
		<path id="path6080" sodipodi:nodetypes="cccccccccccccccccc" d="M348.528,515.69c0,4.801-2.267,7.2-6.8,7.2h-61.1
			c-4.533,0-6.8-2.399-6.8-7.2v-80.699c0-4.801,2.267-7.2,6.8-7.2h61.1c4.533,0,6.8,2.399,6.8,7.2V515.69 M346.829,515.69v-80.699
			c0-3.667-1.701-5.5-5.101-5.5h-61.1c-3.4,0-5.1,1.833-5.1,5.5v80.699c0,3.733,1.7,5.601,5.1,5.601h61.1
			C345.128,521.291,346.829,519.424,346.829,515.69"/>
	</g>
	<path id="path4726" fill="#FFFFFF" d="M278.793,520.864c-1.277-0.458-2.027-1.099-2.563-2.19l-0.508-1.035l-0.055-41.786
		c-0.039-29.878,0.001-42.047,0.142-42.7c0.297-1.388,1.067-2.465,2.181-3.052l0.946-0.498h32.232h32.231l0.869,0.431
		c0.498,0.248,1.088,0.734,1.385,1.146c1.123,1.55,1.051-1.494,1.051,43.983c0,28.585-0.06,41.751-0.189,42.36
		c-0.287,1.336-1.019,2.35-2.146,2.973l-0.97,0.536l-31.964,0.037C284.863,521.101,279.357,521.065,278.793,520.864L278.793,520.864
		z"/>
</g>
</svg>
